<svg xmlns="http://www.w3.org/2000/svg" width="920" height="620" viewBox="0 0 920 620" font-family="'Hiragino Sans','Noto Sans JP','Yu Gothic','Segoe UI',sans-serif">
<defs><marker id="aR" viewBox="0 0 10 10" refX="8" refY="5" markerWidth="7" markerHeight="7" orient="auto-start-reverse"><path d="M0 1 L9 5 L0 9 z" fill="#475569"/></marker><marker id="aRsub" viewBox="0 0 10 10" refX="8" refY="5" markerWidth="7" markerHeight="7" orient="auto-start-reverse"><path d="M0 1 L9 5 L0 9 z" fill="#94a3b8"/></marker></defs>
<rect x="0" y="0" width="920" height="620" fill="#ffffff"/>
<rect x="40" y="30" width="840" height="240" rx="16" fill="#fee2e2" stroke="#ef4444" stroke-width="3.5" stroke-dasharray="7 6"/>
<svg x="75" y="50" width="40" height="40" viewBox="0 0 36 36"><path fill="#FFCC4D" d="M2.653 35C.811 35-.001 33.662.847 32.027L16.456 1.972c.849-1.635 2.238-1.635 3.087 0l15.609 30.056c.85 1.634.037 2.972-1.805 2.972H2.653z"/><path fill="#231F20" d="M15.583 28.953c0-1.333 1.085-2.418 2.419-2.418 1.333 0 2.418 1.085 2.418 2.418 0 1.334-1.086 2.419-2.418 2.419-1.334 0-2.419-1.085-2.419-2.419zm.186-18.293c0-1.302.961-2.108 2.232-2.108 1.241 0 2.233.837 2.233 2.108v11.938c0 1.271-.992 2.108-2.233 2.108-1.271 0-2.232-.807-2.232-2.108V10.66z"/></svg>
<text x="200" y="78" text-anchor="start" font-size="21" fill="#b91c1c" font-weight="700">誤り：鍵がフロントに丸見え</text>
<rect x="110" y="120" width="320" height="130" rx="16" fill="#f1f5f9" stroke="#94a3b8" stroke-width="3.5"/>
<svg x="140" y="140" width="64" height="64" viewBox="0 0 36 36"><path fill="#3B88C3" d="M18 0C8.059 0 0 8.059 0 18s8.059 18 18 18 18-8.059 18-18S27.941 0 18 0zM2.05 19h3.983c.092 2.506.522 4.871 1.229 7H4.158c-1.207-2.083-1.95-4.459-2.108-7zM19 8V2.081c2.747.436 5.162 2.655 6.799 5.919H19zm7.651 2c.754 2.083 1.219 4.46 1.317 7H19v-7h7.651zM17 2.081V8h-6.799C11.837 4.736 14.253 2.517 17 2.081zM17 10v7H8.032c.098-2.54.563-4.917 1.317-7H17zM6.034 17H2.05c.158-2.54.901-4.917 2.107-7h3.104c-.705 2.129-1.135 4.495-1.227 7zm1.998 2H17v7H9.349c-.754-2.083-1.219-4.459-1.317-7zM17 28v5.919c-2.747-.437-5.163-2.655-6.799-5.919H17zm2 5.919V28h6.8c-1.637 3.264-4.053 5.482-6.8 5.919zM19 26v-7h8.969c-.099 2.541-.563 4.917-1.317 7H19zm10.967-7h3.982c-.157 2.541-.9 4.917-2.107 7h-3.104c.706-2.129 1.136-4.494 1.229-7zm0-2c-.093-2.505-.523-4.871-1.229-7h3.104c1.207 2.083 1.95 4.46 2.107 7h-3.982zm.512-9h-2.503c-.717-1.604-1.606-3.015-2.619-4.199C27.346 4.833 29.089 6.267 30.479 8zM10.643 3.801C9.629 4.985 8.74 6.396 8.023 8H5.521c1.39-1.733 3.133-3.166 5.122-4.199zM5.521 28h2.503c.716 1.604 1.605 3.015 2.619 4.198C8.654 31.166 6.911 29.733 5.521 28zm19.836 4.198c1.014-1.184 1.902-2.594 2.619-4.198h2.503c-1.39 1.733-3.133 3.166-5.122 4.198z"/></svg>
<text x="360" y="160" text-anchor="middle" font-size="17" fill="#475569" font-weight="600">ブラウザ</text>
<svg x="280" y="145" width="44" height="44" viewBox="0 0 36 36"><path fill="#C1694F" d="M32.614 3.414C28.31-.89 21.332-.89 17.027 3.414c-3.391 3.392-4.098 8.439-2.144 12.535l-3.916 3.915c-.64.641-.841 1.543-.625 2.359l-1.973 1.972c-.479-.48-1.252-.48-1.731 0l-1.731 1.732c-.479.479-.479 1.253 0 1.732l-.867.864c-.479-.478-1.253-.478-1.731 0l-.866.867c-.479.479-.479 1.253 0 1.732.015.016.036.02.051.033-.794 1.189-.668 2.812.382 3.863 1.195 1.195 3.134 1.195 4.329 0L20.08 21.144c4.097 1.955 9.144 1.247 12.535-2.146 4.302-4.302 4.302-11.28-.001-15.584zm-1.731 5.195c-.957.956-2.509.956-3.464 0-.956-.956-.956-2.507 0-3.464.955-.956 2.507-.956 3.464 0 .956.957.956 2.508 0 3.464z"/></svg>
<text x="270" y="235" text-anchor="middle" font-size="17" fill="#b91c1c" font-weight="600">鍵がフロント側にある</text>
<svg x="560" y="150" width="52" height="52" viewBox="0 0 36 36"><path fill="#FFCC4D" d="M2.653 35C.811 35-.001 33.662.847 32.027L16.456 1.972c.849-1.635 2.238-1.635 3.087 0l15.609 30.056c.85 1.634.037 2.972-1.805 2.972H2.653z"/><path fill="#231F20" d="M15.583 28.953c0-1.333 1.085-2.418 2.419-2.418 1.333 0 2.418 1.085 2.418 2.418 0 1.334-1.086 2.419-2.418 2.419-1.334 0-2.419-1.085-2.419-2.419zm.186-18.293c0-1.302.961-2.108 2.232-2.108 1.241 0 2.233.837 2.233 2.108v11.938c0 1.271-.992 2.108-2.233 2.108-1.271 0-2.232-.807-2.232-2.108V10.66z"/></svg>
<text x="700" y="165" text-anchor="middle" font-size="17" fill="#b91c1c" font-weight="600">誰でもソース表示で</text>
<text x="700" y="195" text-anchor="middle" font-size="17" fill="#b91c1c" font-weight="600">鍵を読めてしまう</text>
<rect x="40" y="310" width="840" height="280" rx="16" fill="#dcfce7" stroke="#22c55e" stroke-width="3.5"/>
<svg x="75" y="330" width="40" height="40" viewBox="0 0 36 36"><path fill="#77B255" d="M36 32c0 2.209-1.791 4-4 4H4c-2.209 0-4-1.791-4-4V4c0-2.209 1.791-4 4-4h28c2.209 0 4 1.791 4 4v28z"/><path fill="#FFF" d="M29.28 6.362c-1.156-.751-2.704-.422-3.458.736L14.936 23.877l-5.029-4.65c-1.014-.938-2.596-.875-3.533.138-.937 1.014-.875 2.596.139 3.533l7.209 6.666c.48.445 1.09.665 1.696.665.673 0 1.534-.282 2.099-1.139.332-.506 12.5-19.27 12.5-19.27.751-1.159.421-2.707-.737-3.458z"/></svg>
<text x="195" y="358" text-anchor="start" font-size="21" fill="#15803d" font-weight="700">正しい：鍵は Worker の中だけ</text>
<svg x="80" y="410" width="72" height="72" viewBox="0 0 36 36"><path fill="#3B88C3" d="M18 0C8.059 0 0 8.059 0 18s8.059 18 18 18 18-8.059 18-18S27.941 0 18 0zM2.05 19h3.983c.092 2.506.522 4.871 1.229 7H4.158c-1.207-2.083-1.95-4.459-2.108-7zM19 8V2.081c2.747.436 5.162 2.655 6.799 5.919H19zm7.651 2c.754 2.083 1.219 4.46 1.317 7H19v-7h7.651zM17 2.081V8h-6.799C11.837 4.736 14.253 2.517 17 2.081zM17 10v7H8.032c.098-2.54.563-4.917 1.317-7H17zM6.034 17H2.05c.158-2.54.901-4.917 2.107-7h3.104c-.705 2.129-1.135 4.495-1.227 7zm1.998 2H17v7H9.349c-.754-2.083-1.219-4.459-1.317-7zM17 28v5.919c-2.747-.437-5.163-2.655-6.799-5.919H17zm2 5.919V28h6.8c-1.637 3.264-4.053 5.482-6.8 5.919zM19 26v-7h8.969c-.099 2.541-.563 4.917-1.317 7H19zm10.967-7h3.982c-.157 2.541-.9 4.917-2.107 7h-3.104c.706-2.129 1.136-4.494 1.229-7zm0-2c-.093-2.505-.523-4.871-1.229-7h3.104c1.207 2.083 1.95 4.46 2.107 7h-3.982zm.512-9h-2.503c-.717-1.604-1.606-3.015-2.619-4.199C27.346 4.833 29.089 6.267 30.479 8zM10.643 3.801C9.629 4.985 8.74 6.396 8.023 8H5.521c1.39-1.733 3.133-3.166 5.122-4.199zM5.521 28h2.503c.716 1.604 1.605 3.015 2.619 4.198C8.654 31.166 6.911 29.733 5.521 28zm19.836 4.198c1.014-1.184 1.902-2.594 2.619-4.198h2.503c-1.39 1.733-3.133 3.166-5.122 4.198z"/></svg>
<text x="116" y="500" text-anchor="middle" font-size="17" fill="#475569" font-weight="600">ブラウザ</text>
<rect x="370" y="395" width="230" height="150" rx="16" fill="#dbeafe" stroke="#3b82f6" stroke-width="3.5"/>
<svg x="400" y="410" width="56" height="56" viewBox="0 0 36 36"><path fill="#66757F" d="M34 15h-3.362c-.324-1.369-.864-2.651-1.582-3.814l2.379-2.379c.781-.781.781-2.048 0-2.829l-1.414-1.414c-.781-.781-2.047-.781-2.828 0l-2.379 2.379C23.65 6.225 22.369 5.686 21 5.362V2c0-1.104-.896-2-2-2h-2c-1.104 0-2 .896-2 2v3.362c-1.369.324-2.651.864-3.814 1.582L8.808 4.565c-.781-.781-2.048-.781-2.828 0L4.565 5.979c-.781.781-.781 2.048-.001 2.829l2.379 2.379C6.225 12.35 5.686 13.632 5.362 15H2c-1.104 0-2 .896-2 2v2c0 1.104.896 2 2 2h3.362c.324 1.368.864 2.65 1.582 3.813l-2.379 2.379c-.78.78-.78 2.048.001 2.829l1.414 1.414c.78.78 2.047.78 2.828 0l2.379-2.379c1.163.719 2.445 1.258 3.814 1.582V34c0 1.104.896 2 2 2h2c1.104 0 2-.896 2-2v-3.362c1.368-.324 2.65-.864 3.813-1.582l2.379 2.379c.781.781 2.047.781 2.828 0l1.414-1.414c.781-.781.781-2.048 0-2.829l-2.379-2.379c.719-1.163 1.258-2.445 1.582-3.814H34c1.104 0 2-.896 2-2v-2C36 15.896 35.104 15 34 15zM18 26c-4.418 0-8-3.582-8-8s3.582-8 8-8 8 3.582 8 8-3.582 8-8 8z"/></svg>
<text x="530" y="432" text-anchor="middle" font-size="17" fill="#1d4ed8" font-weight="600">Worker</text>
<svg x="460" y="462" width="44" height="44" viewBox="0 0 36 36"><path fill="#C1694F" d="M32.614 3.414C28.31-.89 21.332-.89 17.027 3.414c-3.391 3.392-4.098 8.439-2.144 12.535l-3.916 3.915c-.64.641-.841 1.543-.625 2.359l-1.973 1.972c-.479-.48-1.252-.48-1.731 0l-1.731 1.732c-.479.479-.479 1.253 0 1.732l-.867.864c-.479-.478-1.253-.478-1.731 0l-.866.867c-.479.479-.479 1.253 0 1.732.015.016.036.02.051.033-.794 1.189-.668 2.812.382 3.863 1.195 1.195 3.134 1.195 4.329 0L20.08 21.144c4.097 1.955 9.144 1.247 12.535-2.146 4.302-4.302 4.302-11.28-.001-15.584zm-1.731 5.195c-.957.956-2.509.956-3.464 0-.956-.956-.956-2.507 0-3.464.955-.956 2.507-.956 3.464 0 .956.957.956 2.508 0 3.464z"/></svg>
<text x="485" y="530" text-anchor="middle" font-size="15" fill="#1d4ed8" font-weight="400">鍵は Worker の中だけ</text>
<svg x="770" y="410" width="72" height="72" viewBox="0 0 36 36"><path fill="#CCD6DD" d="M36 22c0 2.209-1.791 4-4 4H4c-2.209 0-4-1.791-4-4V4c0-2.209 1.791-4 4-4h28c2.209 0 4 1.791 4 4v18z"/><path fill="#5DADEC" d="M4 4h28v18H4z"/><path fill="#CCD6DD" d="M13 26h10v6H13z"/><path fill="#9AAAB4" d="M13 26h10v2H13z"/><path fill="#E1E8ED" d="M36 33c0-1.657-1.343-3-3-3H3c-1.657 0-3 1.343-3 3s1.343 3 3 3h30c1.657 0 3-1.343 3-3z"/><path fill="#F5F8FA" d="M3 32h2v2H3zm4 0h2v2H7zm4 0h2v2h-2zm4 0h2v2h-2zm4 0h2v2h-2zm4 0h2v2h-2zm4 0h2v2h-2zm4 0h2v2h-2z"/></svg>
<text x="806" y="500" text-anchor="middle" font-size="17" fill="#475569" font-weight="600">外部API</text>
<line x1="170" y1="440" x2="365" y2="450" stroke="#475569" stroke-width="3.5" stroke-linecap="round" stroke-linejoin="round" marker-end="url(#aR)"/>
<text x="267.5" y="435.0" text-anchor="middle" font-size="17" fill="#0f172a" font-weight="600">/api を呼ぶ</text>
<line x1="605" y1="450" x2="765" y2="440" stroke="#475569" stroke-width="3.5" stroke-linecap="round" stroke-linejoin="round" marker-end="url(#aR)"/>
<text x="685.0" y="435.0" text-anchor="middle" font-size="17" fill="#0f172a" font-weight="600">鍵を付けて呼ぶ</text>
</svg>
