<svg xmlns="http://www.w3.org/2000/svg" width="780" height="540" viewBox="0 0 780 540" font-family="'Hiragino Sans','Noto Sans JP','Yu Gothic','Segoe UI',sans-serif">
<defs>
<symbol id="pkg" viewBox="0 0 36 36">
<path fill="#662113" d="M4 11v12.375c0 2.042 1.093 2.484 1.093 2.484l11.574 9.099C18.489 36.39 18 33.375 18 33.375V22L4 11z"/>
<path fill="#C1694F" d="M32 11v12.375c0 2.042-1.063 2.484-1.063 2.484s-9.767 7.667-11.588 9.099C17.526 36.39 18 33.375 18 33.375V22l14-11z"/>
<path fill="#D99E82" d="M19.289.5c-.753-.61-1.988-.61-2.742 0L4.565 10.029c-.754.61-.754 1.607 0 2.216l12.023 9.646c.754.609 1.989.609 2.743 0l12.104-9.73c.754-.609.754-1.606 0-2.216L19.289.5z"/>
<path fill="#D99E82" d="M18 35.75c-.552 0-1-.482-1-1.078V21.745c0-.596.448-1.078 1-1.078.553 0 1 .482 1 1.078v12.927c0 .596-.447 1.078-1 1.078z"/>
<path fill="#99AAB5" d="M28 18.836c0 1.104.104 1.646-1 2.442l-2.469 1.878c-1.104.797-1.531.113-1.531-.992v-2.961c0-.193-.026-.4-.278-.608C20.144 16.47 10.134 8.519 8.31 7.051l4.625-3.678c1.266.926 10.753 8.252 14.722 11.377.197.156.343.328.343.516v3.57z"/>
<path fill="#CCD6DD" d="M27.656 14.75C23.688 11.625 14.201 4.299 12.935 3.373l-1.721 1.368-2.904 2.31c1.825 1.468 11.834 9.419 14.412 11.544.151.125.217.25.248.371L27.903 15c-.06-.087-.146-.171-.247-.25z"/>
<path fill="#CCD6DD" d="M28 18.836v-3.57c0-.188-.146-.359-.344-.516-3.968-3.125-13.455-10.451-14.721-11.377l-2.073 1.649c3.393 2.669 12.481 9.681 14.86 11.573.256.204.278.415.278.608v4.836l1-.761c1.104-.797 1-1.338 1-2.442z"/>
</symbol>
</defs>
<rect x="0" y="0" width="780" height="540" fill="#ffffff"/>

<!-- column headers -->
<rect x="20" y="16" width="150" height="30" rx="15" fill="#dbeafe"/>
<text x="95" y="36" text-anchor="middle" font-size="14" fill="#1d4ed8" font-weight="700">自分のアプリ</text>
<rect x="235" y="16" width="120" height="30" rx="15" fill="#ccfbf1"/>
<text x="295" y="36" text-anchor="middle" font-size="14" fill="#0f766e" font-weight="700">直接依存</text>
<rect x="425" y="16" width="130" height="30" rx="15" fill="#ede9fe"/>
<text x="490" y="36" text-anchor="middle" font-size="14" fill="#6d28d9" font-weight="700">その依存</text>
<rect x="612" y="16" width="150" height="30" rx="15" fill="#ffedd5"/>
<text x="687" y="36" text-anchor="middle" font-size="14" fill="#b45309" font-weight="700">さらにその依存…</text>

<!-- edges L0 -> L1 -->
<path d="M155 280 C197 280 197 120 239 120" fill="none" stroke="#5eead4" stroke-width="2.5"/>
<path d="M155 280 C197 280 197 280 239 280" fill="none" stroke="#5eead4" stroke-width="2.5"/>
<path d="M155 280 C197 280 197 440 239 440" fill="none" stroke="#5eead4" stroke-width="2.5"/>
<!-- edges L1 -> L2 -->
<path d="M355 120 C400 120 400 80 445 80"   fill="none" stroke="#c4b5fd" stroke-width="2"/>
<path d="M355 120 C400 120 400 160 445 160" fill="none" stroke="#c4b5fd" stroke-width="2"/>
<path d="M355 280 C400 280 400 240 445 240" fill="none" stroke="#c4b5fd" stroke-width="2"/>
<path d="M355 280 C400 280 400 320 445 320" fill="none" stroke="#c4b5fd" stroke-width="2"/>
<path d="M355 440 C400 440 400 400 445 400" fill="none" stroke="#c4b5fd" stroke-width="2"/>
<path d="M355 440 C400 440 400 480 445 480" fill="none" stroke="#c4b5fd" stroke-width="2"/>
<!-- edges L2 -> L3 -->
<path d="M535 80 C583 80 583 60 632 60"     fill="none" stroke="#fcd34d" stroke-width="1.8"/>
<path d="M535 80 C583 80 583 100 632 100"   fill="none" stroke="#fcd34d" stroke-width="1.8"/>
<path d="M535 160 C583 160 583 140 632 140" fill="none" stroke="#fcd34d" stroke-width="1.8"/>
<path d="M535 160 C583 160 583 180 632 180" fill="none" stroke="#fcd34d" stroke-width="1.8"/>
<path d="M535 240 C583 240 583 220 632 220" fill="none" stroke="#fcd34d" stroke-width="1.8"/>
<path d="M535 240 C583 240 583 260 632 260" fill="none" stroke="#fcd34d" stroke-width="1.8"/>
<path d="M535 320 C583 320 583 300 632 300" fill="none" stroke="#fcd34d" stroke-width="1.8"/>
<path d="M535 320 C583 320 583 340 632 340" fill="none" stroke="#fcd34d" stroke-width="1.8"/>
<path d="M535 400 C583 400 583 380 632 380" fill="none" stroke="#fcd34d" stroke-width="1.8"/>
<path d="M535 400 C583 400 583 420 632 420" fill="none" stroke="#fcd34d" stroke-width="1.8"/>
<path d="M535 480 C583 480 583 460 632 460" fill="none" stroke="#fcd34d" stroke-width="1.8"/>
<path d="M535 480 C583 480 583 500 632 500" fill="none" stroke="#fcd34d" stroke-width="1.8"/>

<!-- L0 : my app -->
<rect x="25" y="253" width="130" height="54" rx="12" fill="#dbeafe" stroke="#3b82f6" stroke-width="3"/>
<rect x="40" y="267" width="30" height="26" rx="4" fill="#ffffff" stroke="#3b82f6" stroke-width="2"/>
<rect x="40" y="267" width="30" height="8" rx="4" fill="#3b82f6"/>
<circle cx="45" cy="271" r="1.4" fill="#ffffff"/><circle cx="50" cy="271" r="1.4" fill="#ffffff"/>
<text x="82" y="277" font-size="13" fill="#1d4ed8" font-weight="700">自分で</text>
<text x="82" y="294" font-size="13" fill="#1d4ed8" font-weight="700">書いた分</text>

<!-- L1 : direct deps -->
<g>
<rect x="235" y="98" width="120" height="44" rx="10" fill="#ccfbf1" stroke="#14b8a6" stroke-width="2.5"/>
<use href="#pkg" x="246" y="106" width="28" height="28"/><text x="282" y="125" font-size="13" fill="#0f766e" font-weight="600">framework</text>
<rect x="235" y="258" width="120" height="44" rx="10" fill="#ccfbf1" stroke="#14b8a6" stroke-width="2.5"/>
<use href="#pkg" x="246" y="266" width="28" height="28"/><text x="282" y="285" font-size="13" fill="#0f766e" font-weight="600">router</text>
<rect x="235" y="418" width="120" height="44" rx="10" fill="#ccfbf1" stroke="#14b8a6" stroke-width="2.5"/>
<use href="#pkg" x="246" y="426" width="28" height="28"/><text x="282" y="445" font-size="13" fill="#0f766e" font-weight="600">validator</text>
</g>

<!-- L2 : deps of deps -->
<g>
<rect x="445" y="62"  width="90" height="36" rx="9" fill="#ede9fe" stroke="#8b5cf6" stroke-width="2"/><use href="#pkg" x="453" y="69" width="22" height="22"/><text x="482" y="85" font-size="11" fill="#6d28d9">lib</text>
<rect x="445" y="142" width="90" height="36" rx="9" fill="#ede9fe" stroke="#8b5cf6" stroke-width="2"/><use href="#pkg" x="453" y="149" width="22" height="22"/><text x="482" y="165" font-size="11" fill="#6d28d9">lib</text>
<rect x="445" y="222" width="90" height="36" rx="9" fill="#ede9fe" stroke="#8b5cf6" stroke-width="2"/><use href="#pkg" x="453" y="229" width="22" height="22"/><text x="482" y="245" font-size="11" fill="#6d28d9">lib</text>
<rect x="445" y="302" width="90" height="36" rx="9" fill="#ede9fe" stroke="#8b5cf6" stroke-width="2"/><use href="#pkg" x="453" y="309" width="22" height="22"/><text x="482" y="325" font-size="11" fill="#6d28d9">lib</text>
<rect x="445" y="382" width="90" height="36" rx="9" fill="#ede9fe" stroke="#8b5cf6" stroke-width="2"/><use href="#pkg" x="453" y="389" width="22" height="22"/><text x="482" y="405" font-size="11" fill="#6d28d9">lib</text>
<rect x="445" y="462" width="90" height="36" rx="9" fill="#ede9fe" stroke="#8b5cf6" stroke-width="2"/><use href="#pkg" x="453" y="469" width="22" height="22"/><text x="482" y="485" font-size="11" fill="#6d28d9">lib</text>
</g>

<!-- L3 : deeper deps -->
<g>
<rect x="632" y="46"  width="96" height="28" rx="8" fill="#ffedd5" stroke="#f59e0b" stroke-width="1.8"/><use href="#pkg" x="639" y="51" width="18" height="18"/><text x="663" y="64" font-size="10" fill="#b45309">pkg</text>
<rect x="632" y="86"  width="96" height="28" rx="8" fill="#ffedd5" stroke="#f59e0b" stroke-width="1.8"/><use href="#pkg" x="639" y="91" width="18" height="18"/><text x="663" y="104" font-size="10" fill="#b45309">pkg</text>
<rect x="632" y="126" width="96" height="28" rx="8" fill="#ffedd5" stroke="#f59e0b" stroke-width="1.8"/><use href="#pkg" x="639" y="131" width="18" height="18"/><text x="663" y="144" font-size="10" fill="#b45309">pkg</text>
<rect x="632" y="166" width="96" height="28" rx="8" fill="#ffedd5" stroke="#f59e0b" stroke-width="1.8"/><use href="#pkg" x="639" y="171" width="18" height="18"/><text x="663" y="184" font-size="10" fill="#b45309">pkg</text>
<rect x="632" y="206" width="96" height="28" rx="8" fill="#ffedd5" stroke="#f59e0b" stroke-width="1.8"/><use href="#pkg" x="639" y="211" width="18" height="18"/><text x="663" y="224" font-size="10" fill="#b45309">pkg</text>
<rect x="632" y="246" width="96" height="28" rx="8" fill="#ffedd5" stroke="#f59e0b" stroke-width="1.8"/><use href="#pkg" x="639" y="251" width="18" height="18"/><text x="663" y="264" font-size="10" fill="#b45309">pkg</text>
<rect x="632" y="286" width="96" height="28" rx="8" fill="#ffedd5" stroke="#f59e0b" stroke-width="1.8"/><use href="#pkg" x="639" y="291" width="18" height="18"/><text x="663" y="304" font-size="10" fill="#b45309">pkg</text>
<rect x="632" y="326" width="96" height="28" rx="8" fill="#ffedd5" stroke="#f59e0b" stroke-width="1.8"/><use href="#pkg" x="639" y="331" width="18" height="18"/><text x="663" y="344" font-size="10" fill="#b45309">pkg</text>
<rect x="632" y="366" width="96" height="28" rx="8" fill="#ffedd5" stroke="#f59e0b" stroke-width="1.8"/><use href="#pkg" x="639" y="371" width="18" height="18"/><text x="663" y="384" font-size="10" fill="#b45309">pkg</text>
<rect x="632" y="406" width="96" height="28" rx="8" fill="#ffedd5" stroke="#f59e0b" stroke-width="1.8"/><use href="#pkg" x="639" y="411" width="18" height="18"/><text x="663" y="424" font-size="10" fill="#b45309">pkg</text>
<rect x="632" y="446" width="96" height="28" rx="8" fill="#ffedd5" stroke="#f59e0b" stroke-width="1.8"/><use href="#pkg" x="639" y="451" width="18" height="18"/><text x="663" y="464" font-size="10" fill="#b45309">pkg</text>
<rect x="632" y="486" width="96" height="28" rx="8" fill="#ffedd5" stroke="#f59e0b" stroke-width="1.8"/><use href="#pkg" x="639" y="491" width="18" height="18"/><text x="663" y="504" font-size="10" fill="#b45309">pkg</text>
</g>

<text x="390" y="530" text-anchor="middle" font-size="12.5" fill="#64748b">右へ行くほど「自分で選んでいない他人のコード」が指数的に増えていく</text>
</svg>
