<svg xmlns="http://www.w3.org/2000/svg" width="760" height="330" viewBox="0 0 760 330" font-family="'Hiragino Sans','Noto Sans JP','Yu Gothic','Segoe UI',sans-serif">
<defs><marker id="aR" viewBox="0 0 10 10" refX="8" refY="5" markerWidth="7" markerHeight="7" orient="auto-start-reverse"><path d="M0 1 L9 5 L0 9 z" fill="#475569"/></marker><marker id="aRsub" viewBox="0 0 10 10" refX="8" refY="5" markerWidth="7" markerHeight="7" orient="auto-start-reverse"><path d="M0 1 L9 5 L0 9 z" fill="#94a3b8"/></marker></defs>
<rect x="0" y="0" width="760" height="330" fill="#ffffff"/>
<text x="380" y="40" text-anchor="middle" font-size="21" fill="#0f172a" font-weight="700">たった11行の部品が消えると…</text>
<svg x="90" y="120" width="80" height="80" viewBox="0 0 36 36"><path fill="#662113" d="M4 11v12.375c0 2.042 1.093 2.484 1.093 2.484l11.574 9.099C18.489 36.39 18 33.375 18 33.375V22L4 11z"/><path fill="#C1694F" d="M32 11v12.375c0 2.042-1.063 2.484-1.063 2.484s-9.767 7.667-11.588 9.099C17.526 36.39 18 33.375 18 33.375V22l14-11z"/><path fill="#D99E82" d="M19.289.5c-.753-.61-1.988-.61-2.742 0L4.565 10.029c-.754.61-.754 1.607 0 2.216l12.023 9.646c.754.609 1.989.609 2.743 0l12.104-9.73c.754-.609.754-1.606 0-2.216L19.289.5z"/><path fill="#D99E82" d="M18 35.75c-.552 0-1-.482-1-1.078V21.745c0-.596.448-1.078 1-1.078.553 0 1 .482 1 1.078v12.927c0 .596-.447 1.078-1 1.078z"/><path fill="#99AAB5" d="M28 18.836c0 1.104.104 1.646-1 2.442l-2.469 1.878c-1.104.797-1.531.113-1.531-.992v-2.961c0-.193-.026-.4-.278-.608C20.144 16.47 10.134 8.519 8.31 7.051l4.625-3.678c1.266.926 10.753 8.252 14.722 11.377.197.156.343.328.343.516v3.57z"/><path fill="#CCD6DD" d="M27.656 14.75C23.688 11.625 14.201 4.299 12.935 3.373l-1.721 1.368-2.904 2.31c1.825 1.468 11.834 9.419 14.412 11.544.151.125.217.25.248.371L27.903 15c-.06-.087-.146-.171-.247-.25z"/><path fill="#CCD6DD" d="M28 18.836v-3.57c0-.188-.146-.359-.344-.516-3.968-3.125-13.455-10.451-14.721-11.377l-2.073 1.649c3.393 2.669 12.481 9.681 14.86 11.573.256.204.278.415.278.608v4.836l1-.761c1.104-.797 1-1.338 1-2.442z"/><path fill="#E1E8ED" d="M27.656 14.75C23.688 11.625 14.201 4.299 12.935 3.373l-2.073 1.649c3.393 2.669 12.481 9.681 14.86 11.573.037.029.06.059.087.088L27.903 15c-.06-.087-.146-.171-.247-.25z"/></svg>
<svg x="120" y="150" width="52" height="52" viewBox="0 0 36 36"><path fill="#DD2E44" d="M21.533 18.002L33.768 5.768c.976-.976.976-2.559 0-3.535-.977-.977-2.559-.977-3.535 0L17.998 14.467 5.764 2.233c-.976-.977-2.56-.977-3.535 0-.977.976-.977 2.559 0 3.535l12.234 12.234L2.201 30.265c-.977.977-.977 2.559 0 3.535.488.488 1.128.732 1.768.732s1.28-.244 1.768-.732l12.262-12.263 12.234 12.234c.488.488 1.128.732 1.768.732.64 0 1.279-.244 1.768-.732.976-.977.976-2.559 0-3.535L21.533 18.002z"/></svg>
<text x="130" y="232" text-anchor="middle" font-size="17" fill="#475569" font-weight="600">left-pad</text>
<text x="130" y="256" text-anchor="middle" font-size="13" fill="#b91c1c" font-weight="400">11行・削除</text>
<svg x="560" y="50" width="64" height="64" viewBox="0 0 36 36"><path fill="#BB1A34" d="M22 0l-4 8.028-5-5.018v7.024L3 8.028l8 8.028-11 6.02h12L6 34.118l12-8.028 11 10.035-3-14.049h10l-8-6.021 8-9.031-12 3.01L22 0z"/><path fill="#FCAB40" d="M22.914 12.924l1.86-.467L30 11.146l-3.381 3.816-1.319 1.49 1.59 1.195 2.925 2.202h-5.918l.473 2.218 1.551 7.26-5.845-5.332-1.056-.964-1.188.795-5.24 3.506 2.406-4.828 1.322-2.655H9.564l3.759-2.059 2.145-1.172-1.727-1.735-3.044-3.053 3.221.646 2.186.439V8.686l1.45 1.455 1.794 1.799 1.133-2.276 1.273-2.556"/><path fill="#F5F8FA" d="M21.512 14.301l.767-.193 2.158-.541-1.396 1.576-.545.615.656.493 1.208.909h-2.443l.195.916.641 2.997-2.413-2.201-.437-.398-.49.328-2.163 1.448.993-1.994.546-1.096H16l1.553-.85.885-.484-.713-.716-1.257-1.261 1.329.267.903.181v-1.745l.599.6.74.743.468-.939.525-1.056"/></svg>
<text x="650" y="84" text-anchor="start" font-size="17" fill="#475569" font-weight="600">React</text>
<line x1="210" y1="165" x2="545" y2="90" stroke="#475569" stroke-width="3.5" stroke-linecap="round" stroke-linejoin="round" stroke-dasharray="7 6" marker-end="url(#aR)"/>
<svg x="560" y="125" width="64" height="64" viewBox="0 0 36 36"><path fill="#BB1A34" d="M22 0l-4 8.028-5-5.018v7.024L3 8.028l8 8.028-11 6.02h12L6 34.118l12-8.028 11 10.035-3-14.049h10l-8-6.021 8-9.031-12 3.01L22 0z"/><path fill="#FCAB40" d="M22.914 12.924l1.86-.467L30 11.146l-3.381 3.816-1.319 1.49 1.59 1.195 2.925 2.202h-5.918l.473 2.218 1.551 7.26-5.845-5.332-1.056-.964-1.188.795-5.24 3.506 2.406-4.828 1.322-2.655H9.564l3.759-2.059 2.145-1.172-1.727-1.735-3.044-3.053 3.221.646 2.186.439V8.686l1.45 1.455 1.794 1.799 1.133-2.276 1.273-2.556"/><path fill="#F5F8FA" d="M21.512 14.301l.767-.193 2.158-.541-1.396 1.576-.545.615.656.493 1.208.909h-2.443l.195.916.641 2.997-2.413-2.201-.437-.398-.49.328-2.163 1.448.993-1.994.546-1.096H16l1.553-.85.885-.484-.713-.716-1.257-1.261 1.329.267.903.181v-1.745l.599.6.74.743.468-.939.525-1.056"/></svg>
<text x="650" y="159" text-anchor="start" font-size="17" fill="#475569" font-weight="600">webpack</text>
<line x1="210" y1="165" x2="545" y2="165" stroke="#475569" stroke-width="3.5" stroke-linecap="round" stroke-linejoin="round" stroke-dasharray="7 6" marker-end="url(#aR)"/>
<svg x="560" y="200" width="64" height="64" viewBox="0 0 36 36"><path fill="#BB1A34" d="M22 0l-4 8.028-5-5.018v7.024L3 8.028l8 8.028-11 6.02h12L6 34.118l12-8.028 11 10.035-3-14.049h10l-8-6.021 8-9.031-12 3.01L22 0z"/><path fill="#FCAB40" d="M22.914 12.924l1.86-.467L30 11.146l-3.381 3.816-1.319 1.49 1.59 1.195 2.925 2.202h-5.918l.473 2.218 1.551 7.26-5.845-5.332-1.056-.964-1.188.795-5.24 3.506 2.406-4.828 1.322-2.655H9.564l3.759-2.059 2.145-1.172-1.727-1.735-3.044-3.053 3.221.646 2.186.439V8.686l1.45 1.455 1.794 1.799 1.133-2.276 1.273-2.556"/><path fill="#F5F8FA" d="M21.512 14.301l.767-.193 2.158-.541-1.396 1.576-.545.615.656.493 1.208.909h-2.443l.195.916.641 2.997-2.413-2.201-.437-.398-.49.328-2.163 1.448.993-1.994.546-1.096H16l1.553-.85.885-.484-.713-.716-1.257-1.261 1.329.267.903.181v-1.745l.599.6.74.743.468-.939.525-1.056"/></svg>
<text x="650" y="234" text-anchor="start" font-size="17" fill="#475569" font-weight="600">Babel</text>
<line x1="210" y1="165" x2="545" y2="240" stroke="#475569" stroke-width="3.5" stroke-linecap="round" stroke-linejoin="round" stroke-dasharray="7 6" marker-end="url(#aR)"/>
<text x="380" y="210" text-anchor="middle" font-size="15" fill="#475569" font-weight="400">依存が切れて連鎖崩壊</text>
</svg>
