<svg xmlns="http://www.w3.org/2000/svg" width="880" height="260" viewBox="0 0 880 260" font-family="'Hiragino Sans','Noto Sans JP','Yu Gothic','Segoe UI',sans-serif">
<defs><marker id="aR" viewBox="0 0 10 10" refX="8" refY="5" markerWidth="7" markerHeight="7" orient="auto-start-reverse"><path d="M0 1 L9 5 L0 9 z" fill="#475569"/></marker><marker id="aRsub" viewBox="0 0 10 10" refX="8" refY="5" markerWidth="7" markerHeight="7" orient="auto-start-reverse"><path d="M0 1 L9 5 L0 9 z" fill="#94a3b8"/></marker></defs>
<rect x="0" y="0" width="880" height="260" fill="#ffffff"/>
<svg x="70" y="70" width="80" height="80" viewBox="0 0 36 36"><path fill="#CCD6DD" d="M36 27c0 2.209-1.791 4-4 4H4c-2.209 0-4-1.791-4-4V9c0-2.209 1.791-4 4-4h28c2.209 0 4 1.791 4 4v18z"/><path fill="#99AAB5" d="M11.95 17.636L.637 28.949c-.027.028-.037.063-.06.091.34.57.814 1.043 1.384 1.384.029-.023.063-.033.09-.06L13.365 19.05c.39-.391.39-1.023 0-1.414-.392-.391-1.024-.391-1.415 0M35.423 29.04c-.021-.028-.033-.063-.06-.09L24.051 17.636c-.392-.391-1.024-.391-1.415 0s-.391 1.023 0 1.414l11.313 11.314c.026.026.062.037.09.06.571-.34 1.044-.814 1.384-1.384"/><path fill="#99AAB5" d="M32 5H4C1.791 5 0 6.791 0 9v1.03l14.528 14.496c1.894 1.893 4.988 1.893 6.884 0L36 10.009V9c0-2.209-1.791-4-4-4z"/><path fill="#E1E8ED" d="M32 5H4C2.412 5 1.051 5.934.405 7.275l14.766 14.767c1.562 1.562 4.096 1.562 5.657 0L35.595 7.275C34.949 5.934 33.589 5 32 5z"/><path fill="#66757F" d="M15 9.27c0-.73.365-1.27 1-1.27h3.62c.839 0 1.174.49 1.174 1 0 .496-.349 1-1.035 1h-2.708v2h2.533c.716 0 1.065.489 1.065 1 0 .496-.366 1-1.065 1h-2.533v2h2.84c.699 0 1.037.489 1.037 1 0 .496-.353 1-1.037 1h-3.766C15.482 18 15 17.469 15 16.812V9.27z"/></svg>
<text x="110" y="182" text-anchor="middle" font-size="17" fill="#475569" font-weight="600">フィッシング</text>
<svg x="290" y="70" width="80" height="80" viewBox="0 0 36 36"><path fill="#269" d="M24 26.799v-2.566c2-1.348 4.08-3.779 4.703-6.896.186.103.206.17.413.17.991 0 1.709-1.287 1.709-2.873 0-1.562-.823-2.827-1.794-2.865.187-.674.293-1.577.293-2.735C29.324 5.168 26 .527 18.541.527c-6.629 0-10.777 4.641-10.777 8.507 0 1.123.069 2.043.188 2.755-.911.137-1.629 1.352-1.629 2.845 0 1.587.804 2.873 1.796 2.873.206 0 .025-.067.209-.17C8.952 20.453 11 22.885 13 24.232v2.414c-5 .645-12 3.437-12 6.23v1.061C1 35 2.076 35 3.137 35h29.725C33.924 35 35 35 35 33.938v-1.061c0-2.615-6-5.225-11-6.078z"/></svg>
<text x="330" y="182" text-anchor="middle" font-size="17" fill="#475569" font-weight="600">アカウント乗っ取り</text>
<svg x="510" y="70" width="80" height="80" viewBox="0 0 36 36"><path fill="#662113" d="M4 11v12.375c0 2.042 1.093 2.484 1.093 2.484l11.574 9.099C18.489 36.39 18 33.375 18 33.375V22L4 11z"/><path fill="#C1694F" d="M32 11v12.375c0 2.042-1.063 2.484-1.063 2.484s-9.767 7.667-11.588 9.099C17.526 36.39 18 33.375 18 33.375V22l14-11z"/><path fill="#D99E82" d="M19.289.5c-.753-.61-1.988-.61-2.742 0L4.565 10.029c-.754.61-.754 1.607 0 2.216l12.023 9.646c.754.609 1.989.609 2.743 0l12.104-9.73c.754-.609.754-1.606 0-2.216L19.289.5z"/><path fill="#D99E82" d="M18 35.75c-.552 0-1-.482-1-1.078V21.745c0-.596.448-1.078 1-1.078.553 0 1 .482 1 1.078v12.927c0 .596-.447 1.078-1 1.078z"/><path fill="#99AAB5" d="M28 18.836c0 1.104.104 1.646-1 2.442l-2.469 1.878c-1.104.797-1.531.113-1.531-.992v-2.961c0-.193-.026-.4-.278-.608C20.144 16.47 10.134 8.519 8.31 7.051l4.625-3.678c1.266.926 10.753 8.252 14.722 11.377.197.156.343.328.343.516v3.57z"/><path fill="#CCD6DD" d="M27.656 14.75C23.688 11.625 14.201 4.299 12.935 3.373l-1.721 1.368-2.904 2.31c1.825 1.468 11.834 9.419 14.412 11.544.151.125.217.25.248.371L27.903 15c-.06-.087-.146-.171-.247-.25z"/><path fill="#CCD6DD" d="M28 18.836v-3.57c0-.188-.146-.359-.344-.516-3.968-3.125-13.455-10.451-14.721-11.377l-2.073 1.649c3.393 2.669 12.481 9.681 14.86 11.573.256.204.278.415.278.608v4.836l1-.761c1.104-.797 1-1.338 1-2.442z"/><path fill="#E1E8ED" d="M27.656 14.75C23.688 11.625 14.201 4.299 12.935 3.373l-2.073 1.649c3.393 2.669 12.481 9.681 14.86 11.573.037.029.06.059.087.088L27.903 15c-.06-.087-.146-.171-.247-.25z"/></svg>
<text x="550" y="182" text-anchor="middle" font-size="17" fill="#475569" font-weight="600">悪意ある公開</text>
<svg x="730" y="70" width="80" height="80" viewBox="0 0 36 36"><path fill="#FDD888" d="M31.898 23.938C31.3 17.32 28 14 28 14l-6-8h-8l-6 8s-1.419 1.433-2.567 4.275C3.444 18.935 2 20.789 2 23c0 1.448.625 2.742 1.609 3.655C3.233 27.357 3 28.147 3 29c0 1.958 1.136 3.636 2.775 4.456C7.058 35.378 8.772 36 10 36h16c1.379 0 3.373-.779 4.678-3.31C32.609 31.999 34 30.17 34 28c0-1.678-.834-3.154-2.102-4.062zM18 6c.55 0 1.058-.158 1.5-.416.443.258.951.416 1.5.416 1.657 0 4-2.344 4-4 0 0 0-2-2-2-.788 0-1 1-2 1s-1-1-3-1-2 1-3 1-1.211-1-2-1c-2 0-2 2-2 2 0 1.656 2.344 4 4 4 .549 0 1.057-.158 1.5-.416.443.258.951.416 1.5.416z"/><path fill="#BF6952" d="M24 6c0 .552-.447 1-1 1H13c-.552 0-1-.448-1-1s.448-1 1-1h10c.553 0 1 .448 1 1z"/><path fill="#67757F" d="M23.901 24.542c0-4.477-8.581-4.185-8.581-6.886 0-1.308 1.301-1.947 2.811-1.947 2.538 0 2.99 1.569 4.139 1.569.813 0 1.205-.493 1.205-1.046 0-1.284-2.024-2.256-3.965-2.592V12.4c0-.773-.65-1.4-1.454-1.4-.805 0-1.456.627-1.456 1.4v1.283c-2.116.463-3.937 1.875-3.937 4.176 0 4.299 8.579 4.125 8.579 7.145 0 1.047-1.178 2.093-3.111 2.093-2.901 0-3.867-1.889-5.045-1.889-.574 0-1.087.464-1.087 1.164 0 1.113 1.938 2.451 4.603 2.824l-.001.01v1.398c0 .772.652 1.4 1.456 1.4.804 0 1.455-.628 1.455-1.4v-1.398c0-.017-.008-.03-.009-.045 2.398-.43 4.398-1.932 4.398-4.619z"/></svg>
<text x="770" y="182" text-anchor="middle" font-size="17" fill="#475569" font-weight="600">暗号資産すり替え</text>
<line x1="154" y1="110" x2="286" y2="110" stroke="#475569" stroke-width="3.5" stroke-linecap="round" stroke-linejoin="round" marker-end="url(#aR)"/>
<line x1="374" y1="110" x2="506" y2="110" stroke="#475569" stroke-width="3.5" stroke-linecap="round" stroke-linejoin="round" marker-end="url(#aR)"/>
<line x1="594" y1="110" x2="726" y2="110" stroke="#475569" stroke-width="3.5" stroke-linecap="round" stroke-linejoin="round" marker-end="url(#aR)"/>
<text x="440" y="232" text-anchor="middle" font-size="13" fill="#475569" font-weight="400">週20億DL規模のパッケージ経由で拡散</text>
</svg>
