<svg xmlns="http://www.w3.org/2000/svg" width="760" height="320" viewBox="0 0 760 320" font-family="'Hiragino Sans','Noto Sans JP','Yu Gothic','Segoe UI',sans-serif">
<defs><marker id="aR" viewBox="0 0 10 10" refX="8" refY="5" markerWidth="7" markerHeight="7" orient="auto-start-reverse"><path d="M0 1 L9 5 L0 9 z" fill="#475569"/></marker><marker id="aRsub" viewBox="0 0 10 10" refX="8" refY="5" markerWidth="7" markerHeight="7" orient="auto-start-reverse"><path d="M0 1 L9 5 L0 9 z" fill="#94a3b8"/></marker></defs>
<rect x="0" y="0" width="760" height="320" fill="#ffffff"/>
<svg x="70" y="130" width="80" height="80" viewBox="0 0 36 36"><path fill="#66757F" d="M33 36v-1c0-3.313-2.687-6-6-6H9c-3.313 0-6 2.687-6 6v1h30zm-6.25-15.565c1.188.208 2.619.129 2.416.917-.479 1.854-2.604 1.167-2.979 1.188-.375.02.563-2.105.563-2.105z"/><path fill="#292F33" d="M27.062 20.645c1.875.25 2.541.416 1.166.958-.772.305-2.243 4.803-3.331 4.118-1.087-.685 2.165-5.076 2.165-5.076z"/><path fill="#66757F" d="M9.255 20.435c-1.188.208-2.619.129-2.416.917.479 1.854 2.604 1.167 2.979 1.188.375.02-.563-2.105-.563-2.105z"/><path fill="#292F33" d="M8.943 20.645c-1.875.25-2.541.416-1.166.958.772.305 2.243 4.803 3.331 4.118 1.088-.685-2.165-5.076-2.165-5.076z"/><path fill="#FFAC33" d="M21.771 4.017c-1.958-.634-6.566-.461-7.718 1.037-2.995.058-6.508 2.764-6.969 6.335-.456 3.534.56 5.175.922 7.833.409 3.011 2.102 3.974 3.456 4.377 1.947 2.572 4.017 2.462 7.492 2.462 6.787 0 10.019-4.541 10.305-12.253.172-4.665-2.565-8.198-7.488-9.791z"/><path fill="#FFDC5D" d="M25.652 14.137c-.657-.909-1.497-1.641-3.34-1.901.691.317 1.353 1.411 1.44 2.016.086.605.173 1.094-.374.49-2.192-2.423-4.579-1.469-6.944-2.949-1.652-1.034-2.155-2.177-2.155-2.177s-.202 1.526-2.707 3.081c-.726.451-1.593 1.455-2.073 2.937-.346 1.066-.238 2.016-.238 3.64 0 4.74 3.906 8.726 8.726 8.726s8.726-4.02 8.726-8.726c-.004-2.948-.312-4.1-1.061-5.137z"/><path fill="#C1694F" d="M18.934 21.565h-1.922c-.265 0-.481-.215-.481-.481v-.174c0-.265.215-.482.481-.482h1.922c.265 0 .482.216.482.482v.174c0 .266-.216.481-.482.481"/><path fill-rule="evenodd" clip-rule="evenodd" fill="#292F33" d="M7.657 14.788c.148.147.888.591 1.036 1.034.148.443.445 2.954 1.333 3.693.916.762 4.37.478 5.032.149 1.48-.738 1.662-2.798 1.924-3.842.148-.591 1.036-.591 1.036-.591s.888 0 1.036.591c.262 1.044.444 3.104 1.924 3.841.662.33 4.116.614 5.034-.147.887-.739 1.183-3.25 1.331-3.694.146-.443.888-.886 1.035-1.034.148-.148.148-.739 0-.887-.296-.295-3.788-.559-7.548-.148-.75.082-1.035.295-2.812.295-1.776 0-2.062-.214-2.812-.295-3.759-.411-7.252-.148-7.548.148-.149.148-.149.74-.001.887z"/><path fill="#66757F" d="M7.858 8.395S9.217-.506 13.79.023c3.512.406 4.89.825 7.833.097 1.947-.482 4.065 1.136 5.342 4.379.816 2.068 1.224 4.041 1.224 4.041s3.938-.385 4.165 1.732c.228 2.117-4.354 4.716-15.889 4.716C10 14.987 3.33 12.63 3.013 10.657c-.317-1.973 4.845-2.262 4.845-2.262z"/><path fill="#292F33" d="M8.125 7.15s-.27 1.104-.406 1.871c-.136.768.226 1.296 2.705 1.824 3.287.7 10.679.692 15.058-.383 1.759-.432 2.886-.72 2.751-1.583-.167-1.068-.196-1.066-.541-2.208 0 0-1.477.502-3.427.96-2.66.624-9.964.911-13.481.144-1.874-.41-2.659-.625-2.659-.625zm-.136 13.953c-.354.145 2.921 1.378 7.48 1.458 4.771.084 6.234.39 5.146 1.459-1.146 1.125-.852 2.894-.771 3.418.081.524 2.047 1.916 2.208 2.56.161.645-1.229 5.961-1.229 5.961l-8.729-.252c-2.565-8.844-2.883-8.501-4.105-13.604-.241-1.008 0-1 0-1z"/><path fill="#66757F" d="M6.989 21.144c-.354.146 2.921 1.378 7.48 1.458 4.771.084 6.234.39 5.146 1.459-1.146 1.125-.664 2.894-.583 3.418.081.524 1.859 1.916 2.021 2.561.16.644-1.231 5.96-1.231 5.96l-8.729-.252c-2.565-8.844-2.883-8.501-4.105-13.604-.24-1.008.001-1 .001-1z"/><path fill="#292F33" d="M28.052 21.103c.354.145-2.921 1.378-7.479 1.458-4.771.084-6.234.39-5.146 1.459 1.146 1.125 2.976 2.892 2.896 3.416-.081.524-4.172 1.918-4.333 2.562-.161.645 1.229 5.961 1.229 5.961l8.729-.252c2.565-8.844 2.883-8.501 4.104-13.604.241-1.008 0-1 0-1z"/><path fill="#66757F" d="M28.958 21.103c.354.145-2.921 1.378-7.479 1.458-4.771.084-6.234.39-5.146 1.459 1.146 1.125 2.977 2.892 2.896 3.416-.081.524-4.172 1.918-4.333 2.562-.161.645 1.229 5.961 1.229 5.961l8.657.01c2.565-8.844 2.955-8.763 4.177-13.866.24-1.008-.001-1-.001-1z"/></svg>
<text x="110" y="232" text-anchor="middle" font-size="17" fill="#475569" font-weight="600">攻撃者</text>
<svg x="340" y="130" width="80" height="80" viewBox="0 0 36 36"><path fill="#CCD6DD" d="M33 3c-7-3-15-3-15-3S10 0 3 3C0 18 3 31 18 36c15-5 18-18 15-33z"/><path fill="#55ACEE" d="M18 33.884C6.412 29.729 1.961 19.831 4.76 4.444 11.063 2.029 17.928 2 18 2c.071 0 6.958.04 13.24 2.444 2.799 15.387-1.652 25.285-13.24 29.44z"/><path fill="#269" d="M31.24 4.444C24.958 2.04 18.071 2 18 2v31.884c11.588-4.155 16.039-14.053 13.24-29.44z"/></svg>
<text x="380" y="232" text-anchor="middle" font-size="17" fill="#475569" font-weight="600">認証ミドルウェア</text>
<svg x="620" y="130" width="80" height="80" viewBox="0 0 36 36"><path fill="#AAB8C2" d="M18 0C12.477 0 8 4.477 8 10v10h4V10a6 6 0 0 1 12 0v10h4V10c0-5.523-4.477-10-10-10Z"/><path fill="#FFAC33" d="M32 32a4 4 0 0 1-4 4H8a4 4 0 0 1-4-4V18a4 4 0 0 1 4-4h20a4 4 0 0 1 4 4v14Z"/></svg>
<text x="660" y="232" text-anchor="middle" font-size="17" fill="#475569" font-weight="600">保護ページ</text>
<line x1="160" y1="175" x2="300" y2="175" stroke="#94a3b8" stroke-width="2.0" stroke-linecap="round" stroke-linejoin="round" marker-end="url(#aRsub)"/>
<text x="230.0" y="165.0" text-anchor="middle" font-size="17" fill="#475569" font-weight="600">通常は停止</text>
<path d="M150 120 Q 370.0 50.0 590 120" fill="none" stroke="#475569" stroke-width="3.5" stroke-linecap="round" stroke-linejoin="round" marker-end="url(#aR)"/>
<text x="370.0" y="40.0" text-anchor="middle" font-size="17" fill="#0f172a" font-weight="600">特殊ヘッダで迂回</text>
</svg>
