<svg xmlns="http://www.w3.org/2000/svg" width="960" height="340" viewBox="0 0 960 340" font-family="'Hiragino Sans','Noto Sans JP','Yu Gothic','Segoe UI',sans-serif">
<rect x="0" y="0" width="960" height="340" fill="#ffffff"/>
<rect x="20" y="20" width="920" height="300" rx="16" fill="#f1f5f9" stroke="#94a3b8" stroke-width="3.5"/>
<rect x="60" y="60" width="360" height="44" rx="16" fill="#f1f5f9" stroke="#94a3b8" stroke-width="3.5"/>
<text x="78" y="88" text-anchor="start" font-size="17" fill="#475569" font-weight="600">SECTION 00 ・ 環境構築</text>
<text x="64" y="180" text-anchor="start" font-size="26" fill="#0f172a" font-weight="700">リポジトリを入手する</text>
<ellipse cx="800" cy="170" rx="92" ry="92" fill="#f1f5f9" stroke="#94a3b8" stroke-width="3.5"/>
<g stroke="#475569" stroke-width="6" stroke-linecap="round" stroke-linejoin="round" fill="none">
<path d="M760 132 h44 l14 16 h36 a8 8 0 0 1 8 8 v10 h-110 v-30 a4 4 0 0 1 4 -4 z" fill="#cbd5e1"/>
<path d="M756 166 h88 a8 8 0 0 1 8 8 v30 a8 8 0 0 1 -8 8 h-88 a8 8 0 0 1 -8 -8 v-30 a8 8 0 0 1 8 -8 z" fill="#e2e8f0"/>
<path d="M800 176 v22"/>
<path d="M788 190 l12 12 l12 -12"/>
</g>
</svg>
