<svg xmlns="http://www.w3.org/2000/svg" width="1040" height="420" viewBox="0 0 1040 420" font-family="'Hiragino Sans','Noto Sans JP','Yu Gothic','Segoe UI',sans-serif">
<defs><marker id="aR" viewBox="0 0 10 10" refX="8" refY="5" markerWidth="7" markerHeight="7" orient="auto-start-reverse"><path d="M0 1 L9 5 L0 9 z" fill="#475569"/></marker><marker id="aRsub" viewBox="0 0 10 10" refX="8" refY="5" markerWidth="7" markerHeight="7" orient="auto-start-reverse"><path d="M0 1 L9 5 L0 9 z" fill="#94a3b8"/></marker></defs>
<rect x="0" y="0" width="1040" height="420" fill="#ffffff"/>
<svg x="40" y="150" width="80" height="80" viewBox="0 0 36 36"><path fill="#FFCC4D" d="M2.653 35C.811 35-.001 33.662.847 32.027L16.456 1.972c.849-1.635 2.238-1.635 3.087 0l15.609 30.056c.85 1.634.037 2.972-1.805 2.972H2.653z"/><path fill="#231F20" d="M15.583 28.953c0-1.333 1.085-2.418 2.419-2.418 1.333 0 2.418 1.085 2.418 2.418 0 1.334-1.086 2.419-2.418 2.419-1.334 0-2.419-1.085-2.419-2.419zm.186-18.293c0-1.302.961-2.108 2.232-2.108 1.241 0 2.233.837 2.233 2.108v11.938c0 1.271-.992 2.108-2.233 2.108-1.271 0-2.232-.807-2.232-2.108V10.66z"/></svg>
<text x="80" y="262" text-anchor="middle" font-size="21" fill="#0f172a" font-weight="700">ボット</text>
<rect x="230" y="70" width="70" height="230" rx="16" fill="#ffedd5" stroke="#f97316" stroke-width="3.5"/>
<svg x="243.0" y="84" width="44" height="44" viewBox="0 0 36 36"><path fill="#FFCC4D" d="M36 15c0 2.209-1.791 4-4 4H4c-2.209 0-4-1.791-4-4V7c0-2.209 1.791-4 4-4h28c2.209 0 4 1.791 4 4v8z"/><path d="M6 3H4C1.791 3 0 4.791 0 7v2l6-6zm6 0L0 15c0 1.36.682 2.558 1.72 3.28L17 3h-5zM7 19h5L28 3h-5zm16 0L35.892 6.108c-.281-1.23-1.126-2.24-2.252-2.748L18 19h5zm13-4v-3l-7 7h3c2.209 0 4-1.791 4-4z" fill="#292F33"/><path fill="#99AAB5" d="M4 19h5v14H4zm23 0h5v14h-5z"/></svg>
<text x="265.0" y="180" text-anchor="middle" font-size="13" fill="#c2410c" font-weight="400">サーバー側</text>
<text x="265.0" y="202" text-anchor="middle" font-size="13" fill="#c2410c" font-weight="400">バリデーション</text>
<rect x="380" y="70" width="70" height="230" rx="16" fill="#ffedd5" stroke="#f97316" stroke-width="3.5"/>
<svg x="393.0" y="84" width="44" height="44" viewBox="0 0 36 36"><path fill="#FFCC4D" d="M36 15c0 2.209-1.791 4-4 4H4c-2.209 0-4-1.791-4-4V7c0-2.209 1.791-4 4-4h28c2.209 0 4 1.791 4 4v8z"/><path d="M6 3H4C1.791 3 0 4.791 0 7v2l6-6zm6 0L0 15c0 1.36.682 2.558 1.72 3.28L17 3h-5zM7 19h5L28 3h-5zm16 0L35.892 6.108c-.281-1.23-1.126-2.24-2.252-2.748L18 19h5zm13-4v-3l-7 7h3c2.209 0 4-1.791 4-4z" fill="#292F33"/><path fill="#99AAB5" d="M4 19h5v14H4zm23 0h5v14h-5z"/></svg>
<text x="415.0" y="180" text-anchor="middle" font-size="13" fill="#c2410c" font-weight="400">CORS</text>
<text x="415.0" y="202" text-anchor="middle" font-size="13" fill="#c2410c" font-weight="400">origin 限定</text>
<rect x="530" y="70" width="70" height="230" rx="16" fill="#ffedd5" stroke="#f97316" stroke-width="3.5"/>
<svg x="543.0" y="84" width="44" height="44" viewBox="0 0 36 36"><path fill="#FFCC4D" d="M36 15c0 2.209-1.791 4-4 4H4c-2.209 0-4-1.791-4-4V7c0-2.209 1.791-4 4-4h28c2.209 0 4 1.791 4 4v8z"/><path d="M6 3H4C1.791 3 0 4.791 0 7v2l6-6zm6 0L0 15c0 1.36.682 2.558 1.72 3.28L17 3h-5zM7 19h5L28 3h-5zm16 0L35.892 6.108c-.281-1.23-1.126-2.24-2.252-2.748L18 19h5zm13-4v-3l-7 7h3c2.209 0 4-1.791 4-4z" fill="#292F33"/><path fill="#99AAB5" d="M4 19h5v14H4zm23 0h5v14h-5z"/></svg>
<text x="565.0" y="180" text-anchor="middle" font-size="13" fill="#c2410c" font-weight="400">レート制限</text>
<text x="565.0" y="202" text-anchor="middle" font-size="13" fill="#c2410c" font-weight="400">/ WAF</text>
<rect x="680" y="70" width="70" height="230" rx="16" fill="#ffedd5" stroke="#f97316" stroke-width="3.5"/>
<svg x="693.0" y="84" width="44" height="44" viewBox="0 0 36 36"><path fill="#FFCC4D" d="M36 15c0 2.209-1.791 4-4 4H4c-2.209 0-4-1.791-4-4V7c0-2.209 1.791-4 4-4h28c2.209 0 4 1.791 4 4v8z"/><path d="M6 3H4C1.791 3 0 4.791 0 7v2l6-6zm6 0L0 15c0 1.36.682 2.558 1.72 3.28L17 3h-5zM7 19h5L28 3h-5zm16 0L35.892 6.108c-.281-1.23-1.126-2.24-2.252-2.748L18 19h5zm13-4v-3l-7 7h3c2.209 0 4-1.791 4-4z" fill="#292F33"/><path fill="#99AAB5" d="M4 19h5v14H4zm23 0h5v14h-5z"/></svg>
<text x="715.0" y="180" text-anchor="middle" font-size="13" fill="#c2410c" font-weight="400">Turnstile</text>
<svg x="820" y="150" width="80" height="80" viewBox="0 0 36 36"><path fill="#66757F" d="M34 15h-3.362c-.324-1.369-.864-2.651-1.582-3.814l2.379-2.379c.781-.781.781-2.048 0-2.829l-1.414-1.414c-.781-.781-2.047-.781-2.828 0l-2.379 2.379C23.65 6.225 22.369 5.686 21 5.362V2c0-1.104-.896-2-2-2h-2c-1.104 0-2 .896-2 2v3.362c-1.369.324-2.651.864-3.814 1.582L8.808 4.565c-.781-.781-2.048-.781-2.828 0L4.565 5.979c-.781.781-.781 2.048-.001 2.829l2.379 2.379C6.225 12.35 5.686 13.632 5.362 15H2c-1.104 0-2 .896-2 2v2c0 1.104.896 2 2 2h3.362c.324 1.368.864 2.65 1.582 3.813l-2.379 2.379c-.78.78-.78 2.048.001 2.829l1.414 1.414c.78.78 2.047.78 2.828 0l2.379-2.379c1.163.719 2.445 1.258 3.814 1.582V34c0 1.104.896 2 2 2h2c1.104 0 2-.896 2-2v-3.362c1.368-.324 2.65-.864 3.813-1.582l2.379 2.379c.781.781 2.047.781 2.828 0l1.414-1.414c.781-.781.781-2.048 0-2.829l-2.379-2.379c.719-1.163 1.258-2.445 1.582-3.814H34c1.104 0 2-.896 2-2v-2C36 15.896 35.104 15 34 15zM18 26c-4.418 0-8-3.582-8-8s3.582-8 8-8 8 3.582 8 8-3.582 8-8 8z"/></svg>
<text x="860" y="262" text-anchor="middle" font-size="21" fill="#0f172a" font-weight="700">守られたアプリ</text>
<svg x="842" y="96" width="40" height="40" viewBox="0 0 36 36"><path fill="#77B255" d="M36 32c0 2.209-1.791 4-4 4H4c-2.209 0-4-1.791-4-4V4c0-2.209 1.791-4 4-4h28c2.209 0 4 1.791 4 4v28z"/><path fill="#FFF" d="M29.28 6.362c-1.156-.751-2.704-.422-3.458.736L14.936 23.877l-5.029-4.65c-1.014-.938-2.596-.875-3.533.138-.937 1.014-.875 2.596.139 3.533l7.209 6.666c.48.445 1.09.665 1.696.665.673 0 1.534-.282 2.099-1.139.332-.506 12.5-19.27 12.5-19.27.751-1.159.421-2.707-.737-3.458z"/></svg>
<line x1="130" y1="175" x2="216" y2="175" stroke="#475569" stroke-width="3.5" stroke-linecap="round" stroke-linejoin="round" marker-end="url(#aR)"/>
<text x="173.0" y="165.0" text-anchor="middle" font-size="17" fill="#0f172a" font-weight="600">攻撃</text>
</svg>
