<svg xmlns="http://www.w3.org/2000/svg" width="860" height="360" viewBox="0 0 860 360" font-family="'Hiragino Sans','Noto Sans JP','Yu Gothic','Segoe UI',sans-serif">
<defs><marker id="aR" viewBox="0 0 10 10" refX="8" refY="5" markerWidth="7" markerHeight="7" orient="auto-start-reverse"><path d="M0 1 L9 5 L0 9 z" fill="#475569"/></marker><marker id="aRsub" viewBox="0 0 10 10" refX="8" refY="5" markerWidth="7" markerHeight="7" orient="auto-start-reverse"><path d="M0 1 L9 5 L0 9 z" fill="#94a3b8"/></marker></defs>
<rect x="0" y="0" width="860" height="360" fill="#ffffff"/>
<text x="430" y="44" text-anchor="middle" font-size="21" fill="#0f172a" font-weight="700">渡した 2 つの情報が wrangler.jsonc の 2 項目になる</text>
<rect x="65.0" y="92.0" width="250" height="76" rx="16" fill="#dbeafe" stroke="#3b82f6" stroke-width="3.5"/>
<text x="190" y="137" text-anchor="middle" font-size="17" fill="#1d4ed8" font-weight="600">プロジェクト名（対話）</text>
<rect x="65.0" y="212.0" width="250" height="76" rx="16" fill="#dcfce7" stroke="#22c55e" stroke-width="3.5"/>
<text x="190" y="257" text-anchor="middle" font-size="17" fill="#15803d" font-weight="600">公開フォルダ（引数）</text>
<rect x="548" y="92" width="296" height="212" rx="16" fill="#f1f5f9" stroke="#94a3b8" stroke-width="3.5"/>
<text x="696" y="126" text-anchor="middle" font-size="17" fill="#475569" font-weight="600">wrangler.jsonc</text>
<polygon points="620.48,151.0 814.0,151.0 771.52,209.0 578.0,209.0" fill="#dbeafe" stroke="#3b82f6" stroke-width="3.5"/>
<text x="696" y="187" text-anchor="middle" font-size="17" fill="#1d4ed8" font-weight="600">"name"</text>
<polygon points="608.96,227.0 832.0,227.0 783.04,285.0 560.0,285.0" fill="#dcfce7" stroke="#22c55e" stroke-width="3.5"/>
<text x="696" y="263" text-anchor="middle" font-size="13" fill="#15803d" font-weight="400">"pages_build_output_dir"</text>
<line x1="316" y1="130" x2="566" y2="180" stroke="#475569" stroke-width="3.5" stroke-linecap="round" stroke-linejoin="round" marker-end="url(#aR)"/>
<text x="441.0" y="145.0" text-anchor="middle" font-size="17" fill="#0f172a" font-weight="600">そのまま</text>
<line x1="316" y1="250" x2="556" y2="256" stroke="#475569" stroke-width="3.5" stroke-linecap="round" stroke-linejoin="round" marker-end="url(#aR)"/>
<text x="436.0" y="243.0" text-anchor="middle" font-size="17" fill="#0f172a" font-weight="600">そのまま</text>
</svg>
