<svg xmlns="http://www.w3.org/2000/svg" width="860" height="380" viewBox="0 0 860 380" font-family="'Hiragino Sans','Noto Sans JP','Yu Gothic','Segoe UI',sans-serif">
<defs><marker id="aR" viewBox="0 0 10 10" refX="8" refY="5" markerWidth="7" markerHeight="7" orient="auto-start-reverse"><path d="M0 1 L9 5 L0 9 z" fill="#475569"/></marker><marker id="aRsub" viewBox="0 0 10 10" refX="8" refY="5" markerWidth="7" markerHeight="7" orient="auto-start-reverse"><path d="M0 1 L9 5 L0 9 z" fill="#94a3b8"/></marker></defs>
<rect x="0" y="0" width="860" height="380" fill="#ffffff"/>
<rect x="40" y="70" width="300" height="250" rx="16" fill="#dbeafe" stroke="#3b82f6" stroke-width="3.5"/>
<text x="190" y="100" text-anchor="middle" font-size="21" fill="#1d4ed8" font-weight="700">フロントエンド</text>
<text x="190" y="124" text-anchor="middle" font-size="13" fill="#1d4ed8" font-weight="400">見た目・操作を担当</text>
<svg x="150" y="150" width="80" height="80" viewBox="0 0 36 36"><path fill="#3B88C3" d="M18 0C8.059 0 0 8.059 0 18s8.059 18 18 18 18-8.059 18-18S27.941 0 18 0zM2.05 19h3.983c.092 2.506.522 4.871 1.229 7H4.158c-1.207-2.083-1.95-4.459-2.108-7zM19 8V2.081c2.747.436 5.162 2.655 6.799 5.919H19zm7.651 2c.754 2.083 1.219 4.46 1.317 7H19v-7h7.651zM17 2.081V8h-6.799C11.837 4.736 14.253 2.517 17 2.081zM17 10v7H8.032c.098-2.54.563-4.917 1.317-7H17zM6.034 17H2.05c.158-2.54.901-4.917 2.107-7h3.104c-.705 2.129-1.135 4.495-1.227 7zm1.998 2H17v7H9.349c-.754-2.083-1.219-4.459-1.317-7zM17 28v5.919c-2.747-.437-5.163-2.655-6.799-5.919H17zm2 5.919V28h6.8c-1.637 3.264-4.053 5.482-6.8 5.919zM19 26v-7h8.969c-.099 2.541-.563 4.917-1.317 7H19zm10.967-7h3.982c-.157 2.541-.9 4.917-2.107 7h-3.104c.706-2.129 1.136-4.494 1.229-7zm0-2c-.093-2.505-.523-4.871-1.229-7h3.104c1.207 2.083 1.95 4.46 2.107 7h-3.982zm.512-9h-2.503c-.717-1.604-1.606-3.015-2.619-4.199C27.346 4.833 29.089 6.267 30.479 8zM10.643 3.801C9.629 4.985 8.74 6.396 8.023 8H5.521c1.39-1.733 3.133-3.166 5.122-4.199zM5.521 28h2.503c.716 1.604 1.605 3.015 2.619 4.198C8.654 31.166 6.911 29.733 5.521 28zm19.836 4.198c1.014-1.184 1.902-2.594 2.619-4.198h2.503c-1.39 1.733-3.133 3.166-5.122 4.198z"/></svg>
<text x="190" y="258" text-anchor="middle" font-size="17" fill="#475569" font-weight="600">ブラウザ（画面）</text>
<rect x="520" y="70" width="300" height="250" rx="16" fill="#dcfce7" stroke="#22c55e" stroke-width="3.5"/>
<text x="670" y="100" text-anchor="middle" font-size="21" fill="#15803d" font-weight="700">バックエンド</text>
<text x="670" y="124" text-anchor="middle" font-size="13" fill="#15803d" font-weight="400">データ管理・処理を担当</text>
<polygon points="587.0,146.0 643.0,146.0 665.0,190.0 643.0,234.0 587.0,234.0 565.0,190.0" fill="#ccfbf1" stroke="#14b8a6" stroke-width="3.5"/>
<text x="615" y="197" text-anchor="middle" font-size="21" fill="#0f766e" font-weight="700">API</text>
<path d="M720 162.8 A42.0 12.8 0 0 0 804 162.8 L804 217.2 A42.0 12.8 0 0 1 720 217.2 Z" fill="#ede9fe" stroke="#8b5cf6" stroke-width="3.5"/>
<ellipse cx="762.0" cy="162.8" rx="42.0" ry="12.8" fill="#ede9fe" stroke="#8b5cf6" stroke-width="2.5"/>
<text x="762" y="258" text-anchor="middle" font-size="17" fill="#6d28d9" font-weight="600">データベース</text>
<line x1="666" y1="190" x2="716" y2="190" stroke="#475569" stroke-width="3.5" stroke-linecap="round" stroke-linejoin="round" marker-end="url(#aR)"/>
<line x1="345" y1="165" x2="515" y2="165" stroke="#475569" stroke-width="3.5" stroke-linecap="round" stroke-linejoin="round" marker-end="url(#aR)"/>
<text x="430.0" y="155.0" text-anchor="middle" font-size="17" fill="#0f172a" font-weight="600">リクエスト</text>
<line x1="515" y1="245" x2="345" y2="245" stroke="#94a3b8" stroke-width="2.0" stroke-linecap="round" stroke-linejoin="round" marker-end="url(#aRsub)"/>
<text x="430.0" y="235.0" text-anchor="middle" font-size="17" fill="#475569" font-weight="600">レスポンス</text>
</svg>
