<svg xmlns="http://www.w3.org/2000/svg" width="520" height="470" viewBox="0 0 520 470" font-family="'Hiragino Sans','Noto Sans JP','Yu Gothic','Segoe UI',sans-serif">
<defs><marker id="aR" viewBox="0 0 10 10" refX="8" refY="5" markerWidth="7" markerHeight="7" orient="auto-start-reverse"><path d="M0 1 L9 5 L0 9 z" fill="#475569"/></marker><marker id="aRsub" viewBox="0 0 10 10" refX="8" refY="5" markerWidth="7" markerHeight="7" orient="auto-start-reverse"><path d="M0 1 L9 5 L0 9 z" fill="#94a3b8"/></marker></defs>
<rect x="0" y="0" width="520" height="470" fill="#ffffff"/>
<rect x="80" y="40" width="360" height="90" rx="16" fill="#eff6ff" stroke="#3b82f6" stroke-width="2.5"/>
<svg x="106" y="59" width="52" height="52" viewBox="0 0 36 36"><path fill="#CCD6DD" d="M36 22c0 2.209-1.791 4-4 4H4c-2.209 0-4-1.791-4-4V4c0-2.209 1.791-4 4-4h28c2.209 0 4 1.791 4 4v18z"/><path fill="#5DADEC" d="M4 4h28v18H4z"/><path fill="#CCD6DD" d="M13 26h10v6H13z"/><path fill="#9AAAB4" d="M13 26h10v2H13z"/><path fill="#E1E8ED" d="M36 33c0-1.657-1.343-3-3-3H3c-1.657 0-3 1.343-3 3s1.343 3 3 3h30c1.657 0 3-1.343 3-3z"/><path fill="#F5F8FA" d="M3 32h2v2H3zm4 0h2v2H7zm4 0h2v2h-2zm4 0h2v2h-2zm4 0h2v2h-2zm4 0h2v2h-2zm4 0h2v2h-2zm4 0h2v2h-2z"/></svg>
<text x="184" y="80" text-anchor="start" font-size="21" fill="#1e293b" font-weight="700">フロント</text>
<text x="184" y="106" text-anchor="start" font-size="15" fill="#64748b" font-weight="400">見た目・入力</text>
<text x="414" y="94" text-anchor="end" font-size="17" fill="#1d4ed8" font-weight="600">Pages</text>
<rect x="80" y="190" width="360" height="90" rx="16" fill="#fef9c3" stroke="#f59e0b" stroke-width="2.5"/>
<svg x="106" y="209" width="52" height="52" viewBox="0 0 36 36"><path fill="#66757F" d="M34 15h-3.362c-.324-1.369-.864-2.651-1.582-3.814l2.379-2.379c.781-.781.781-2.048 0-2.829l-1.414-1.414c-.781-.781-2.047-.781-2.828 0l-2.379 2.379C23.65 6.225 22.369 5.686 21 5.362V2c0-1.104-.896-2-2-2h-2c-1.104 0-2 .896-2 2v3.362c-1.369.324-2.651.864-3.814 1.582L8.808 4.565c-.781-.781-2.048-.781-2.828 0L4.565 5.979c-.781.781-.781 2.048-.001 2.829l2.379 2.379C6.225 12.35 5.686 13.632 5.362 15H2c-1.104 0-2 .896-2 2v2c0 1.104.896 2 2 2h3.362c.324 1.368.864 2.65 1.582 3.813l-2.379 2.379c-.78.78-.78 2.048.001 2.829l1.414 1.414c.78.78 2.047.78 2.828 0l2.379-2.379c1.163.719 2.445 1.258 3.814 1.582V34c0 1.104.896 2 2 2h2c1.104 0 2-.896 2-2v-3.362c1.368-.324 2.65-.864 3.813-1.582l2.379 2.379c.781.781 2.047.781 2.828 0l1.414-1.414c.781-.781.781-2.048 0-2.829l-2.379-2.379c.719-1.163 1.258-2.445 1.582-3.814H34c1.104 0 2-.896 2-2v-2C36 15.896 35.104 15 34 15zM18 26c-4.418 0-8-3.582-8-8s3.582-8 8-8 8 3.582 8 8-3.582 8-8 8z"/></svg>
<text x="184" y="230" text-anchor="start" font-size="21" fill="#1e293b" font-weight="700">API（処理）</text>
<text x="184" y="256" text-anchor="start" font-size="15" fill="#64748b" font-weight="400">リクエストを処理</text>
<text x="414" y="244" text-anchor="end" font-size="17" fill="#b45309" font-weight="600">Workers</text>
<rect x="80" y="340" width="360" height="90" rx="16" fill="#ecfdf5" stroke="#10b981" stroke-width="2.5"/>
<svg x="106" y="359" width="52" height="52" viewBox="0 0 36 36"><path fill="#292F33" d="M30 34c0 1.104-.896 2-2 2H8c-1.104 0-2-.896-2-2V2c0-1.104.896-2 2-2h20c1.104 0 2 .896 2 2v32z"/><path fill="#66757F" d="M28 16c0 .552-.447 1-1 1H9c-.552 0-1-.448-1-1V3c0-.552.448-1 1-1h18c.553 0 1 .448 1 1v13zm0 17c0 .553-.447 1-1 1H9c-.552 0-1-.447-1-1V20c0-.553.448-1 1-1h18c.553 0 1 .447 1 1v13z"/><path fill="#292F33" d="M22 8c0 .552-.447 1-1 1h-6c-.552 0-1-.448-1-1V5c0-.552.448-1 1-1h6c.553 0 1 .448 1 1v3zm0 17c0 .553-.447 1-1 1h-6c-.552 0-1-.447-1-1v-3c0-.553.448-1 1-1h6c.553 0 1 .447 1 1v3z"/><path fill="#E1E8ED" d="M15 5h6v3h-6zm0 17h6v3h-6zm9-8.97c0 .536-.435.97-.97.97H12.97c-.536 0-.97-.435-.97-.97v-.06c0-.536.434-.97.97-.97h10.06c.535 0 .97.435.97.97v.06zm0 16.999c0 .536-.435.971-.97.971H12.97c-.536 0-.97-.435-.97-.971v-.059c0-.535.434-.97.97-.97h10.06c.535 0 .97.435.97.971v.058z"/></svg>
<text x="184" y="380" text-anchor="start" font-size="21" fill="#1e293b" font-weight="700">データ</text>
<text x="184" y="406" text-anchor="start" font-size="15" fill="#64748b" font-weight="400">ためておく</text>
<text x="414" y="394" text-anchor="end" font-size="17" fill="#047857" font-weight="600">D1 / R2</text>
<line x1="260" y1="130" x2="260" y2="190" stroke="#94a3b8" stroke-width="3" stroke-linecap="round" marker-end="url(#aRsub)" marker-start="url(#aRsub)"/>
<line x1="260" y1="280" x2="260" y2="340" stroke="#94a3b8" stroke-width="3" stroke-linecap="round" marker-end="url(#aRsub)" marker-start="url(#aRsub)"/>
</svg>
