<svg xmlns="http://www.w3.org/2000/svg" width="960" height="340" viewBox="0 0 960 340" font-family="'Hiragino Sans','Noto Sans JP','Yu Gothic','Segoe UI',sans-serif">
<defs><marker id="aR" viewBox="0 0 10 10" refX="8" refY="5" markerWidth="7" markerHeight="7" orient="auto-start-reverse"><path d="M0 1 L9 5 L0 9 z" fill="#475569"/></marker><marker id="aRsub" viewBox="0 0 10 10" refX="8" refY="5" markerWidth="7" markerHeight="7" orient="auto-start-reverse"><path d="M0 1 L9 5 L0 9 z" fill="#94a3b8"/></marker></defs>
<rect x="0" y="0" width="960" height="340" fill="#ffffff"/>
<rect x="20" y="20" width="920" height="300" rx="16" fill="#ede9fe" stroke="#8b5cf6" stroke-width="3.5"/>
<rect x="60" y="60" width="340" height="44" rx="16" fill="#ede9fe" stroke="#8b5cf6" stroke-width="3.5"/>
<text x="78" y="88" text-anchor="start" font-size="17" fill="#6d28d9" font-weight="600">SECTION 04 ・ 付録</text>
<text x="64" y="190" text-anchor="start" font-size="33" fill="#0f172a" font-weight="700">Turnstile で bot を防ぐ</text>
<text x="66" y="286" text-anchor="start" font-size="21" fill="#6d28d9" font-weight="700">04-03</text>
<ellipse cx="800" cy="170" rx="92" ry="92" fill="#f1f5f9" stroke="#94a3b8" stroke-width="3.5"/>
<svg x="740" y="110" width="120" height="120" viewBox="0 0 36 36"><path fill="#FFCC4D" d="M36 15c0 2.209-1.791 4-4 4H4c-2.209 0-4-1.791-4-4V7c0-2.209 1.791-4 4-4h28c2.209 0 4 1.791 4 4v8z"/><path d="M6 3H4C1.791 3 0 4.791 0 7v2l6-6zm6 0L0 15c0 1.36.682 2.558 1.72 3.28L17 3h-5zM7 19h5L28 3h-5zm16 0L35.892 6.108c-.281-1.23-1.126-2.24-2.252-2.748L18 19h5zm13-4v-3l-7 7h3c2.209 0 4-1.791 4-4z" fill="#292F33"/><path fill="#99AAB5" d="M4 19h5v14H4zm23 0h5v14h-5z"/></svg>
</svg>
