<svg xmlns="http://www.w3.org/2000/svg" width="860" height="430" viewBox="0 0 860 430" font-family="'Hiragino Sans','Noto Sans JP','Yu Gothic','Segoe UI',sans-serif">
<defs><marker id="aR" viewBox="0 0 10 10" refX="8" refY="5" markerWidth="7" markerHeight="7" orient="auto-start-reverse"><path d="M0 1 L9 5 L0 9 z" fill="#475569"/></marker><marker id="aRsub" viewBox="0 0 10 10" refX="8" refY="5" markerWidth="7" markerHeight="7" orient="auto-start-reverse"><path d="M0 1 L9 5 L0 9 z" fill="#94a3b8"/></marker></defs>
<rect x="0" y="0" width="860" height="430" fill="#ffffff"/>
<svg x="70" y="62" width="80" height="80" viewBox="0 0 36 36"><path fill="#269" d="M24 26.799v-2.566c2-1.348 4.08-3.779 4.703-6.896.186.103.206.17.413.17.991 0 1.709-1.287 1.709-2.873 0-1.562-.823-2.827-1.794-2.865.187-.674.293-1.577.293-2.735C29.324 5.168 26 .527 18.541.527c-6.629 0-10.777 4.641-10.777 8.507 0 1.123.069 2.043.188 2.755-.911.137-1.629 1.352-1.629 2.845 0 1.587.804 2.873 1.796 2.873.206 0 .025-.067.209-.17C8.952 20.453 11 22.885 13 24.232v2.414c-5 .645-12 3.437-12 6.23v1.061C1 35 2.076 35 3.137 35h29.725C33.924 35 35 35 35 33.938v-1.061c0-2.615-6-5.225-11-6.078z"/></svg>
<text x="110" y="162" text-anchor="middle" font-size="21" fill="#0f172a" font-weight="700">正規ユーザー</text>
<svg x="370" y="62" width="80" height="80" viewBox="0 0 36 36"><path fill="#3B88C3" d="M18 0C8.059 0 0 8.059 0 18s8.059 18 18 18 18-8.059 18-18S27.941 0 18 0zM2.05 19h3.983c.092 2.506.522 4.871 1.229 7H4.158c-1.207-2.083-1.95-4.459-2.108-7zM19 8V2.081c2.747.436 5.162 2.655 6.799 5.919H19zm7.651 2c.754 2.083 1.219 4.46 1.317 7H19v-7h7.651zM17 2.081V8h-6.799C11.837 4.736 14.253 2.517 17 2.081zM17 10v7H8.032c.098-2.54.563-4.917 1.317-7H17zM6.034 17H2.05c.158-2.54.901-4.917 2.107-7h3.104c-.705 2.129-1.135 4.495-1.227 7zm1.998 2H17v7H9.349c-.754-2.083-1.219-4.459-1.317-7zM17 28v5.919c-2.747-.437-5.163-2.655-6.799-5.919H17zm2 5.919V28h6.8c-1.637 3.264-4.053 5.482-6.8 5.919zM19 26v-7h8.969c-.099 2.541-.563 4.917-1.317 7H19zm10.967-7h3.982c-.157 2.541-.9 4.917-2.107 7h-3.104c.706-2.129 1.136-4.494 1.229-7zm0-2c-.093-2.505-.523-4.871-1.229-7h3.104c1.207 2.083 1.95 4.46 2.107 7h-3.982zm.512-9h-2.503c-.717-1.604-1.606-3.015-2.619-4.199C27.346 4.833 29.089 6.267 30.479 8zM10.643 3.801C9.629 4.985 8.74 6.396 8.023 8H5.521c1.39-1.733 3.133-3.166 5.122-4.199zM5.521 28h2.503c.716 1.604 1.605 3.015 2.619 4.198C8.654 31.166 6.911 29.733 5.521 28zm19.836 4.198c1.014-1.184 1.902-2.594 2.619-4.198h2.503c-1.39 1.733-3.133 3.166-5.122 4.198z"/></svg>
<text x="410" y="162" text-anchor="middle" font-size="21" fill="#0f172a" font-weight="700">ウィジェット</text>
<svg x="680" y="62" width="80" height="80" viewBox="0 0 36 36"><path fill="#66757F" d="M34 15h-3.362c-.324-1.369-.864-2.651-1.582-3.814l2.379-2.379c.781-.781.781-2.048 0-2.829l-1.414-1.414c-.781-.781-2.047-.781-2.828 0l-2.379 2.379C23.65 6.225 22.369 5.686 21 5.362V2c0-1.104-.896-2-2-2h-2c-1.104 0-2 .896-2 2v3.362c-1.369.324-2.651.864-3.814 1.582L8.808 4.565c-.781-.781-2.048-.781-2.828 0L4.565 5.979c-.781.781-.781 2.048-.001 2.829l2.379 2.379C6.225 12.35 5.686 13.632 5.362 15H2c-1.104 0-2 .896-2 2v2c0 1.104.896 2 2 2h3.362c.324 1.368.864 2.65 1.582 3.813l-2.379 2.379c-.78.78-.78 2.048.001 2.829l1.414 1.414c.78.78 2.047.78 2.828 0l2.379-2.379c1.163.719 2.445 1.258 3.814 1.582V34c0 1.104.896 2 2 2h2c1.104 0 2-.896 2-2v-3.362c1.368-.324 2.65-.864 3.813-1.582l2.379 2.379c.781.781 2.047.781 2.828 0l1.414-1.414c.781-.781.781-2.048 0-2.829l-2.379-2.379c.719-1.163 1.258-2.445 1.582-3.814H34c1.104 0 2-.896 2-2v-2C36 15.896 35.104 15 34 15zM18 26c-4.418 0-8-3.582-8-8s3.582-8 8-8 8 3.582 8 8-3.582 8-8 8z"/></svg>
<text x="720" y="162" text-anchor="middle" font-size="21" fill="#0f172a" font-weight="700">Worker</text>
<line x1="185" y1="105" x2="345" y2="105" stroke="#475569" stroke-width="3.5" stroke-linecap="round" stroke-linejoin="round" marker-end="url(#aR)"/>
<text x="265.0" y="95.0" text-anchor="middle" font-size="17" fill="#0f172a" font-weight="600">正しく検証</text>
<line x1="485" y1="105" x2="655" y2="105" stroke="#475569" stroke-width="3.5" stroke-linecap="round" stroke-linejoin="round" marker-end="url(#aR)"/>
<text x="570.0" y="95.0" text-anchor="middle" font-size="17" fill="#0f172a" font-weight="600">siteverify OK</text>
<svg x="700" y="155" width="40" height="40" viewBox="0 0 36 36"><path fill="#77B255" d="M36 32c0 2.209-1.791 4-4 4H4c-2.209 0-4-1.791-4-4V4c0-2.209 1.791-4 4-4h28c2.209 0 4 1.791 4 4v28z"/><path fill="#FFF" d="M29.28 6.362c-1.156-.751-2.704-.422-3.458.736L14.936 23.877l-5.029-4.65c-1.014-.938-2.596-.875-3.533.138-.937 1.014-.875 2.596.139 3.533l7.209 6.666c.48.445 1.09.665 1.696.665.673 0 1.534-.282 2.099-1.139.332-.506 12.5-19.27 12.5-19.27.751-1.159.421-2.707-.737-3.458z"/></svg>
<svg x="70" y="272" width="80" height="80" viewBox="0 0 36 36"><path fill="#FFCC4D" d="M2.653 35C.811 35-.001 33.662.847 32.027L16.456 1.972c.849-1.635 2.238-1.635 3.087 0l15.609 30.056c.85 1.634.037 2.972-1.805 2.972H2.653z"/><path fill="#231F20" d="M15.583 28.953c0-1.333 1.085-2.418 2.419-2.418 1.333 0 2.418 1.085 2.418 2.418 0 1.334-1.086 2.419-2.418 2.419-1.334 0-2.419-1.085-2.419-2.419zm.186-18.293c0-1.302.961-2.108 2.232-2.108 1.241 0 2.233.837 2.233 2.108v11.938c0 1.271-.992 2.108-2.233 2.108-1.271 0-2.232-.807-2.232-2.108V10.66z"/></svg>
<text x="110" y="372" text-anchor="middle" font-size="21" fill="#0f172a" font-weight="700">bot</text>
<svg x="505" y="285" width="56" height="56" viewBox="0 0 36 36"><path fill="#FFCC4D" d="M36 15c0 2.209-1.791 4-4 4H4c-2.209 0-4-1.791-4-4V7c0-2.209 1.791-4 4-4h28c2.209 0 4 1.791 4 4v8z"/><path d="M6 3H4C1.791 3 0 4.791 0 7v2l6-6zm6 0L0 15c0 1.36.682 2.558 1.72 3.28L17 3h-5zM7 19h5L28 3h-5zm16 0L35.892 6.108c-.281-1.23-1.126-2.24-2.252-2.748L18 19h5zm13-4v-3l-7 7h3c2.209 0 4-1.791 4-4z" fill="#292F33"/><path fill="#99AAB5" d="M4 19h5v14H4zm23 0h5v14h-5z"/></svg>
<text x="533" y="360" text-anchor="middle" font-size="17" fill="#b91c1c" font-weight="600">サーバー側検証で遮断</text>
<line x1="185" y1="315" x2="470" y2="305" stroke="#475569" stroke-width="3.5" stroke-linecap="round" stroke-linejoin="round" stroke-dasharray="7 6" marker-end="url(#aR)"/>
<text x="327.5" y="300.0" text-anchor="middle" font-size="17" fill="#0f172a" font-weight="600">ウィジェットを飛び越えて /submit 直叩き</text>
<line x1="565" y1="290" x2="660" y2="290" stroke="#ef4444" stroke-width="3" stroke-dasharray="4 6"/>
<svg x="680" y="272" width="80" height="80" viewBox="0 0 36 36"><path fill="#66757F" d="M34 15h-3.362c-.324-1.369-.864-2.651-1.582-3.814l2.379-2.379c.781-.781.781-2.048 0-2.829l-1.414-1.414c-.781-.781-2.047-.781-2.828 0l-2.379 2.379C23.65 6.225 22.369 5.686 21 5.362V2c0-1.104-.896-2-2-2h-2c-1.104 0-2 .896-2 2v3.362c-1.369.324-2.651.864-3.814 1.582L8.808 4.565c-.781-.781-2.048-.781-2.828 0L4.565 5.979c-.781.781-.781 2.048-.001 2.829l2.379 2.379C6.225 12.35 5.686 13.632 5.362 15H2c-1.104 0-2 .896-2 2v2c0 1.104.896 2 2 2h3.362c.324 1.368.864 2.65 1.582 3.813l-2.379 2.379c-.78.78-.78 2.048.001 2.829l1.414 1.414c.78.78 2.047.78 2.828 0l2.379-2.379c1.163.719 2.445 1.258 3.814 1.582V34c0 1.104.896 2 2 2h2c1.104 0 2-.896 2-2v-3.362c1.368-.324 2.65-.864 3.813-1.582l2.379 2.379c.781.781 2.047.781 2.828 0l1.414-1.414c.781-.781.781-2.048 0-2.829l-2.379-2.379c.719-1.163 1.258-2.445 1.582-3.814H34c1.104 0 2-.896 2-2v-2C36 15.896 35.104 15 34 15zM18 26c-4.418 0-8-3.582-8-8s3.582-8 8-8 8 3.582 8 8-3.582 8-8 8z"/></svg>
<text x="720" y="372" text-anchor="middle" font-size="21" fill="#0f172a" font-weight="700">Worker</text>
</svg>
