<svg xmlns="http://www.w3.org/2000/svg" width="960" height="340" viewBox="0 0 960 340" font-family="'Hiragino Sans','Noto Sans JP','Yu Gothic','Segoe UI',sans-serif">
<defs><marker id="aR" viewBox="0 0 10 10" refX="8" refY="5" markerWidth="7" markerHeight="7" orient="auto-start-reverse"><path d="M0 1 L9 5 L0 9 z" fill="#475569"/></marker><marker id="aRsub" viewBox="0 0 10 10" refX="8" refY="5" markerWidth="7" markerHeight="7" orient="auto-start-reverse"><path d="M0 1 L9 5 L0 9 z" fill="#94a3b8"/></marker></defs>
<rect x="0" y="0" width="960" height="340" fill="#ffffff"/>
<rect x="20" y="20" width="920" height="300" rx="16" fill="#ede9fe" stroke="#8b5cf6" stroke-width="3.5"/>
<rect x="60" y="60" width="340" height="44" rx="16" fill="#ede9fe" stroke="#8b5cf6" stroke-width="3.5"/>
<text x="78" y="88" text-anchor="start" font-size="17" fill="#6d28d9" font-weight="600">SECTION 04 ・ 付録</text>
<text x="64" y="168" text-anchor="start" font-size="26" fill="#0f172a" font-weight="700">公開先の比較</text>
<text x="64" y="212" text-anchor="start" font-size="26" fill="#0f172a" font-weight="700">（オンプレ / クラウド・VPS / SaaS）</text>
<ellipse cx="800" cy="170" rx="92" ry="92" fill="#f1f5f9" stroke="#94a3b8" stroke-width="3.5"/>
<svg x="740" y="110" width="120" height="120" viewBox="0 0 36 36"><path fill="#66757F" d="M3.923 22.923c-.212.511-.798.751-1.308.539-.51-.213-.751-.798-.539-1.308L6.693 9.616c.212-.51.798-.751 1.307-.539.51.213.751.798.539 1.308L3.923 22.923z"/><path fill="#66757F" d="M13.923 22.154c.212.51-.029 1.095-.539 1.308-.51.212-1.095-.028-1.308-.539L7.461 10.385c-.212-.51.029-1.095.539-1.308.51-.212 1.095.029 1.308.539l4.615 12.538zm10.001.769c-.213.511-.799.751-1.309.539-.51-.213-.75-.798-.538-1.308l4.616-12.539c.212-.509.797-.75 1.307-.538.51.213.752.798.539 1.308l-4.615 12.538z"/><path fill="#66757F" d="M33.923 22.154c.212.51-.028 1.095-.538 1.308-.51.212-1.096-.028-1.309-.539l-4.615-12.538c-.213-.51.029-1.095.539-1.308.51-.212 1.095.029 1.307.539l4.616 12.538z"/><path fill="#FFAC33" d="M14.857 22H1.143C.512 22 0 22.511 0 23.143c0 2.524 3.582 4.571 8 4.571s8-2.047 8-4.571c0-.632-.512-1.143-1.143-1.143zM24 34H12c-.552 0-1-.447-1-1 0-2.209 3.134-4 7-4s7 1.791 7 4c0 .553-.447 1-1 1zm10.857-12H21.143c-.632 0-1.143.511-1.143 1.143 0 2.524 3.581 4.571 8 4.571s8-2.047 8-4.571c0-.632-.511-1.143-1.143-1.143z"/><path fill="#FFAC33" d="M19 3c0-.552-.447-1-1-1-.552 0-1 .448-1 1v27c0 .553.448 1 1 1 .553 0 1-.447 1-1V3z"/><circle fill="#FFAC33" cx="18" cy="4" r="2"/><circle fill="#FFAC33" cx="8" cy="10" r="2"/><circle fill="#FFAC33" cx="28" cy="10" r="2"/><path fill="#FFAC33" d="M28 10c0 1.104 0 0-10 0S8 11.104 8 10s3-4 10-4 10 2.896 10 4z"/></svg>
</svg>
