<svg xmlns="http://www.w3.org/2000/svg" width="900" height="1000" viewBox="0 0 900 1000" font-family="'Hiragino Sans','Noto Sans JP','Yu Gothic','Segoe UI',sans-serif">
<defs><marker id="aR" viewBox="0 0 10 10" refX="8" refY="5" markerWidth="7" markerHeight="7" orient="auto-start-reverse"><path d="M0 1 L9 5 L0 9 z" fill="#475569"/></marker><marker id="aRsub" viewBox="0 0 10 10" refX="8" refY="5" markerWidth="7" markerHeight="7" orient="auto-start-reverse"><path d="M0 1 L9 5 L0 9 z" fill="#94a3b8"/></marker></defs>
<rect x="0" y="0" width="900" height="1000" fill="#ffffff"/>
<text x="450.0" y="46" text-anchor="middle" font-size="33" fill="#0f172a" font-weight="700">公開先を3段階で絞り込む</text>
<text x="450.0" y="76" text-anchor="middle" font-size="13" fill="#475569" font-weight="400">上の段で答えが出ると、次の段の対象が減る（じょうご状）</text>
<rect x="70" y="110" width="760" height="210" rx="16" fill="#dbeafe" stroke="#3b82f6" stroke-width="3.5"/>
<text x="98" y="148" text-anchor="start" font-size="21" fill="#1d4ed8" font-weight="700">第1段</text>
<text x="98" y="174" text-anchor="start" font-size="15" fill="#475569" font-weight="400">ハードを自前で持つか、借りるか</text>
<svg x="280" y="197" width="80" height="80" viewBox="0 0 36 36"><path fill="#CCD6DD" d="M36 22c0 2.209-1.791 4-4 4H4c-2.209 0-4-1.791-4-4V4c0-2.209 1.791-4 4-4h28c2.209 0 4 1.791 4 4v18z"/><path fill="#5DADEC" d="M4 4h28v18H4z"/><path fill="#CCD6DD" d="M13 26h10v6H13z"/><path fill="#9AAAB4" d="M13 26h10v2H13z"/><path fill="#E1E8ED" d="M36 33c0-1.657-1.343-3-3-3H3c-1.657 0-3 1.343-3 3s1.343 3 3 3h30c1.657 0 3-1.343 3-3z"/><path fill="#F5F8FA" d="M3 32h2v2H3zm4 0h2v2H7zm4 0h2v2h-2zm4 0h2v2h-2zm4 0h2v2h-2zm4 0h2v2h-2zm4 0h2v2h-2zm4 0h2v2h-2z"/></svg>
<text x="320" y="297" text-anchor="middle" font-size="21" fill="#0f172a" font-weight="700">オンプレミス</text>
<svg x="560" y="197" width="80" height="80" viewBox="0 0 36 36"><path fill="#CCD6DD" d="M27 8c-.701 0-1.377.106-2.015.298.005-.1.015-.197.015-.298 0-3.313-2.687-6-6-6-2.769 0-5.093 1.878-5.785 4.427C12.529 6.154 11.783 6 11 6c-3.314 0-6 2.686-6 6 0 3.312 2.686 6 6 6 2.769 0 5.093-1.878 5.785-4.428.686.273 1.432.428 2.215.428.375 0 .74-.039 1.096-.104-.058.36-.096.727-.096 1.104 0 3.865 3.135 7 7 7s7-3.135 7-7c0-3.866-3.135-7-7-7z"/><path fill="#E1E8ED" d="M31 22c-.467 0-.91.085-1.339.204.216-.526.339-1.1.339-1.704 0-2.485-2.015-4.5-4.5-4.5-1.019 0-1.947.351-2.701.921C22.093 14.096 19.544 12 16.5 12c-2.838 0-5.245 1.822-6.131 4.357C9.621 16.125 8.825 16 8 16c-4.418 0-8 3.582-8 8 0 4.419 3.582 8 8 8h23c2.762 0 5-2.238 5-5s-2.238-5-5-5z"/></svg>
<text x="600" y="297" text-anchor="middle" font-size="21" fill="#0f172a" font-weight="700">クラウド</text>
<line x1="450.0" y1="320" x2="450.0" y2="392" stroke="#475569" stroke-width="3.5" stroke-linecap="round" stroke-linejoin="round" marker-end="url(#aR)"/>
<text x="450.0" y="352.0" text-anchor="middle" font-size="17" fill="#0f172a" font-weight="600">多くの初学者はこちら（クラウド）</text>
<rect x="160" y="398" width="580" height="210" rx="16" fill="#ccfbf1" stroke="#14b8a6" stroke-width="3.5"/>
<text x="188" y="436" text-anchor="start" font-size="21" fill="#0f766e" font-weight="700">第2段</text>
<text x="188" y="462" text-anchor="start" font-size="15" fill="#475569" font-weight="400">サーバーを自分で管理するか、任せるか</text>
<svg x="295" y="488" width="80" height="80" viewBox="0 0 36 36"><path fill="#CCD6DD" d="M36 22c0 2.209-1.791 4-4 4H4c-2.209 0-4-1.791-4-4V4c0-2.209 1.791-4 4-4h28c2.209 0 4 1.791 4 4v18z"/><path fill="#5DADEC" d="M4 4h28v18H4z"/><path fill="#CCD6DD" d="M13 26h10v6H13z"/><path fill="#9AAAB4" d="M13 26h10v2H13z"/><path fill="#E1E8ED" d="M36 33c0-1.657-1.343-3-3-3H3c-1.657 0-3 1.343-3 3s1.343 3 3 3h30c1.657 0 3-1.343 3-3z"/><path fill="#F5F8FA" d="M3 32h2v2H3zm4 0h2v2H7zm4 0h2v2h-2zm4 0h2v2h-2zm4 0h2v2h-2zm4 0h2v2h-2zm4 0h2v2h-2zm4 0h2v2h-2z"/></svg>
<text x="335" y="588" text-anchor="middle" font-size="17" fill="#475569" font-weight="600">VPS（自分で管理）</text>
<svg x="530" y="488" width="80" height="80" viewBox="0 0 36 36"><path fill="#66757F" d="M34 15h-3.362c-.324-1.369-.864-2.651-1.582-3.814l2.379-2.379c.781-.781.781-2.048 0-2.829l-1.414-1.414c-.781-.781-2.047-.781-2.828 0l-2.379 2.379C23.65 6.225 22.369 5.686 21 5.362V2c0-1.104-.896-2-2-2h-2c-1.104 0-2 .896-2 2v3.362c-1.369.324-2.651.864-3.814 1.582L8.808 4.565c-.781-.781-2.048-.781-2.828 0L4.565 5.979c-.781.781-.781 2.048-.001 2.829l2.379 2.379C6.225 12.35 5.686 13.632 5.362 15H2c-1.104 0-2 .896-2 2v2c0 1.104.896 2 2 2h3.362c.324 1.368.864 2.65 1.582 3.813l-2.379 2.379c-.78.78-.78 2.048.001 2.829l1.414 1.414c.78.78 2.047.78 2.828 0l2.379-2.379c1.163.719 2.445 1.258 3.814 1.582V34c0 1.104.896 2 2 2h2c1.104 0 2-.896 2-2v-3.362c1.368-.324 2.65-.864 3.813-1.582l2.379 2.379c.781.781 2.047.781 2.828 0l1.414-1.414c.781-.781.781-2.048 0-2.829l-2.379-2.379c.719-1.163 1.258-2.445 1.582-3.814H34c1.104 0 2-.896 2-2v-2C36 15.896 35.104 15 34 15zM18 26c-4.418 0-8-3.582-8-8s3.582-8 8-8 8 3.582 8 8-3.582 8-8 8z"/></svg>
<text x="570" y="588" text-anchor="middle" font-size="17" fill="#475569" font-weight="600">SaaS / サーバーレス</text>
<line x1="450.0" y1="608" x2="450.0" y2="680" stroke="#475569" stroke-width="3.5" stroke-linecap="round" stroke-linejoin="round" marker-end="url(#aR)"/>
<text x="450.0" y="640.0" text-anchor="middle" font-size="17" fill="#0f172a" font-weight="600">手軽さ重視ならこちら（管理を任せる）</text>
<rect x="250" y="686" width="400" height="190" rx="16" fill="#ede9fe" stroke="#8b5cf6" stroke-width="3.5"/>
<text x="450.0" y="724" text-anchor="middle" font-size="21" fill="#6d28d9" font-weight="700">第3段</text>
<text x="450.0" y="750" text-anchor="middle" font-size="15" fill="#475569" font-weight="400">どのベンダーに載せるか</text>
<text x="330" y="806" text-anchor="middle" font-size="17" fill="#475569" font-weight="600">Vercel</text>
<svg x="418" y="778" width="40" height="40" viewBox="0 0 36 36"><path fill="#CCD6DD" d="M27 8c-.701 0-1.377.106-2.015.298.005-.1.015-.197.015-.298 0-3.313-2.687-6-6-6-2.769 0-5.093 1.878-5.785 4.427C12.529 6.154 11.783 6 11 6c-3.314 0-6 2.686-6 6 0 3.312 2.686 6 6 6 2.769 0 5.093-1.878 5.785-4.428.686.273 1.432.428 2.215.428.375 0 .74-.039 1.096-.104-.058.36-.096.727-.096 1.104 0 3.865 3.135 7 7 7s7-3.135 7-7c0-3.866-3.135-7-7-7z"/><path fill="#E1E8ED" d="M31 22c-.467 0-.91.085-1.339.204.216-.526.339-1.1.339-1.704 0-2.485-2.015-4.5-4.5-4.5-1.019 0-1.947.351-2.701.921C22.093 14.096 19.544 12 16.5 12c-2.838 0-5.245 1.822-6.131 4.357C9.621 16.125 8.825 16 8 16c-4.418 0-8 3.582-8 8 0 4.419 3.582 8 8 8h23c2.762 0 5-2.238 5-5s-2.238-5-5-5z"/></svg>
<text x="438" y="832" text-anchor="middle" font-size="17" fill="#1d4ed8" font-weight="600">Cloudflare</text>
<text x="555" y="806" text-anchor="middle" font-size="17" fill="#475569" font-weight="600">AWS</text>
<text x="330" y="852" text-anchor="middle" font-size="17" fill="#475569" font-weight="600">GCP</text>
<text x="555" y="852" text-anchor="middle" font-size="17" fill="#475569" font-weight="600">Azure</text>
</svg>
