<svg xmlns="http://www.w3.org/2000/svg" width="760" height="340" viewBox="0 0 760 340" font-family="'Hiragino Sans','Noto Sans JP','Yu Gothic','Segoe UI',sans-serif">
<defs><marker id="aR" viewBox="0 0 10 10" refX="8" refY="5" markerWidth="7" markerHeight="7" orient="auto-start-reverse"><path d="M0 1 L9 5 L0 9 z" fill="#475569"/></marker><marker id="aRsub" viewBox="0 0 10 10" refX="8" refY="5" markerWidth="7" markerHeight="7" orient="auto-start-reverse"><path d="M0 1 L9 5 L0 9 z" fill="#94a3b8"/></marker></defs>
<rect x="0" y="0" width="760" height="340" fill="#ffffff"/>
<text x="380" y="40" text-anchor="middle" font-size="26" fill="#0f172a" font-weight="700">自前で持つか、借りるか</text>
<rect x="40" y="74" width="300" height="210" rx="16" fill="#f1f5f9" stroke="#94a3b8" stroke-width="3.5"/>
<text x="190" y="104" text-anchor="middle" font-size="21" fill="#475569" font-weight="700">オンプレミス</text>
<svg x="150" y="128" width="80" height="80" viewBox="0 0 36 36"><path fill="#DAC8B1" d="M34 13c0 1.104-.896 2-2 2h-6c-1.104 0-2-.896-2-2v-2c0-1.104.896-2 2-2h6c1.104 0 2 .896 2 2v2zm-22 0c0 1.104-.896 2-2 2H4c-1.104 0-2-.896-2-2v-2c0-1.104.896-2 2-2h6c1.104 0 2 .896 2 2v2z"/><path fill="#F1DCC1" d="M36 34c0 1.104-.896 2-2 2H2c-1.104 0-2-.896-2-2V13c0-1.104.896-2 2-2h32c1.104 0 2 .896 2 2v21z"/><path fill="#DAC8B1" d="M22 9V7c0-.738-.404-1.376-1-1.723V5c0-1.104-.896-2-2-2h-2c-1.104 0-2 .896-2 2v.277c-.595.347-1 .985-1 1.723v2h-1v27h10V9h-1z"/><path fill="#55ACEE" d="M14 7h2v2h-2zm6 0h2v2h-2zm-3 0h2v2h-2z"/><path fill="#3B88C3" d="M15 15h2v14h-2zm4 0h2v14h-2z"/><path fill="#55ACEE" d="M24 17h2v12h-2zm4 0h2v12h-2zm4 0h2v12h-2zM2 17h2v12H2zm4 0h2v12H6zm4 0h2v12h-2zM2 30h2v2H2zm4 0h2v2H6zm4 0h2v2h-2z"/><path fill="#3B88C3" d="M15 30h2v2h-2zm4 0h2v2h-2z"/><path fill="#55ACEE" d="M24 30h2v2h-2zm4 0h2v2h-2zm4 0h2v2h-2z"/><path fill="#66757F" d="M2 33h2v3H2zm4 0h2v3H6zm4 0h2v3h-2zm5 0h2v3h-2zm4 0h2v3h-2zm5 0h2v3h-2zm4 0h2v3h-2zm4 0h2v3h-2z"/></svg>
<text x="190" y="232" text-anchor="middle" font-size="17" fill="#475569" font-weight="600">機器を自分で持つ</text>
<text x="190" y="258" text-anchor="middle" font-size="13" fill="#475569" font-weight="400">買い切り・運用も全部自分</text>
<rect x="420" y="74" width="300" height="210" rx="16" fill="#dbeafe" stroke="#3b82f6" stroke-width="3.5"/>
<text x="570" y="104" text-anchor="middle" font-size="21" fill="#1d4ed8" font-weight="700">クラウド</text>
<svg x="530" y="128" width="80" height="80" viewBox="0 0 36 36"><path fill="#CCD6DD" d="M27 8c-.701 0-1.377.106-2.015.298.005-.1.015-.197.015-.298 0-3.313-2.687-6-6-6-2.769 0-5.093 1.878-5.785 4.427C12.529 6.154 11.783 6 11 6c-3.314 0-6 2.686-6 6 0 3.312 2.686 6 6 6 2.769 0 5.093-1.878 5.785-4.428.686.273 1.432.428 2.215.428.375 0 .74-.039 1.096-.104-.058.36-.096.727-.096 1.104 0 3.865 3.135 7 7 7s7-3.135 7-7c0-3.866-3.135-7-7-7z"/><path fill="#E1E8ED" d="M31 22c-.467 0-.91.085-1.339.204.216-.526.339-1.1.339-1.704 0-2.485-2.015-4.5-4.5-4.5-1.019 0-1.947.351-2.701.921C22.093 14.096 19.544 12 16.5 12c-2.838 0-5.245 1.822-6.131 4.357C9.621 16.125 8.825 16 8 16c-4.418 0-8 3.582-8 8 0 4.419 3.582 8 8 8h23c2.762 0 5-2.238 5-5s-2.238-5-5-5z"/></svg>
<text x="570" y="232" text-anchor="middle" font-size="17" fill="#1d4ed8" font-weight="600">サーバーを借りて使う</text>
<text x="570" y="258" text-anchor="middle" font-size="13" fill="#1d4ed8" font-weight="400">使った分だけ・すぐ使える</text>
<text x="380" y="175" text-anchor="middle" font-size="26" fill="#94a3b8" font-weight="700">vs</text>
<text x="380" y="315" text-anchor="middle" font-size="15" fill="#475569" font-weight="400">初学者が小さく始めるなら、答えはほぼ「クラウド」</text>
</svg>
