<svg xmlns="http://www.w3.org/2000/svg" width="820" height="320" viewBox="0 0 820 320" font-family="'Hiragino Sans','Noto Sans JP','Yu Gothic','Segoe UI',sans-serif">
<defs><marker id="aR" viewBox="0 0 10 10" refX="8" refY="5" markerWidth="7" markerHeight="7" orient="auto-start-reverse"><path d="M0 1 L9 5 L0 9 z" fill="#475569"/></marker><marker id="aRsub" viewBox="0 0 10 10" refX="8" refY="5" markerWidth="7" markerHeight="7" orient="auto-start-reverse"><path d="M0 1 L9 5 L0 9 z" fill="#94a3b8"/></marker></defs>
<rect x="0" y="0" width="820" height="320" fill="#ffffff"/>
<text x="410" y="38" text-anchor="middle" font-size="26" fill="#0f172a" font-weight="700">手軽さと総合力のスペクトル</text>
<line x1="70" y1="250" x2="750" y2="250" stroke="#94a3b8" stroke-width="3.5" stroke-linecap="round" stroke-linejoin="round" marker-end="url(#aRsub)"/>
<text x="90" y="288" text-anchor="start" font-size="17" fill="#0f766e" font-weight="600">手軽・無料枠が手厚い</text>
<text x="730" y="288" text-anchor="end" font-size="17" fill="#c2410c" font-weight="600">総合・規模と機能の幅</text>
<rect x="70" y="90" width="150" height="96" rx="16" fill="#ffedd5" stroke="#f97316" stroke-width="3.5"/>
<text x="145" y="128" text-anchor="middle" font-size="21" fill="#c2410c" font-weight="700">Cloudflare</text>
<text x="145" y="158" text-anchor="middle" font-size="13" fill="#c2410c" font-weight="400">エッジ実行・低コスト</text>
<rect x="240" y="90" width="150" height="96" rx="16" fill="#f1f5f9" stroke="#94a3b8" stroke-width="3.5"/>
<text x="315" y="128" text-anchor="middle" font-size="21" fill="#475569" font-weight="700">Vercel</text>
<text x="315" y="158" text-anchor="middle" font-size="13" fill="#475569" font-weight="400">フロント公開が得意</text>
<rect x="430" y="90" width="130" height="96" rx="16" fill="#fef9c3" stroke="#f59e0b" stroke-width="3.5"/>
<text x="495" y="132" text-anchor="middle" font-size="21" fill="#b45309" font-weight="700">AWS</text>
<text x="495" y="160" text-anchor="middle" font-size="13" fill="#b45309" font-weight="400">サービスの幅</text>
<rect x="575" y="90" width="130" height="96" rx="16" fill="#dbeafe" stroke="#3b82f6" stroke-width="3.5"/>
<text x="640" y="132" text-anchor="middle" font-size="21" fill="#1d4ed8" font-weight="700">GCP</text>
<text x="640" y="160" text-anchor="middle" font-size="13" fill="#1d4ed8" font-weight="400">データ・AI</text>
<rect x="720" y="90" width="90" height="96" rx="16" fill="#ede9fe" stroke="#8b5cf6" stroke-width="3.5"/>
<text x="765" y="132" text-anchor="middle" font-size="17" fill="#6d28d9" font-weight="600">Azure</text>
<text x="765" y="160" text-anchor="middle" font-size="13" fill="#6d28d9" font-weight="400">企業IT</text>
</svg>
