<svg xmlns="http://www.w3.org/2000/svg" width="920" height="780" viewBox="0 0 920 780" font-family="'Hiragino Sans','Noto Sans JP','Yu Gothic','Segoe UI',sans-serif">
<defs><marker id="aR" viewBox="0 0 10 10" refX="8" refY="5" markerWidth="7" markerHeight="7" orient="auto-start-reverse"><path d="M0 1 L9 5 L0 9 z" fill="#475569"/></marker><marker id="aRsub" viewBox="0 0 10 10" refX="8" refY="5" markerWidth="7" markerHeight="7" orient="auto-start-reverse"><path d="M0 1 L9 5 L0 9 z" fill="#94a3b8"/></marker></defs>
<rect x="0" y="0" width="920" height="780" fill="#ffffff"/>
<line x1="460.0" y1="320.0" x2="460.0" y2="160.0" stroke="#475569" stroke-width="3.5" stroke-linecap="round" stroke-linejoin="round" marker-end="url(#aR)"/>
<text x="460.0" y="230.0" text-anchor="middle" font-size="13" fill="#0f172a" font-weight="400">構造化データを置く</text>
<svg x="420.0" y="42.0" width="80" height="80" viewBox="0 0 36 36"><path fill="#292F33" d="M30 34c0 1.104-.896 2-2 2H8c-1.104 0-2-.896-2-2V2c0-1.104.896-2 2-2h20c1.104 0 2 .896 2 2v32z"/><path fill="#66757F" d="M28 16c0 .552-.447 1-1 1H9c-.552 0-1-.448-1-1V3c0-.552.448-1 1-1h18c.553 0 1 .448 1 1v13zm0 17c0 .553-.447 1-1 1H9c-.552 0-1-.447-1-1V20c0-.553.448-1 1-1h18c.553 0 1 .447 1 1v13z"/><path fill="#292F33" d="M22 8c0 .552-.447 1-1 1h-6c-.552 0-1-.448-1-1V5c0-.552.448-1 1-1h6c.553 0 1 .448 1 1v3zm0 17c0 .553-.447 1-1 1h-6c-.552 0-1-.447-1-1v-3c0-.553.448-1 1-1h6c.553 0 1 .447 1 1v3z"/><path fill="#E1E8ED" d="M15 5h6v3h-6zm0 17h6v3h-6zm9-8.97c0 .536-.435.97-.97.97H12.97c-.536 0-.97-.435-.97-.97v-.06c0-.536.434-.97.97-.97h10.06c.535 0 .97.435.97.97v.06zm0 16.999c0 .536-.435.971-.97.971H12.97c-.536 0-.97-.435-.97-.971v-.059c0-.535.434-.97.97-.97h10.06c.535 0 .97.435.97.971v.058z"/></svg>
<text x="460.0" y="142.0" text-anchor="middle" font-size="21" fill="#0f172a" font-weight="700">D1</text>
<line x1="509.49747468305833" y1="340.50252531694167" x2="622.6345596729059" y2="227.3654403270941" stroke="#475569" stroke-width="3.5" stroke-linecap="round" stroke-linejoin="round" marker-end="url(#aR)"/>
<text x="566.0660171779821" y="273.93398282201787" text-anchor="middle" font-size="13" fill="#0f172a" font-weight="400">単純なキー値を置く</text>
<svg x="632.1320343559643" y="129.86796564403576" width="80" height="80" viewBox="0 0 36 36"><path fill="#292F33" d="M30 34c0 1.104-.896 2-2 2H8c-1.104 0-2-.896-2-2V2c0-1.104.896-2 2-2h20c1.104 0 2 .896 2 2v32z"/><path fill="#66757F" d="M28 16c0 .552-.447 1-1 1H9c-.552 0-1-.448-1-1V3c0-.552.448-1 1-1h18c.553 0 1 .448 1 1v13zm0 17c0 .553-.447 1-1 1H9c-.552 0-1-.447-1-1V20c0-.553.448-1 1-1h18c.553 0 1 .447 1 1v13z"/><path fill="#292F33" d="M22 8c0 .552-.447 1-1 1h-6c-.552 0-1-.448-1-1V5c0-.552.448-1 1-1h6c.553 0 1 .448 1 1v3zm0 17c0 .553-.447 1-1 1h-6c-.552 0-1-.447-1-1v-3c0-.553.448-1 1-1h6c.553 0 1 .447 1 1v3z"/><path fill="#E1E8ED" d="M15 5h6v3h-6zm0 17h6v3h-6zm9-8.97c0 .536-.435.97-.97.97H12.97c-.536 0-.97-.435-.97-.97v-.06c0-.536.434-.97.97-.97h10.06c.535 0 .97.435.97.97v.06zm0 16.999c0 .536-.435.971-.97.971H12.97c-.536 0-.97-.435-.97-.971v-.059c0-.535.434-.97.97-.97h10.06c.535 0 .97.435.97.971v.058z"/></svg>
<text x="672.1320343559643" y="229.86796564403576" text-anchor="middle" font-size="21" fill="#0f172a" font-weight="700">KV</text>
<line x1="530.0" y1="390.0" x2="690.0" y2="390.0" stroke="#475569" stroke-width="3.5" stroke-linecap="round" stroke-linejoin="round" marker-end="url(#aR)"/>
<text x="610.0" y="380.0" text-anchor="middle" font-size="13" fill="#0f172a" font-weight="400">ファイルを置く</text>
<svg x="720.0" y="342.0" width="80" height="80" viewBox="0 0 36 36"><path fill="#662113" d="M4 11v12.375c0 2.042 1.093 2.484 1.093 2.484l11.574 9.099C18.489 36.39 18 33.375 18 33.375V22L4 11z"/><path fill="#C1694F" d="M32 11v12.375c0 2.042-1.063 2.484-1.063 2.484s-9.767 7.667-11.588 9.099C17.526 36.39 18 33.375 18 33.375V22l14-11z"/><path fill="#D99E82" d="M19.289.5c-.753-.61-1.988-.61-2.742 0L4.565 10.029c-.754.61-.754 1.607 0 2.216l12.023 9.646c.754.609 1.989.609 2.743 0l12.104-9.73c.754-.609.754-1.606 0-2.216L19.289.5z"/><path fill="#D99E82" d="M18 35.75c-.552 0-1-.482-1-1.078V21.745c0-.596.448-1.078 1-1.078.553 0 1 .482 1 1.078v12.927c0 .596-.447 1.078-1 1.078z"/><path fill="#99AAB5" d="M28 18.836c0 1.104.104 1.646-1 2.442l-2.469 1.878c-1.104.797-1.531.113-1.531-.992v-2.961c0-.193-.026-.4-.278-.608C20.144 16.47 10.134 8.519 8.31 7.051l4.625-3.678c1.266.926 10.753 8.252 14.722 11.377.197.156.343.328.343.516v3.57z"/><path fill="#CCD6DD" d="M27.656 14.75C23.688 11.625 14.201 4.299 12.935 3.373l-1.721 1.368-2.904 2.31c1.825 1.468 11.834 9.419 14.412 11.544.151.125.217.25.248.371L27.903 15c-.06-.087-.146-.171-.247-.25z"/><path fill="#CCD6DD" d="M28 18.836v-3.57c0-.188-.146-.359-.344-.516-3.968-3.125-13.455-10.451-14.721-11.377l-2.073 1.649c3.393 2.669 12.481 9.681 14.86 11.573.256.204.278.415.278.608v4.836l1-.761c1.104-.797 1-1.338 1-2.442z"/><path fill="#E1E8ED" d="M27.656 14.75C23.688 11.625 14.201 4.299 12.935 3.373l-2.073 1.649c3.393 2.669 12.481 9.681 14.86 11.573.037.029.06.059.087.088L27.903 15c-.06-.087-.146-.171-.247-.25z"/></svg>
<text x="760.0" y="442.0" text-anchor="middle" font-size="21" fill="#0f172a" font-weight="700">R2</text>
<line x1="509.49747468305833" y1="439.49747468305833" x2="622.6345596729059" y2="552.6345596729059" stroke="#475569" stroke-width="3.5" stroke-linecap="round" stroke-linejoin="round" marker-end="url(#aR)"/>
<text x="566.0660171779821" y="486.0660171779821" text-anchor="middle" font-size="13" fill="#0f172a" font-weight="400">処理を自動で回す</text>
<svg x="632.1320343559643" y="554.1320343559643" width="80" height="80" viewBox="0 0 36 36"><path fill="#FFCC4D" d="M20 6.042c0 1.112-.903 2.014-2 2.014s-2-.902-2-2.014V2.014C16 .901 16.903 0 18 0s2 .901 2 2.014v4.028z"/><path fill="#FFAC33" d="M9.18 36c-.224 0-.452-.052-.666-.159-.736-.374-1.035-1.28-.667-2.027l8.94-18.127c.252-.512.768-.835 1.333-.835s1.081.323 1.333.835l8.941 18.127c.368.747.07 1.653-.666 2.027-.736.372-1.631.07-1.999-.676L18.121 19.74l-7.607 15.425c-.262.529-.788.835-1.334.835z"/><path fill="#58595B" d="M18.121 20.392c-.263 0-.516-.106-.702-.295L3.512 5.998c-.388-.394-.388-1.031 0-1.424s1.017-.393 1.404 0L18.121 17.96 31.324 4.573c.389-.393 1.017-.393 1.405 0 .388.394.388 1.031 0 1.424l-13.905 14.1c-.187.188-.439.295-.703.295z"/><path fill="#DD2E44" d="M34.015 19.385c0 8.898-7.115 16.111-15.894 16.111-8.777 0-15.893-7.213-15.893-16.111 0-8.9 7.116-16.113 15.893-16.113 8.778-.001 15.894 7.213 15.894 16.113z"/><path fill="#E6E7E8" d="M30.041 19.385c0 6.674-5.335 12.084-11.92 12.084-6.583 0-11.919-5.41-11.919-12.084C6.202 12.71 11.538 7.3 18.121 7.3c6.585-.001 11.92 5.41 11.92 12.085z"/><path fill="#FFCC4D" d="M30.04 1.257c-1.646 0-3.135.676-4.214 1.77l8.429 8.544C35.333 10.478 36 8.968 36 7.299c0-3.336-2.669-6.042-5.96-6.042zm-24.08 0c1.645 0 3.135.676 4.214 1.77l-8.429 8.544C.667 10.478 0 8.968 0 7.299c0-3.336 2.668-6.042 5.96-6.042z"/><path fill="#414042" d="M23 20h-5c-.552 0-1-.447-1-1v-9c0-.552.448-1 1-1s1 .448 1 1v8h4c.553 0 1 .448 1 1 0 .553-.447 1-1 1z"/></svg>
<text x="672.1320343559643" y="654.1320343559643" text-anchor="middle" font-size="21" fill="#0f172a" font-weight="700">Cron</text>
<line x1="460.0" y1="460.0" x2="460.0" y2="620.0" stroke="#475569" stroke-width="3.5" stroke-linecap="round" stroke-linejoin="round" marker-end="url(#aR)"/>
<text x="460.0" y="530.0" text-anchor="middle" font-size="13" fill="#0f172a" font-weight="400">見せる相手を絞る</text>
<svg x="420.0" y="642.0" width="80" height="80" viewBox="0 0 36 36"><path fill="#AAB8C2" d="M18 0C12.477 0 8 4.477 8 10v10h4V10a6 6 0 0 1 12 0v10h4V10c0-5.523-4.477-10-10-10Z"/><path fill="#FFAC33" d="M32 32a4 4 0 0 1-4 4H8a4 4 0 0 1-4-4V18a4 4 0 0 1 4-4h20a4 4 0 0 1 4 4v14Z"/></svg>
<text x="460.0" y="742.0" text-anchor="middle" font-size="21" fill="#0f172a" font-weight="700">Access</text>
<line x1="410.50252531694167" y1="439.49747468305833" x2="297.3654403270941" y2="552.6345596729059" stroke="#475569" stroke-width="3.5" stroke-linecap="round" stroke-linejoin="round" marker-end="url(#aR)"/>
<text x="353.9339828220179" y="486.0660171779821" text-anchor="middle" font-size="13" fill="#0f172a" font-weight="400">速く安く配信</text>
<svg x="207.86796564403576" y="554.1320343559643" width="80" height="80" viewBox="0 0 36 36"><path fill="#A0041E" d="M1 17l8-7 16 1 1 16-7 8s.001-5.999-6-12-12-6-12-6z"/><path fill="#FFAC33" d="M.973 35s-.036-7.979 2.985-11S15 21.187 15 21.187 14.999 29 11.999 32c-3 3-11.026 3-11.026 3z"/><circle fill="#FFCC4D" cx="8.999" cy="27" r="4"/><path fill="#55ACEE" d="M35.999 0s-10 0-22 10c-6 5-6 14-4 16s11 2 16-4c10-12 10-22 10-22z"/><path d="M26.999 5c-1.623 0-3.013.971-3.641 2.36.502-.227 1.055-.36 1.641-.36 2.209 0 4 1.791 4 4 0 .586-.133 1.139-.359 1.64 1.389-.627 2.359-2.017 2.359-3.64 0-2.209-1.791-4-4-4z"/><path fill="#A0041E" d="M8 28s0-4 1-5 13.001-10.999 14-10-9.001 13-10.001 14S8 28 8 28z"/></svg>
<text x="247.86796564403576" y="654.1320343559643" text-anchor="middle" font-size="21" fill="#0f172a" font-weight="700">Cache</text>
<line x1="390.0" y1="390.0" x2="230.0" y2="390.0" stroke="#475569" stroke-width="3.5" stroke-linecap="round" stroke-linejoin="round" marker-end="url(#aR)"/>
<text x="310.0" y="380.0" text-anchor="middle" font-size="13" fill="#0f172a" font-weight="400">賢い処理を足す</text>
<svg x="120.0" y="342.00000000000006" width="80" height="80" viewBox="0 0 36 36"><path fill="#FFD983" d="M29 11.06c0 6.439-5 7.439-5 13.44 0 3.098-3.123 3.359-5.5 3.359-2.053 0-6.586-.779-6.586-3.361C11.914 18.5 7 17.5 7 11.06 7 5.029 12.285.14 18.083.14 23.883.14 29 5.029 29 11.06z"/><path fill="#CCD6DD" d="M22.167 32.5c0 .828-2.234 2.5-4.167 2.5-1.933 0-4.167-1.672-4.167-2.5 0-.828 2.233-.5 4.167-.5 1.933 0 4.167-.328 4.167.5z"/><path fill="#FFCC4D" d="M22.707 10.293c-.391-.391-1.023-.391-1.414 0L18 13.586l-3.293-3.293c-.391-.391-1.023-.391-1.414 0s-.391 1.023 0 1.414L17 15.414V26c0 .553.448 1 1 1s1-.447 1-1V15.414l3.707-3.707c.391-.391.391-1.023 0-1.414z"/><path fill="#99AAB5" d="M24 31c0 1.104-.896 2-2 2h-8c-1.104 0-2-.896-2-2v-6h12v6z"/><path fill="#CCD6DD" d="M11.999 32c-.48 0-.904-.347-.985-.836-.091-.544.277-1.06.822-1.15l12-2c.544-.098 1.06.277 1.15.822.091.544-.277 1.06-.822 1.15l-12 2c-.055.01-.111.014-.165.014zm0-4c-.48 0-.904-.347-.985-.836-.091-.544.277-1.06.822-1.15l12-2c.544-.097 1.06.277 1.15.822.091.544-.277 1.06-.822 1.15l-12 2c-.055.01-.111.014-.165.014z"/></svg>
<text x="160.0" y="442.00000000000006" text-anchor="middle" font-size="21" fill="#0f172a" font-weight="700">Workers AI</text>
<line x1="410.50252531694167" y1="340.50252531694167" x2="297.365440327094" y2="227.3654403270941" stroke="#475569" stroke-width="3.5" stroke-linecap="round" stroke-linejoin="round" marker-end="url(#aR)"/>
<text x="353.9339828220178" y="273.93398282201787" text-anchor="middle" font-size="13" fill="#0f172a" font-weight="400">設定だけで済ませる</text>
<svg x="207.8679656440357" y="129.86796564403576" width="80" height="80" viewBox="0 0 36 36"><path fill="#66757F" d="M34 15h-3.362c-.324-1.369-.864-2.651-1.582-3.814l2.379-2.379c.781-.781.781-2.048 0-2.829l-1.414-1.414c-.781-.781-2.047-.781-2.828 0l-2.379 2.379C23.65 6.225 22.369 5.686 21 5.362V2c0-1.104-.896-2-2-2h-2c-1.104 0-2 .896-2 2v3.362c-1.369.324-2.651.864-3.814 1.582L8.808 4.565c-.781-.781-2.048-.781-2.828 0L4.565 5.979c-.781.781-.781 2.048-.001 2.829l2.379 2.379C6.225 12.35 5.686 13.632 5.362 15H2c-1.104 0-2 .896-2 2v2c0 1.104.896 2 2 2h3.362c.324 1.368.864 2.65 1.582 3.813l-2.379 2.379c-.78.78-.78 2.048.001 2.829l1.414 1.414c.78.78 2.047.78 2.828 0l2.379-2.379c1.163.719 2.445 1.258 3.814 1.582V34c0 1.104.896 2 2 2h2c1.104 0 2-.896 2-2v-3.362c1.368-.324 2.65-.864 3.813-1.582l2.379 2.379c.781.781 2.047.781 2.828 0l1.414-1.414c.781-.781.781-2.048 0-2.829l-2.379-2.379c.719-1.163 1.258-2.445 1.582-3.814H34c1.104 0 2-.896 2-2v-2C36 15.896 35.104 15 34 15zM18 26c-4.418 0-8-3.582-8-8s3.582-8 8-8 8 3.582 8 8-3.582 8-8 8z"/></svg>
<text x="247.8679656440357" y="229.86796564403576" text-anchor="middle" font-size="21" fill="#0f172a" font-weight="700">Snippets</text>
<svg x="420" y="342" width="80" height="80" viewBox="0 0 36 36"><path fill="#CCD6DD" d="M31 32c0 2.209-1.791 4-4 4H5c-2.209 0-4-1.791-4-4V4c0-2.209 1.791-4 4-4h22c2.209 0 4 1.791 4 4v28z"/><path fill="#99AAB5" d="M27 24c0 .553-.447 1-1 1H6c-.552 0-1-.447-1-1 0-.553.448-1 1-1h20c.553 0 1 .447 1 1zm-16 4c0 .553-.448 1-1 1H6c-.552 0-1-.447-1-1 0-.553.448-1 1-1h4c.552 0 1 .447 1 1zM27 8c0 .552-.447 1-1 1H6c-.552 0-1-.448-1-1s.448-1 1-1h20c.553 0 1 .448 1 1zm0 4c0 .553-.447 1-1 1H6c-.552 0-1-.447-1-1 0-.553.448-1 1-1h20c.553 0 1 .447 1 1zm0 4c0 .553-.447 1-1 1H6c-.552 0-1-.447-1-1 0-.553.448-1 1-1h20c.553 0 1 .447 1 1zm0 4c0 .553-.447 1-1 1H6c-.552 0-1-.447-1-1 0-.553.448-1 1-1h20c.553 0 1 .447 1 1z"/><path fill="#66757F" d="M31 6.272c-.827-.535-1.837-.579-2.521-.023l-.792.646-1.484 1.211-.1.08-2.376 1.938-11.878 9.686c-.437.357-.793 1.219-1.173 2.074-.378.85-.969 2.852-1.443 4.391-.148.25-1.065 1.846-.551 2.453.52.615 2.326.01 2.568-.076 1.626-.174 3.731-.373 4.648-.58.924-.211 1.854-.395 2.291-.752.008-.006.01-.018.017-.023l11.858-9.666.792-.646.144-.118V6.272z"/><path fill="#D99E82" d="M18.145 22.526s-1.274-1.881-2.117-2.553c-.672-.843-2.549-2.116-2.549-2.116-.448-.446-1.191-.48-1.629-.043-.437.438-.793 1.366-1.173 2.291-.472 1.146-1.276 4.154-1.768 5.752-.083.272.517-.45.503-.21-.01.187.027.394.074.581l-.146.159.208.067c.025.082.05.154.068.21l.159-.146c.187.047.394.084.58.074.24-.014-.483.587-.21.503 1.598-.493 4.607-1.296 5.752-1.768.924-.381 1.854-.736 2.291-1.174.439-.435.406-1.178-.043-1.627z"/><path fill="#EA596E" d="M25.312 4.351c-.876.875-.876 2.293 0 3.168l3.167 3.168c.876.874 2.294.874 3.168 0l3.169-3.168c.874-.875.874-2.293 0-3.168l-3.169-3.168c-.874-.875-2.292-.875-3.168 0l-3.167 3.168z"/><path fill="#FFCC4D" d="M11.849 17.815l3.17 3.17 3.165 3.166 11.881-11.879-6.337-6.336-11.879 11.879z"/><path fill="#292F33" d="M11.298 26.742s-2.06 1.133-2.616.576c-.557-.558.581-2.611.581-2.611s1.951.036 2.035 2.035z"/><path fill="#CCD6DD" d="M23.728 5.935l3.96-3.96 6.336 6.337-3.96 3.96z"/><path fill="#99AAB5" d="M26.103 3.558l.792-.792 6.336 6.335-.792.792zM24.52 5.142l.791-.791 6.336 6.335-.792.792z"/></svg>
<text x="460" y="442" text-anchor="middle" font-size="21" fill="#0f172a" font-weight="700">ひとことボード</text>
</svg>
