<svg xmlns="http://www.w3.org/2000/svg" width="760" height="470" viewBox="0 0 760 470" font-family="'Hiragino Sans','Noto Sans JP','Yu Gothic','Segoe UI',sans-serif">
<defs><marker id="aR" viewBox="0 0 10 10" refX="8" refY="5" markerWidth="7" markerHeight="7" orient="auto-start-reverse"><path d="M0 1 L9 5 L0 9 z" fill="#475569"/></marker><marker id="aRsub" viewBox="0 0 10 10" refX="8" refY="5" markerWidth="7" markerHeight="7" orient="auto-start-reverse"><path d="M0 1 L9 5 L0 9 z" fill="#94a3b8"/></marker></defs>
<rect x="0" y="0" width="760" height="470" fill="#ffffff"/>
<svg x="90" y="55" width="84" height="84" viewBox="0 0 36 36"><path fill="#292F33" d="M28 29c-2.999-.061-17.001-.061-20 0-6.412.131-5 7-5 7h30s1.412-6.869-5-7z"/><path fill="#99AAB5" d="M18.8 34.8L20 33l-2-1-2 1 1.2 1.8L10 33l2 3h12l2-3z"/><path fill="#FFDC5D" d="M14.269 29.479c1.466 1.065 2.964.98 3.672.98s2.194.085 3.66-.98v-5.664h-7.332v5.664z"/><path fill="#F9CA55" d="M14.264 25.179c1.022 1.155 2.29 1.468 3.668 1.468 1.379 0 2.647-.312 3.67-1.468v-2.936h-7.338v2.936z"/><path fill="#FFDC5D" d="M9.675 15.718c0-5.834 3.676-10.563 8.211-10.563 4.533 0 8.209 4.729 8.209 10.563 0 5.833-3.676 10.285-8.209 10.285-4.534 0-8.211-4.452-8.211-10.285"/><path fill="#FFAC33" d="M27 5c2 0 2.999 1 2.999 1-1-3-5-3-5-3C24.051.796 22.427.796 22.427.796c.872.69.882 1.638.882 1.638l-.05.009C21.991 1.628 19.035.281 14 1c0 0 2 0 3 1 0 0-7-1-10 4 0 0 1.47-1.455 3.775-1.248-1.703 1.097-3.092 2.905-3.366 5.031-.443 3.437.545 5.032.896 7.616.398 2.928 2.044 3.864 3.36 4.256 1.893 2.501 3.906 2.394 7.285 2.394 4.715 0 7.657-2.264 9.059-6.287.491.734.436 1.288.436 1.288s1.329-3.788 1-8C29.117 6.839 27 5 27 5z"/><path fill="#FFDC5D" d="M25.464 12.456c-.639-.884-1.456-1.596-3.248-1.848.672.308 1.316 1.372 1.4 1.96.084.588.168 1.064-.364.476-2.131-2.356-4.452-1.428-6.753-2.867-1.607-1.005-2.096-2.117-2.096-2.117s-.196 1.484-2.632 2.996c-.706.438-1.549 1.415-2.016 2.856-.336 1.036-.232 1.96-.232 3.539 0 4.609 3.799 8.485 8.485 8.485s8.485-3.909 8.485-8.485c-.001-2.867-.301-3.987-1.029-4.995z"/><path fill="#BE1931" d="M31.647 28.5c-.788-1.299-4.892-1.5-7.81-1.5-.973 0-2.919 1.851-5.837 1.851S13.136 27 12.163 27c-2.919 0-7.022.201-7.81 1.5-1.457 2.4 1.945 3.5 3.89 3.5 1.946 0 5.644-1 9.757-1s7.811 1 9.757 1c1.945 0 5.347-1.1 3.89-3.5z"/><path fill="#99AAB5" d="M9.385 26.228c.362-.058 1.368 1.423 1.344 1.714-.024.291-2.196.478-2.331.248-.136-.23.625-1.904.987-1.962zm-4.538 3.303c.214.332 3.412-.078 3.43-.51.018-.431-1.679-2.47-2.21-2.362-.53.109-1.433 2.54-1.22 2.872zm22.746-1.341c-.135.23-2.307.043-2.331-.248-.024-.291.982-1.772 1.344-1.714.361.058 1.123 1.732.987 1.962zm2.33-1.53c-.531-.108-2.228 1.93-2.21 2.362.018.431 3.217.842 3.43.51.214-.333-.69-2.764-1.22-2.872z"/><path fill="#BE1931" d="M18 13l5-1 1-2 2 2-1 3 1 2-2 2-1 2-1-2-4-2-4 2-1 2-1-2-2-2 1-2-1-3 2-2 1 2z"/><path d="M15.769 16c0 .465-.381.846-.847.846h-.845c-.465 0-.846-.381-.846-.846 0-.466.381-.847.846-.847h.845c.466.001.847.382.847.847m7 0c0-.465-.381-.846-.847-.846h-.845c-.465 0-.846.381-.846.846 0 .465.381.846.846.846h.845c.466 0 .847-.381.847-.846"/><path fill="#C1694F" d="M20.834 21.622c-.692.301-1.978.821-3.109.821H15.5c-.275 0-.5.225-.5.5s.225.5.5.5h4.204c.006 0 .007-.003.013-.003l.068.003c.581 0 1.016-.629 1.252-1.134.282-.606.261-.889-.203-.687zM18.777 20.5h-1.69c-.233 0-.423-.19-.423-.423v-.153c0-.233.189-.424.423-.424h1.69c.233 0 .424.19.424.424v.153c0 .233-.19.423-.424.423"/></svg>
<text x="132" y="168" text-anchor="middle" font-size="21" fill="#0f172a" font-weight="700">攻撃者（悪人）</text>
<svg x="560" y="55" width="84" height="84" viewBox="0 0 36 36"><path fill="#CCD6DD" d="M36 22c0 2.209-1.791 4-4 4H4c-2.209 0-4-1.791-4-4V4c0-2.209 1.791-4 4-4h28c2.209 0 4 1.791 4 4v18z"/><path fill="#5DADEC" d="M4 4h28v18H4z"/><path fill="#CCD6DD" d="M13 26h10v6H13z"/><path fill="#9AAAB4" d="M13 26h10v2H13z"/><path fill="#E1E8ED" d="M36 33c0-1.657-1.343-3-3-3H3c-1.657 0-3 1.343-3 3s1.343 3 3 3h30c1.657 0 3-1.343 3-3z"/><path fill="#F5F8FA" d="M3 32h2v2H3zm4 0h2v2H7zm4 0h2v2h-2zm4 0h2v2h-2zm4 0h2v2h-2zm4 0h2v2h-2zm4 0h2v2h-2zm4 0h2v2h-2z"/></svg>
<text x="602" y="168" text-anchor="middle" font-size="21" fill="#0f172a" font-weight="700">あなたのサーバー</text>
<line x1="240" y1="95" x2="545" y2="95" stroke="#475569" stroke-width="3.5" stroke-linecap="round" stroke-linejoin="round" marker-end="url(#aR)"/>
<text x="392.5" y="85.0" text-anchor="middle" font-size="17" fill="#0f172a" font-weight="600">攻撃</text>
<svg x="372" y="40" width="40" height="40" viewBox="0 0 36 36"><path fill="#FFAC33" d="M32.938 15.651C32.792 15.26 32.418 15 32 15H19.925L26.89 1.458c.219-.426.106-.947-.271-1.243C26.437.071 26.218 0 26 0c-.233 0-.466.082-.653.243L18 6.588 3.347 19.243c-.316.273-.43.714-.284 1.105S3.582 21 4 21h12.075L9.11 34.542c-.219.426-.106.947.271 1.243.182.144.401.215.619.215.233 0 .466-.082.653-.243L18 29.412l14.653-12.655c.317-.273.43-.714.285-1.106z"/></svg>
<text x="380" y="232" text-anchor="middle" font-size="26" fill="#b91c1c" font-weight="700">攻撃の目的</text>
<rect x="32.0" y="262" width="156" height="156" rx="16" fill="#ede9fe" stroke="#8b5cf6" stroke-width="3.5"/>
<svg x="76" y="282" width="68" height="68" viewBox="0 0 36 36"><path fill="#269" d="M0 29c0 2.209 1.791 4 4 4h24c2.209 0 4-1.791 4-4V12c0-2.209-1.791-4-4-4h-9c-3.562 0-3-5-8.438-5H4C1.791 3 0 4.791 0 7v22z"/><path fill="#55ACEE" d="M32.336 12h-6.562c-5.438 0-5.383 5-8.945 5h-9c-2.209 0-4.182 1.791-4.406 4l-.493 3.874L2.406 29l-.02-.002c-.116.607-.672.999-1.3.999-.643 0-1.106-.507-1.074-1.144C.01 28.903 0 28.95 0 29c0 2.004 1.478 3.648 3.4 3.939.177.038.371.061.6.061h26c2.209 0 4.182-1.791 4.406-4l1.523-13c.225-2.209-1.384-4-3.593-4z"/></svg>
<text x="110" y="374" text-anchor="middle" font-size="17" fill="#475569" font-weight="600">データの</text>
<text x="110" y="398" text-anchor="middle" font-size="17" fill="#475569" font-weight="600">窃取</text>
<rect x="215.0" y="262" width="156" height="156" rx="16" fill="#ffedd5" stroke="#f97316" stroke-width="3.5"/>
<svg x="259" y="282" width="68" height="68" viewBox="0 0 36 36"><path fill="#BE1931" d="M36 18c0 9.941-8.059 18-18 18S0 27.941 0 18 8.059 0 18 0s18 8.059 18 18z"/><path fill="#FFF" d="M32 20c0 1.104-.896 2-2 2H6c-1.104 0-2-.896-2-2v-4c0-1.104.896-2 2-2h24c1.104 0 2 .896 2 2v4z"/></svg>
<text x="293" y="374" text-anchor="middle" font-size="17" fill="#475569" font-weight="600">サービス</text>
<text x="293" y="398" text-anchor="middle" font-size="17" fill="#475569" font-weight="600">停止</text>
<rect x="398.0" y="262" width="156" height="156" rx="16" fill="#fee2e2" stroke="#ef4444" stroke-width="3.5"/>
<svg x="442" y="282" width="68" height="68" viewBox="0 0 36 36"><path fill="#D99E82" d="M35.222 33.598c-.647-2.101-1.705-6.059-2.325-7.566-.501-1.216-.969-2.438-1.544-3.014-.575-.575-1.553-.53-2.143.058 0 0-2.469 1.675-3.354 2.783-1.108.882-2.785 3.357-2.785 3.357-.59.59-.635 1.567-.06 2.143.576.575 1.798 1.043 3.015 1.544 1.506.62 5.465 1.676 7.566 2.325.359.11 1.74-1.271 1.63-1.63z"/><path fill="#EA596E" d="M13.643 5.308c1.151 1.151 1.151 3.016 0 4.167l-4.167 4.168c-1.151 1.15-3.018 1.15-4.167 0L1.141 9.475c-1.15-1.151-1.15-3.016 0-4.167l4.167-4.167c1.15-1.151 3.016-1.151 4.167 0l4.168 4.167z"/><path fill="#FFCC4D" d="M31.353 23.018l-4.17 4.17-4.163 4.165L7.392 15.726l8.335-8.334 15.626 15.626z"/><path fill="#292F33" d="M32.078 34.763s2.709 1.489 3.441.757c.732-.732-.765-3.435-.765-3.435s-2.566.048-2.676 2.678z"/><path fill="#CCD6DD" d="M2.183 10.517l8.335-8.335 5.208 5.209-8.334 8.335z"/><path fill="#99AAB5" d="M3.225 11.558l8.334-8.334 1.042 1.042L4.267 12.6zm2.083 2.086l8.335-8.335 1.042 1.042-8.335 8.334z"/></svg>
<text x="476" y="374" text-anchor="middle" font-size="17" fill="#475569" font-weight="600">Webサイトの</text>
<text x="476" y="398" text-anchor="middle" font-size="17" fill="#475569" font-weight="600">改ざん</text>
<rect x="581.0" y="262" width="156" height="156" rx="16" fill="#fef9c3" stroke="#f59e0b" stroke-width="3.5"/>
<svg x="625" y="282" width="68" height="68" viewBox="0 0 36 36"><path fill="#FDD888" d="M31.898 23.938C31.3 17.32 28 14 28 14l-6-8h-8l-6 8s-1.419 1.433-2.567 4.275C3.444 18.935 2 20.789 2 23c0 1.448.625 2.742 1.609 3.655C3.233 27.357 3 28.147 3 29c0 1.958 1.136 3.636 2.775 4.456C7.058 35.378 8.772 36 10 36h16c1.379 0 3.373-.779 4.678-3.31C32.609 31.999 34 30.17 34 28c0-1.678-.834-3.154-2.102-4.062zM18 6c.55 0 1.058-.158 1.5-.416.443.258.951.416 1.5.416 1.657 0 4-2.344 4-4 0 0 0-2-2-2-.788 0-1 1-2 1s-1-1-3-1-2 1-3 1-1.211-1-2-1c-2 0-2 2-2 2 0 1.656 2.344 4 4 4 .549 0 1.057-.158 1.5-.416.443.258.951.416 1.5.416z"/><path fill="#BF6952" d="M24 6c0 .552-.447 1-1 1H13c-.552 0-1-.448-1-1s.448-1 1-1h10c.553 0 1 .448 1 1z"/><path fill="#67757F" d="M23.901 24.542c0-4.477-8.581-4.185-8.581-6.886 0-1.308 1.301-1.947 2.811-1.947 2.538 0 2.99 1.569 4.139 1.569.813 0 1.205-.493 1.205-1.046 0-1.284-2.024-2.256-3.965-2.592V12.4c0-.773-.65-1.4-1.454-1.4-.805 0-1.456.627-1.456 1.4v1.283c-2.116.463-3.937 1.875-3.937 4.176 0 4.299 8.579 4.125 8.579 7.145 0 1.047-1.178 2.093-3.111 2.093-2.901 0-3.867-1.889-5.045-1.889-.574 0-1.087.464-1.087 1.164 0 1.113 1.938 2.451 4.603 2.824l-.001.01v1.398c0 .772.652 1.4 1.456 1.4.804 0 1.455-.628 1.455-1.4v-1.398c0-.017-.008-.03-.009-.045 2.398-.43 4.398-1.932 4.398-4.619z"/></svg>
<text x="659" y="374" text-anchor="middle" font-size="17" fill="#475569" font-weight="600">金銭の</text>
<text x="659" y="398" text-anchor="middle" font-size="17" fill="#475569" font-weight="600">要求</text>
</svg>
