<svg xmlns="http://www.w3.org/2000/svg" width="920" height="540" viewBox="0 0 920 540" font-family="'Hiragino Sans','Noto Sans JP','Yu Gothic','Segoe UI',sans-serif">
<defs><marker id="aR" viewBox="0 0 10 10" refX="8" refY="5" markerWidth="7" markerHeight="7" orient="auto-start-reverse"><path d="M0 1 L9 5 L0 9 z" fill="#475569"/></marker><marker id="aRsub" viewBox="0 0 10 10" refX="8" refY="5" markerWidth="7" markerHeight="7" orient="auto-start-reverse"><path d="M0 1 L9 5 L0 9 z" fill="#94a3b8"/></marker></defs>
<rect x="0" y="0" width="920" height="540" fill="#ffffff"/>
<polygon points="460.0,50 550,105.0 460.0,160 370,105.0" fill="#f1f5f9" stroke="#94a3b8" stroke-width="3.5"/>
<text x="460" y="95" text-anchor="middle" font-size="21" fill="#475569" font-weight="700">値を</text>
<text x="460" y="122" text-anchor="middle" font-size="21" fill="#475569" font-weight="700">どう扱う？</text>
<line x1="380" y1="135" x2="250" y2="250" stroke="#475569" stroke-width="3.5" stroke-linecap="round" stroke-linejoin="round" marker-end="url(#aR)"/>
<text x="315.0" y="188.5" text-anchor="middle" font-size="17" fill="#0f172a" font-weight="600">秘密の値</text>
<rect x="40" y="250" width="380" height="250" rx="16" fill="#fee2e2" stroke="#ef4444" stroke-width="3.5"/>
<svg x="70" y="270" width="52" height="52" viewBox="0 0 36 36"><path fill="#AAB8C2" d="M18 0C12.477 0 8 4.477 8 10v10h4V10a6 6 0 0 1 12 0v10h4V10c0-5.523-4.477-10-10-10Z"/><path fill="#FFAC33" d="M32 32a4 4 0 0 1-4 4H8a4 4 0 0 1-4-4V18a4 4 0 0 1 4-4h20a4 4 0 0 1 4 4v14Z"/></svg>
<text x="290" y="300" text-anchor="middle" font-size="21" fill="#b91c1c" font-weight="700">暗号化シークレット</text>
<svg x="70" y="345" width="44" height="44" viewBox="0 0 36 36"><path fill="#C1694F" d="M32.614 3.414C28.31-.89 21.332-.89 17.027 3.414c-3.391 3.392-4.098 8.439-2.144 12.535l-3.916 3.915c-.64.641-.841 1.543-.625 2.359l-1.973 1.972c-.479-.48-1.252-.48-1.731 0l-1.731 1.732c-.479.479-.479 1.253 0 1.732l-.867.864c-.479-.478-1.253-.478-1.731 0l-.866.867c-.479.479-.479 1.253 0 1.732.015.016.036.02.051.033-.794 1.189-.668 2.812.382 3.863 1.195 1.195 3.134 1.195 4.329 0L20.08 21.144c4.097 1.955 9.144 1.247 12.535-2.146 4.302-4.302 4.302-11.28-.001-15.584zm-1.731 5.195c-.957.956-2.509.956-3.464 0-.956-.956-.956-2.507 0-3.464.955-.956 2.507-.956 3.464 0 .956.957.956 2.508 0 3.464z"/></svg>
<text x="280" y="375" text-anchor="middle" font-size="17" fill="#b91c1c" font-weight="600">APIキー・パスワード</text>
<text x="230" y="425" text-anchor="middle" font-size="15" fill="#b91c1c" font-weight="400">wrangler secret put で投入</text>
<text x="230" y="460" text-anchor="middle" font-size="15" fill="#b91c1c" font-weight="400">Git には入れない</text>
<line x1="540" y1="135" x2="670" y2="250" stroke="#475569" stroke-width="3.5" stroke-linecap="round" stroke-linejoin="round" marker-end="url(#aR)"/>
<text x="605.0" y="188.5" text-anchor="middle" font-size="17" fill="#0f172a" font-weight="600">公開してよい設定</text>
<rect x="500" y="250" width="380" height="250" rx="16" fill="#dcfce7" stroke="#22c55e" stroke-width="3.5"/>
<svg x="530" y="270" width="52" height="52" viewBox="0 0 36 36"><path fill="#CCD6DD" d="M31 32c0 2.209-1.791 4-4 4H5c-2.209 0-4-1.791-4-4V4c0-2.209 1.791-4 4-4h22c2.209 0 4 1.791 4 4v28z"/><path fill="#99AAB5" d="M27 24c0 .553-.447 1-1 1H6c-.552 0-1-.447-1-1 0-.553.448-1 1-1h20c.553 0 1 .447 1 1zm-16 4c0 .553-.448 1-1 1H6c-.552 0-1-.447-1-1 0-.553.448-1 1-1h4c.552 0 1 .447 1 1zM27 8c0 .552-.447 1-1 1H6c-.552 0-1-.448-1-1s.448-1 1-1h20c.553 0 1 .448 1 1zm0 4c0 .553-.447 1-1 1H6c-.552 0-1-.447-1-1 0-.553.448-1 1-1h20c.553 0 1 .447 1 1zm0 4c0 .553-.447 1-1 1H6c-.552 0-1-.447-1-1 0-.553.448-1 1-1h20c.553 0 1 .447 1 1zm0 4c0 .553-.447 1-1 1H6c-.552 0-1-.447-1-1 0-.553.448-1 1-1h20c.553 0 1 .447 1 1z"/><path fill="#66757F" d="M31 6.272c-.827-.535-1.837-.579-2.521-.023l-.792.646-1.484 1.211-.1.08-2.376 1.938-11.878 9.686c-.437.357-.793 1.219-1.173 2.074-.378.85-.969 2.852-1.443 4.391-.148.25-1.065 1.846-.551 2.453.52.615 2.326.01 2.568-.076 1.626-.174 3.731-.373 4.648-.58.924-.211 1.854-.395 2.291-.752.008-.006.01-.018.017-.023l11.858-9.666.792-.646.144-.118V6.272z"/><path fill="#D99E82" d="M18.145 22.526s-1.274-1.881-2.117-2.553c-.672-.843-2.549-2.116-2.549-2.116-.448-.446-1.191-.48-1.629-.043-.437.438-.793 1.366-1.173 2.291-.472 1.146-1.276 4.154-1.768 5.752-.083.272.517-.45.503-.21-.01.187.027.394.074.581l-.146.159.208.067c.025.082.05.154.068.21l.159-.146c.187.047.394.084.58.074.24-.014-.483.587-.21.503 1.598-.493 4.607-1.296 5.752-1.768.924-.381 1.854-.736 2.291-1.174.439-.435.406-1.178-.043-1.627z"/><path fill="#EA596E" d="M25.312 4.351c-.876.875-.876 2.293 0 3.168l3.167 3.168c.876.874 2.294.874 3.168 0l3.169-3.168c.874-.875.874-2.293 0-3.168l-3.169-3.168c-.874-.875-2.292-.875-3.168 0l-3.167 3.168z"/><path fill="#FFCC4D" d="M11.849 17.815l3.17 3.17 3.165 3.166 11.881-11.879-6.337-6.336-11.879 11.879z"/><path fill="#292F33" d="M11.298 26.742s-2.06 1.133-2.616.576c-.557-.558.581-2.611.581-2.611s1.951.036 2.035 2.035z"/><path fill="#CCD6DD" d="M23.728 5.935l3.96-3.96 6.336 6.337-3.96 3.96z"/><path fill="#99AAB5" d="M26.103 3.558l.792-.792 6.336 6.335-.792.792zM24.52 5.142l.791-.791 6.336 6.335-.792.792z"/></svg>
<text x="740" y="300" text-anchor="middle" font-size="21" fill="#15803d" font-weight="700">vars（平文の設定値）</text>
<text x="710" y="375" text-anchor="middle" font-size="17" fill="#15803d" font-weight="600">表示名・公開URL</text>
<text x="700" y="425" text-anchor="middle" font-size="15" fill="#15803d" font-weight="400">wrangler.jsonc に平書き</text>
<svg x="535" y="445" width="36" height="36" viewBox="0 0 36 36"><path fill="#77B255" d="M36 32c0 2.209-1.791 4-4 4H4c-2.209 0-4-1.791-4-4V4c0-2.209 1.791-4 4-4h28c2.209 0 4 1.791 4 4v28z"/><path fill="#FFF" d="M29.28 6.362c-1.156-.751-2.704-.422-3.458.736L14.936 23.877l-5.029-4.65c-1.014-.938-2.596-.875-3.533.138-.937 1.014-.875 2.596.139 3.533l7.209 6.666c.48.445 1.09.665 1.696.665.673 0 1.534-.282 2.099-1.139.332-.506 12.5-19.27 12.5-19.27.751-1.159.421-2.707-.737-3.458z"/></svg>
<text x="720" y="468" text-anchor="middle" font-size="15" fill="#15803d" font-weight="400">Git に入れてよい</text>
</svg>
