<svg xmlns="http://www.w3.org/2000/svg" width="660" height="520" viewBox="0 0 660 520" font-family="'Hiragino Sans','Noto Sans JP','Yu Gothic','Segoe UI',sans-serif">
<defs><marker id="aR" viewBox="0 0 10 10" refX="8" refY="5" markerWidth="7" markerHeight="7" orient="auto-start-reverse"><path d="M0 1 L9 5 L0 9 z" fill="#475569"/></marker><marker id="aRsub" viewBox="0 0 10 10" refX="8" refY="5" markerWidth="7" markerHeight="7" orient="auto-start-reverse"><path d="M0 1 L9 5 L0 9 z" fill="#94a3b8"/></marker></defs>
<rect x="0" y="0" width="660" height="520" fill="#ffffff"/>
<line x1="330" y1="285" x2="330" y2="110" stroke="#cbd5e1" stroke-width="3" stroke-linecap="round"/>
<line x1="330" y1="285" x2="150" y2="430" stroke="#cbd5e1" stroke-width="3" stroke-linecap="round"/>
<line x1="330" y1="285" x2="510" y2="430" stroke="#cbd5e1" stroke-width="3" stroke-linecap="round"/>
<line x1="330" y1="110" x2="150" y2="430" stroke="#cbd5e1" stroke-width="2" stroke-dasharray="6 6"/>
<line x1="150" y1="430" x2="510" y2="430" stroke="#cbd5e1" stroke-width="2" stroke-dasharray="6 6"/>
<line x1="510" y1="430" x2="330" y2="110" stroke="#cbd5e1" stroke-width="2" stroke-dasharray="6 6"/>
<svg x="290" y="237" width="80" height="80" viewBox="0 0 36 36"><path fill="#662113" d="M4 11v12.375c0 2.042 1.093 2.484 1.093 2.484l11.574 9.099C18.489 36.39 18 33.375 18 33.375V22L4 11z"/><path fill="#C1694F" d="M32 11v12.375c0 2.042-1.063 2.484-1.063 2.484s-9.767 7.667-11.588 9.099C17.526 36.39 18 33.375 18 33.375V22l14-11z"/><path fill="#D99E82" d="M19.289.5c-.753-.61-1.988-.61-2.742 0L4.565 10.029c-.754.61-.754 1.607 0 2.216l12.023 9.646c.754.609 1.989.609 2.743 0l12.104-9.73c.754-.609.754-1.606 0-2.216L19.289.5z"/><path fill="#D99E82" d="M18 35.75c-.552 0-1-.482-1-1.078V21.745c0-.596.448-1.078 1-1.078.553 0 1 .482 1 1.078v12.927c0 .596-.447 1.078-1 1.078z"/><path fill="#99AAB5" d="M28 18.836c0 1.104.104 1.646-1 2.442l-2.469 1.878c-1.104.797-1.531.113-1.531-.992v-2.961c0-.193-.026-.4-.278-.608C20.144 16.47 10.134 8.519 8.31 7.051l4.625-3.678c1.266.926 10.753 8.252 14.722 11.377.197.156.343.328.343.516v3.57z"/><path fill="#CCD6DD" d="M27.656 14.75C23.688 11.625 14.201 4.299 12.935 3.373l-1.721 1.368-2.904 2.31c1.825 1.468 11.834 9.419 14.412 11.544.151.125.217.25.248.371L27.903 15c-.06-.087-.146-.171-.247-.25z"/><path fill="#CCD6DD" d="M28 18.836v-3.57c0-.188-.146-.359-.344-.516-3.968-3.125-13.455-10.451-14.721-11.377l-2.073 1.649c3.393 2.669 12.481 9.681 14.86 11.573.256.204.278.415.278.608v4.836l1-.761c1.104-.797 1-1.338 1-2.442z"/><path fill="#E1E8ED" d="M27.656 14.75C23.688 11.625 14.201 4.299 12.935 3.373l-2.073 1.649c3.393 2.669 12.481 9.681 14.86 11.573.037.029.06.059.087.088L27.903 15c-.06-.087-.146-.171-.247-.25z"/></svg>
<text x="330" y="337" text-anchor="middle" font-size="21" fill="#0f172a" font-weight="700">あなたのアプリ／データ</text>
<svg x="290" y="62" width="80" height="80" viewBox="0 0 36 36"><path fill="#AAB8C2" d="M18 0C12.477 0 8 4.477 8 10v10h4V10a6 6 0 0 1 12 0v10h4V10c0-5.523-4.477-10-10-10Z"/><path fill="#FFAC33" d="M32 32a4 4 0 0 1-4 4H8a4 4 0 0 1-4-4V18a4 4 0 0 1 4-4h20a4 4 0 0 1 4 4v14Z"/></svg>
<text x="330" y="162" text-anchor="middle" font-size="21" fill="#0f172a" font-weight="700">機密性（見てよい人だけ）</text>
<svg x="110" y="382" width="80" height="80" viewBox="0 0 36 36"><path fill="#CCD6DD" d="M33 3c-7-3-15-3-15-3S10 0 3 3C0 18 3 31 18 36c15-5 18-18 15-33z"/><path fill="#55ACEE" d="M18 33.884C6.412 29.729 1.961 19.831 4.76 4.444 11.063 2.029 17.928 2 18 2c.071 0 6.958.04 13.24 2.444 2.799 15.387-1.652 25.285-13.24 29.44z"/><path fill="#269" d="M31.24 4.444C24.958 2.04 18.071 2 18 2v31.884c11.588-4.155 16.039-14.053 13.24-29.44z"/></svg>
<text x="150" y="482" text-anchor="middle" font-size="21" fill="#0f172a" font-weight="700">完全性（中身が正しい）</text>
<svg x="470" y="382" width="80" height="80" viewBox="0 0 36 36"><path fill="#292F33" d="M16 5h4v3h-4z"/><path fill="#8899A6" d="M22 1h-8c-1.1 0-2 .9-2 2s.9 2 2 2h8c1.1 0 2-.9 2-2s-.9-2-2-2zm6.184 10.507l-1.504-1.318c-.827-.725-.911-1.995-.186-2.822.725-.827 1.995-.911 2.822-.186l1.504 1.318c.827.725.911 1.995.186 2.822-.725.827-1.995.911-2.822.186z"/><circle fill="#F5F8FA" cx="18" cy="21" r="11"/><path fill="#66757F" d="M18 7C10.268 7 4 13.268 4 21s6.268 14 14 14 14-6.268 14-14S25.732 7 18 7zm0 25c-6.065 0-11-4.935-11-11s4.935-11 11-11 11 4.935 11 11-4.935 11-11 11z"/><path fill="#292F33" d="M27 22H17c-.552 0-1-.447-1-1s.448-1 1-1h10c.553 0 1 .447 1 1s-.447 1-1 1z"/><circle fill="#292F33" cx="18" cy="12" r="1"/><circle fill="#292F33" cx="18" cy="30" r="1"/><circle fill="#292F33" cx="12" cy="15" r="1"/><circle fill="#292F33" cx="24" cy="27" r="1"/><circle fill="#292F33" cx="9" cy="21" r="1"/><circle fill="#292F33" cx="24" cy="15" r="1"/><path fill="#DD2E44" d="M12 28c-.256 0-.512-.098-.707-.293-.391-.391-.391-1.023 0-1.414l7-7c.391-.391 1.023-.391 1.414 0s.391 1.023 0 1.414l-7 7c-.195.195-.451.293-.707.293z"/></svg>
<text x="510" y="482" text-anchor="middle" font-size="21" fill="#0f172a" font-weight="700">可用性（いつでも使える）</text>
</svg>
