<svg xmlns="http://www.w3.org/2000/svg" width="760" height="330" viewBox="0 0 760 330" font-family="'Hiragino Sans','Noto Sans JP','Yu Gothic','Segoe UI',sans-serif">
<defs><marker id="aR" viewBox="0 0 10 10" refX="8" refY="5" markerWidth="7" markerHeight="7" orient="auto-start-reverse"><path d="M0 1 L9 5 L0 9 z" fill="#475569"/></marker><marker id="aRsub" viewBox="0 0 10 10" refX="8" refY="5" markerWidth="7" markerHeight="7" orient="auto-start-reverse"><path d="M0 1 L9 5 L0 9 z" fill="#94a3b8"/></marker></defs>
<rect x="0" y="0" width="760" height="330" fill="#ffffff"/>
<polygon points="380.0,180.0 438,246.0 322,246.0" fill="#f1f5f9" stroke="#94a3b8" stroke-width="3.5"/>
<line x1="150" y1="150" x2="610" y2="210" stroke="#4b5563" stroke-width="10" stroke-linecap="round"/>
<rect x="80" y="58" width="140" height="74" rx="16" fill="#ffedd5" stroke="#f97316" stroke-width="3.5"/>
<svg x="118" y="62" width="58" height="58" viewBox="0 0 36 36"><path fill="#292F33" d="M16 5h4v3h-4z"/><path fill="#8899A6" d="M22 1h-8c-1.1 0-2 .9-2 2s.9 2 2 2h8c1.1 0 2-.9 2-2s-.9-2-2-2zm6.184 10.507l-1.504-1.318c-.827-.725-.911-1.995-.186-2.822.725-.827 1.995-.911 2.822-.186l1.504 1.318c.827.725.911 1.995.186 2.822-.725.827-1.995.911-2.822.186z"/><circle fill="#F5F8FA" cx="18" cy="21" r="11"/><path fill="#66757F" d="M18 7C10.268 7 4 13.268 4 21s6.268 14 14 14 14-6.268 14-14S25.732 7 18 7zm0 25c-6.065 0-11-4.935-11-11s4.935-11 11-11 11 4.935 11 11-4.935 11-11 11z"/><path fill="#292F33" d="M27 22H17c-.552 0-1-.447-1-1s.448-1 1-1h10c.553 0 1 .447 1 1s-.447 1-1 1z"/><circle fill="#292F33" cx="18" cy="12" r="1"/><circle fill="#292F33" cx="18" cy="30" r="1"/><circle fill="#292F33" cx="12" cy="15" r="1"/><circle fill="#292F33" cx="24" cy="27" r="1"/><circle fill="#292F33" cx="9" cy="21" r="1"/><circle fill="#292F33" cx="24" cy="15" r="1"/><path fill="#DD2E44" d="M12 28c-.256 0-.512-.098-.707-.293-.391-.391-.391-1.023 0-1.414l7-7c.391-.391 1.023-.391 1.414 0s.391 1.023 0 1.414l-7 7c-.195.195-.451.293-.707.293z"/></svg>
<text x="150" y="42" text-anchor="middle" font-size="15" fill="#15803d" font-weight="400">強くする ↑</text>
<text x="150" y="184" text-anchor="middle" font-size="21" fill="#0f172a" font-weight="700">可用性</text>
<rect x="540" y="206" width="140" height="74" rx="16" fill="#fee2e2" stroke="#ef4444" stroke-width="3.5"/>
<svg x="578" y="210" width="58" height="58" viewBox="0 0 36 36"><path fill="#AAB8C2" d="M18 0C12.477 0 8 4.477 8 10v10h4V10a6 6 0 0 1 12 0v10h4V10c0-5.523-4.477-10-10-10Z"/><path fill="#FFAC33" d="M32 32a4 4 0 0 1-4 4H8a4 4 0 0 1-4-4V18a4 4 0 0 1 4-4h20a4 4 0 0 1 4 4v14Z"/></svg>
<text x="610" y="186" text-anchor="middle" font-size="15" fill="#b91c1c" font-weight="400">下がる ↓</text>
<text x="610" y="306" text-anchor="middle" font-size="21" fill="#0f172a" font-weight="700">機密性・完全性</text>
</svg>
