<svg xmlns="http://www.w3.org/2000/svg" width="820" height="360" viewBox="0 0 820 360" font-family="'Hiragino Sans','Noto Sans JP','Yu Gothic','Segoe UI',sans-serif">
<defs><marker id="aR" viewBox="0 0 10 10" refX="8" refY="5" markerWidth="7" markerHeight="7" orient="auto-start-reverse"><path d="M0 1 L9 5 L0 9 z" fill="#475569"/></marker><marker id="aRsub" viewBox="0 0 10 10" refX="8" refY="5" markerWidth="7" markerHeight="7" orient="auto-start-reverse"><path d="M0 1 L9 5 L0 9 z" fill="#94a3b8"/></marker></defs>
<rect x="0" y="0" width="820" height="360" fill="#ffffff"/>
<text x="410" y="42" text-anchor="middle" font-size="21" fill="#0f172a" font-weight="700">見てよい人だけが見られる</text>
<rect x="320" y="110" width="180" height="190" rx="16" fill="#dbeafe" stroke="#3b82f6" stroke-width="3.5"/>
<svg x="378.0" y="76" width="64" height="64" viewBox="0 0 36 36"><path fill="#AAB8C2" d="M18 0C12.477 0 8 4.477 8 10v10h4V10a6 6 0 0 1 12 0v10h4V10c0-5.523-4.477-10-10-10Z"/><path fill="#FFAC33" d="M32 32a4 4 0 0 1-4 4H8a4 4 0 0 1-4-4V18a4 4 0 0 1 4-4h20a4 4 0 0 1 4 4v14Z"/></svg>
<text x="410.0" y="172" text-anchor="middle" font-size="21" fill="#1d4ed8" font-weight="700">機密データ</text>
<svg x="348.0" y="198" width="48" height="48" viewBox="0 0 36 36"><path fill="#C1694F" d="M32.614 3.414C28.31-.89 21.332-.89 17.027 3.414c-3.391 3.392-4.098 8.439-2.144 12.535l-3.916 3.915c-.64.641-.841 1.543-.625 2.359l-1.973 1.972c-.479-.48-1.252-.48-1.731 0l-1.731 1.732c-.479.479-.479 1.253 0 1.732l-.867.864c-.479-.478-1.253-.478-1.731 0l-.866.867c-.479.479-.479 1.253 0 1.732.015.016.036.02.051.033-.794 1.189-.668 2.812.382 3.863 1.195 1.195 3.134 1.195 4.329 0L20.08 21.144c4.097 1.955 9.144 1.247 12.535-2.146 4.302-4.302 4.302-11.28-.001-15.584zm-1.731 5.195c-.957.956-2.509.956-3.464 0-.956-.956-.956-2.507 0-3.464.955-.956 2.507-.956 3.464 0 .956.957.956 2.508 0 3.464z"/></svg>
<svg x="424.0" y="198" width="48" height="48" viewBox="0 0 36 36"><path fill="#269" d="M24 26.799v-2.566c2-1.348 4.08-3.779 4.703-6.896.186.103.206.17.413.17.991 0 1.709-1.287 1.709-2.873 0-1.562-.823-2.827-1.794-2.865.187-.674.293-1.577.293-2.735C29.324 5.168 26 .527 18.541.527c-6.629 0-10.777 4.641-10.777 8.507 0 1.123.069 2.043.188 2.755-.911.137-1.629 1.352-1.629 2.845 0 1.587.804 2.873 1.796 2.873.206 0 .025-.067.209-.17C8.952 20.453 11 22.885 13 24.232v2.414c-5 .645-12 3.437-12 6.23v1.061C1 35 2.076 35 3.137 35h29.725C33.924 35 35 35 35 33.938v-1.061c0-2.615-6-5.225-11-6.078z"/></svg>
<text x="410.0" y="278" text-anchor="middle" font-size="15" fill="#1d4ed8" font-weight="400">APIキー・個人情報</text>
<svg x="84" y="150" width="72" height="72" viewBox="0 0 36 36"><path fill="#269" d="M24 26.799v-2.566c2-1.348 4.08-3.779 4.703-6.896.186.103.206.17.413.17.991 0 1.709-1.287 1.709-2.873 0-1.562-.823-2.827-1.794-2.865.187-.674.293-1.577.293-2.735C29.324 5.168 26 .527 18.541.527c-6.629 0-10.777 4.641-10.777 8.507 0 1.123.069 2.043.188 2.755-.911.137-1.629 1.352-1.629 2.845 0 1.587.804 2.873 1.796 2.873.206 0 .025-.067.209-.17C8.952 20.453 11 22.885 13 24.232v2.414c-5 .645-12 3.437-12 6.23v1.061C1 35 2.076 35 3.137 35h29.725C33.924 35 35 35 35 33.938v-1.061c0-2.615-6-5.225-11-6.078z"/></svg>
<svg x="144" y="184" width="40" height="40" viewBox="0 0 36 36"><path fill="#C1694F" d="M32.614 3.414C28.31-.89 21.332-.89 17.027 3.414c-3.391 3.392-4.098 8.439-2.144 12.535l-3.916 3.915c-.64.641-.841 1.543-.625 2.359l-1.973 1.972c-.479-.48-1.252-.48-1.731 0l-1.731 1.732c-.479.479-.479 1.253 0 1.732l-.867.864c-.479-.478-1.253-.478-1.731 0l-.866.867c-.479.479-.479 1.253 0 1.732.015.016.036.02.051.033-.794 1.189-.668 2.812.382 3.863 1.195 1.195 3.134 1.195 4.329 0L20.08 21.144c4.097 1.955 9.144 1.247 12.535-2.146 4.302-4.302 4.302-11.28-.001-15.584zm-1.731 5.195c-.957.956-2.509.956-3.464 0-.956-.956-.956-2.507 0-3.464.955-.956 2.507-.956 3.464 0 .956.957.956 2.508 0 3.464z"/></svg>
<text x="120" y="242" text-anchor="middle" font-size="21" fill="#0f172a" font-weight="700">見てよい人</text>
<text x="120" y="268" text-anchor="middle" font-size="13" fill="#475569" font-weight="400">（鍵を持つ）</text>
<line x1="194" y1="184" x2="306" y2="184" stroke="#475569" stroke-width="3.5" stroke-linecap="round" stroke-linejoin="round" marker-end="url(#aR)"/>
<text x="250.0" y="174.0" text-anchor="middle" font-size="17" fill="#0f172a" font-weight="600">見られる</text>
<svg x="230" y="190" width="40" height="40" viewBox="0 0 36 36"><path fill="#77B255" d="M36 32c0 2.209-1.791 4-4 4H4c-2.209 0-4-1.791-4-4V4c0-2.209 1.791-4 4-4h28c2.209 0 4 1.791 4 4v28z"/><path fill="#FFF" d="M29.28 6.362c-1.156-.751-2.704-.422-3.458.736L14.936 23.877l-5.029-4.65c-1.014-.938-2.596-.875-3.533.138-.937 1.014-.875 2.596.139 3.533l7.209 6.666c.48.445 1.09.665 1.696.665.673 0 1.534-.282 2.099-1.139.332-.506 12.5-19.27 12.5-19.27.751-1.159.421-2.707-.737-3.458z"/></svg>
<svg x="664" y="150" width="72" height="72" viewBox="0 0 36 36"><path fill="#FFCC4D" d="M2.653 35C.811 35-.001 33.662.847 32.027L16.456 1.972c.849-1.635 2.238-1.635 3.087 0l15.609 30.056c.85 1.634.037 2.972-1.805 2.972H2.653z"/><path fill="#231F20" d="M15.583 28.953c0-1.333 1.085-2.418 2.419-2.418 1.333 0 2.418 1.085 2.418 2.418 0 1.334-1.086 2.419-2.418 2.419-1.334 0-2.419-1.085-2.419-2.419zm.186-18.293c0-1.302.961-2.108 2.232-2.108 1.241 0 2.233.837 2.233 2.108v11.938c0 1.271-.992 2.108-2.233 2.108-1.271 0-2.232-.807-2.232-2.108V10.66z"/></svg>
<text x="700" y="242" text-anchor="middle" font-size="21" fill="#0f172a" font-weight="700">見てはいけない人</text>
<text x="700" y="268" text-anchor="middle" font-size="13" fill="#475569" font-weight="400">（鍵がない）</text>
<line x1="626" y1="184" x2="566" y2="184" stroke="#94a3b8" stroke-width="2.0" stroke-linecap="round" stroke-linejoin="round" stroke-dasharray="7 6" marker-end="url(#aRsub)"/>
<text x="596.0" y="174.0" text-anchor="middle" font-size="17" fill="#475569" font-weight="600">入れない</text>
<svg x="576" y="190" width="40" height="40" viewBox="0 0 36 36"><path fill="#BE1931" d="M36 18c0 9.941-8.059 18-18 18S0 27.941 0 18 8.059 0 18 0s18 8.059 18 18z"/><path fill="#FFF" d="M32 20c0 1.104-.896 2-2 2H6c-1.104 0-2-.896-2-2v-4c0-1.104.896-2 2-2h24c1.104 0 2 .896 2 2v4z"/></svg>
</svg>
