<svg xmlns="http://www.w3.org/2000/svg" width="820" height="360" viewBox="0 0 820 360" font-family="'Hiragino Sans','Noto Sans JP','Yu Gothic','Segoe UI',sans-serif">
<defs><marker id="aR" viewBox="0 0 10 10" refX="8" refY="5" markerWidth="7" markerHeight="7" orient="auto-start-reverse"><path d="M0 1 L9 5 L0 9 z" fill="#475569"/></marker><marker id="aRsub" viewBox="0 0 10 10" refX="8" refY="5" markerWidth="7" markerHeight="7" orient="auto-start-reverse"><path d="M0 1 L9 5 L0 9 z" fill="#94a3b8"/></marker></defs>
<rect x="0" y="0" width="820" height="360" fill="#ffffff"/>
<text x="410" y="42" text-anchor="middle" font-size="21" fill="#0f172a" font-weight="700">書き換えてよい人だけが書き換えられる</text>
<rect x="320" y="110" width="180" height="190" rx="16" fill="#dcfce7" stroke="#22c55e" stroke-width="3.5"/>
<svg x="378.0" y="76" width="64" height="64" viewBox="0 0 36 36"><path fill="#CCD6DD" d="M33 3c-7-3-15-3-15-3S10 0 3 3C0 18 3 31 18 36c15-5 18-18 15-33z"/><path fill="#55ACEE" d="M18 33.884C6.412 29.729 1.961 19.831 4.76 4.444 11.063 2.029 17.928 2 18 2c.071 0 6.958.04 13.24 2.444 2.799 15.387-1.652 25.285-13.24 29.44z"/><path fill="#269" d="M31.24 4.444C24.958 2.04 18.071 2 18 2v31.884c11.588-4.155 16.039-14.053 13.24-29.44z"/></svg>
<text x="410.0" y="172" text-anchor="middle" font-size="21" fill="#15803d" font-weight="700">データ</text>
<svg x="348.0" y="198" width="48" height="48" viewBox="0 0 36 36"><path fill="#CCD6DD" d="M31 32c0 2.209-1.791 4-4 4H5c-2.209 0-4-1.791-4-4V4c0-2.209 1.791-4 4-4h22c2.209 0 4 1.791 4 4v28z"/><path fill="#99AAB5" d="M27 24c0 .553-.447 1-1 1H6c-.552 0-1-.447-1-1 0-.553.448-1 1-1h20c.553 0 1 .447 1 1zm-16 4c0 .553-.448 1-1 1H6c-.552 0-1-.447-1-1 0-.553.448-1 1-1h4c.552 0 1 .447 1 1zM27 8c0 .552-.447 1-1 1H6c-.552 0-1-.448-1-1s.448-1 1-1h20c.553 0 1 .448 1 1zm0 4c0 .553-.447 1-1 1H6c-.552 0-1-.447-1-1 0-.553.448-1 1-1h20c.553 0 1 .447 1 1zm0 4c0 .553-.447 1-1 1H6c-.552 0-1-.447-1-1 0-.553.448-1 1-1h20c.553 0 1 .447 1 1zm0 4c0 .553-.447 1-1 1H6c-.552 0-1-.447-1-1 0-.553.448-1 1-1h20c.553 0 1 .447 1 1z"/><path fill="#66757F" d="M31 6.272c-.827-.535-1.837-.579-2.521-.023l-.792.646-1.484 1.211-.1.08-2.376 1.938-11.878 9.686c-.437.357-.793 1.219-1.173 2.074-.378.85-.969 2.852-1.443 4.391-.148.25-1.065 1.846-.551 2.453.52.615 2.326.01 2.568-.076 1.626-.174 3.731-.373 4.648-.58.924-.211 1.854-.395 2.291-.752.008-.006.01-.018.017-.023l11.858-9.666.792-.646.144-.118V6.272z"/><path fill="#D99E82" d="M18.145 22.526s-1.274-1.881-2.117-2.553c-.672-.843-2.549-2.116-2.549-2.116-.448-.446-1.191-.48-1.629-.043-.437.438-.793 1.366-1.173 2.291-.472 1.146-1.276 4.154-1.768 5.752-.083.272.517-.45.503-.21-.01.187.027.394.074.581l-.146.159.208.067c.025.082.05.154.068.21l.159-.146c.187.047.394.084.58.074.24-.014-.483.587-.21.503 1.598-.493 4.607-1.296 5.752-1.768.924-.381 1.854-.736 2.291-1.174.439-.435.406-1.178-.043-1.627z"/><path fill="#EA596E" d="M25.312 4.351c-.876.875-.876 2.293 0 3.168l3.167 3.168c.876.874 2.294.874 3.168 0l3.169-3.168c.874-.875.874-2.293 0-3.168l-3.169-3.168c-.874-.875-2.292-.875-3.168 0l-3.167 3.168z"/><path fill="#FFCC4D" d="M11.849 17.815l3.17 3.17 3.165 3.166 11.881-11.879-6.337-6.336-11.879 11.879z"/><path fill="#292F33" d="M11.298 26.742s-2.06 1.133-2.616.576c-.557-.558.581-2.611.581-2.611s1.951.036 2.035 2.035z"/><path fill="#CCD6DD" d="M23.728 5.935l3.96-3.96 6.336 6.337-3.96 3.96z"/><path fill="#99AAB5" d="M26.103 3.558l.792-.792 6.336 6.335-.792.792zM24.52 5.142l.791-.791 6.336 6.335-.792.792z"/></svg>
<svg x="424.0" y="198" width="48" height="48" viewBox="0 0 36 36"><path fill="#FDD888" d="M31.898 23.938C31.3 17.32 28 14 28 14l-6-8h-8l-6 8s-1.419 1.433-2.567 4.275C3.444 18.935 2 20.789 2 23c0 1.448.625 2.742 1.609 3.655C3.233 27.357 3 28.147 3 29c0 1.958 1.136 3.636 2.775 4.456C7.058 35.378 8.772 36 10 36h16c1.379 0 3.373-.779 4.678-3.31C32.609 31.999 34 30.17 34 28c0-1.678-.834-3.154-2.102-4.062zM18 6c.55 0 1.058-.158 1.5-.416.443.258.951.416 1.5.416 1.657 0 4-2.344 4-4 0 0 0-2-2-2-.788 0-1 1-2 1s-1-1-3-1-2 1-3 1-1.211-1-2-1c-2 0-2 2-2 2 0 1.656 2.344 4 4 4 .549 0 1.057-.158 1.5-.416.443.258.951.416 1.5.416z"/><path fill="#BF6952" d="M24 6c0 .552-.447 1-1 1H13c-.552 0-1-.448-1-1s.448-1 1-1h10c.553 0 1 .448 1 1z"/><path fill="#67757F" d="M23.901 24.542c0-4.477-8.581-4.185-8.581-6.886 0-1.308 1.301-1.947 2.811-1.947 2.538 0 2.99 1.569 4.139 1.569.813 0 1.205-.493 1.205-1.046 0-1.284-2.024-2.256-3.965-2.592V12.4c0-.773-.65-1.4-1.454-1.4-.805 0-1.456.627-1.456 1.4v1.283c-2.116.463-3.937 1.875-3.937 4.176 0 4.299 8.579 4.125 8.579 7.145 0 1.047-1.178 2.093-3.111 2.093-2.901 0-3.867-1.889-5.045-1.889-.574 0-1.087.464-1.087 1.164 0 1.113 1.938 2.451 4.603 2.824l-.001.01v1.398c0 .772.652 1.4 1.456 1.4.804 0 1.455-.628 1.455-1.4v-1.398c0-.017-.008-.03-.009-.045 2.398-.43 4.398-1.932 4.398-4.619z"/></svg>
<text x="410.0" y="278" text-anchor="middle" font-size="15" fill="#15803d" font-weight="400">投稿・残高・在庫</text>
<svg x="84" y="150" width="72" height="72" viewBox="0 0 36 36"><path fill="#269" d="M24 26.799v-2.566c2-1.348 4.08-3.779 4.703-6.896.186.103.206.17.413.17.991 0 1.709-1.287 1.709-2.873 0-1.562-.823-2.827-1.794-2.865.187-.674.293-1.577.293-2.735C29.324 5.168 26 .527 18.541.527c-6.629 0-10.777 4.641-10.777 8.507 0 1.123.069 2.043.188 2.755-.911.137-1.629 1.352-1.629 2.845 0 1.587.804 2.873 1.796 2.873.206 0 .025-.067.209-.17C8.952 20.453 11 22.885 13 24.232v2.414c-5 .645-12 3.437-12 6.23v1.061C1 35 2.076 35 3.137 35h29.725C33.924 35 35 35 35 33.938v-1.061c0-2.615-6-5.225-11-6.078z"/></svg>
<svg x="144" y="184" width="40" height="40" viewBox="0 0 36 36"><path fill="#D99E82" d="M35.222 33.598c-.647-2.101-1.705-6.059-2.325-7.566-.501-1.216-.969-2.438-1.544-3.014-.575-.575-1.553-.53-2.143.058 0 0-2.469 1.675-3.354 2.783-1.108.882-2.785 3.357-2.785 3.357-.59.59-.635 1.567-.06 2.143.576.575 1.798 1.043 3.015 1.544 1.506.62 5.465 1.676 7.566 2.325.359.11 1.74-1.271 1.63-1.63z"/><path fill="#EA596E" d="M13.643 5.308c1.151 1.151 1.151 3.016 0 4.167l-4.167 4.168c-1.151 1.15-3.018 1.15-4.167 0L1.141 9.475c-1.15-1.151-1.15-3.016 0-4.167l4.167-4.167c1.15-1.151 3.016-1.151 4.167 0l4.168 4.167z"/><path fill="#FFCC4D" d="M31.353 23.018l-4.17 4.17-4.163 4.165L7.392 15.726l8.335-8.334 15.626 15.626z"/><path fill="#292F33" d="M32.078 34.763s2.709 1.489 3.441.757c.732-.732-.765-3.435-.765-3.435s-2.566.048-2.676 2.678z"/><path fill="#CCD6DD" d="M2.183 10.517l8.335-8.335 5.208 5.209-8.334 8.335z"/><path fill="#99AAB5" d="M3.225 11.558l8.334-8.334 1.042 1.042L4.267 12.6zm2.083 2.086l8.335-8.335 1.042 1.042-8.335 8.334z"/></svg>
<text x="120" y="242" text-anchor="middle" font-size="21" fill="#0f172a" font-weight="700">権限のある人</text>
<text x="120" y="268" text-anchor="middle" font-size="13" fill="#475569" font-weight="400">（本人・管理者）</text>
<line x1="194" y1="184" x2="306" y2="184" stroke="#475569" stroke-width="3.5" stroke-linecap="round" stroke-linejoin="round" marker-end="url(#aR)"/>
<text x="250.0" y="174.0" text-anchor="middle" font-size="17" fill="#0f172a" font-weight="600">書き換えOK</text>
<svg x="230" y="190" width="40" height="40" viewBox="0 0 36 36"><path fill="#77B255" d="M36 32c0 2.209-1.791 4-4 4H4c-2.209 0-4-1.791-4-4V4c0-2.209 1.791-4 4-4h28c2.209 0 4 1.791 4 4v28z"/><path fill="#FFF" d="M29.28 6.362c-1.156-.751-2.704-.422-3.458.736L14.936 23.877l-5.029-4.65c-1.014-.938-2.596-.875-3.533.138-.937 1.014-.875 2.596.139 3.533l7.209 6.666c.48.445 1.09.665 1.696.665.673 0 1.534-.282 2.099-1.139.332-.506 12.5-19.27 12.5-19.27.751-1.159.421-2.707-.737-3.458z"/></svg>
<svg x="664" y="150" width="72" height="72" viewBox="0 0 36 36"><path fill="#FFCC4D" d="M2.653 35C.811 35-.001 33.662.847 32.027L16.456 1.972c.849-1.635 2.238-1.635 3.087 0l15.609 30.056c.85 1.634.037 2.972-1.805 2.972H2.653z"/><path fill="#231F20" d="M15.583 28.953c0-1.333 1.085-2.418 2.419-2.418 1.333 0 2.418 1.085 2.418 2.418 0 1.334-1.086 2.419-2.418 2.419-1.334 0-2.419-1.085-2.419-2.419zm.186-18.293c0-1.302.961-2.108 2.232-2.108 1.241 0 2.233.837 2.233 2.108v11.938c0 1.271-.992 2.108-2.233 2.108-1.271 0-2.232-.807-2.232-2.108V10.66z"/></svg>
<text x="700" y="242" text-anchor="middle" font-size="21" fill="#0f172a" font-weight="700">権限のない人</text>
<text x="700" y="268" text-anchor="middle" font-size="13" fill="#475569" font-weight="400">（他人）</text>
<line x1="626" y1="184" x2="566" y2="184" stroke="#94a3b8" stroke-width="2.0" stroke-linecap="round" stroke-linejoin="round" stroke-dasharray="7 6" marker-end="url(#aRsub)"/>
<text x="596.0" y="174.0" text-anchor="middle" font-size="17" fill="#475569" font-weight="600">書き換えNG</text>
<svg x="576" y="190" width="40" height="40" viewBox="0 0 36 36"><path fill="#BE1931" d="M36 18c0 9.941-8.059 18-18 18S0 27.941 0 18 8.059 0 18 0s18 8.059 18 18z"/><path fill="#FFF" d="M32 20c0 1.104-.896 2-2 2H6c-1.104 0-2-.896-2-2v-4c0-1.104.896-2 2-2h24c1.104 0 2 .896 2 2v4z"/></svg>
</svg>
