<svg xmlns="http://www.w3.org/2000/svg" width="820" height="360" viewBox="0 0 820 360" font-family="'Hiragino Sans','Noto Sans JP','Yu Gothic','Segoe UI',sans-serif">
<defs><marker id="aR" viewBox="0 0 10 10" refX="8" refY="5" markerWidth="7" markerHeight="7" orient="auto-start-reverse"><path d="M0 1 L9 5 L0 9 z" fill="#475569"/></marker><marker id="aRsub" viewBox="0 0 10 10" refX="8" refY="5" markerWidth="7" markerHeight="7" orient="auto-start-reverse"><path d="M0 1 L9 5 L0 9 z" fill="#94a3b8"/></marker></defs>
<rect x="0" y="0" width="820" height="360" fill="#ffffff"/>
<text x="410" y="42" text-anchor="middle" font-size="21" fill="#0f172a" font-weight="700">使いたいときに使える</text>
<rect x="320" y="110" width="180" height="190" rx="16" fill="#ffedd5" stroke="#f97316" stroke-width="3.5"/>
<svg x="378.0" y="76" width="64" height="64" viewBox="0 0 36 36"><path fill="#292F33" d="M16 5h4v3h-4z"/><path fill="#8899A6" d="M22 1h-8c-1.1 0-2 .9-2 2s.9 2 2 2h8c1.1 0 2-.9 2-2s-.9-2-2-2zm6.184 10.507l-1.504-1.318c-.827-.725-.911-1.995-.186-2.822.725-.827 1.995-.911 2.822-.186l1.504 1.318c.827.725.911 1.995.186 2.822-.725.827-1.995.911-2.822.186z"/><circle fill="#F5F8FA" cx="18" cy="21" r="11"/><path fill="#66757F" d="M18 7C10.268 7 4 13.268 4 21s6.268 14 14 14 14-6.268 14-14S25.732 7 18 7zm0 25c-6.065 0-11-4.935-11-11s4.935-11 11-11 11 4.935 11 11-4.935 11-11 11z"/><path fill="#292F33" d="M27 22H17c-.552 0-1-.447-1-1s.448-1 1-1h10c.553 0 1 .447 1 1s-.447 1-1 1z"/><circle fill="#292F33" cx="18" cy="12" r="1"/><circle fill="#292F33" cx="18" cy="30" r="1"/><circle fill="#292F33" cx="12" cy="15" r="1"/><circle fill="#292F33" cx="24" cy="27" r="1"/><circle fill="#292F33" cx="9" cy="21" r="1"/><circle fill="#292F33" cx="24" cy="15" r="1"/><path fill="#DD2E44" d="M12 28c-.256 0-.512-.098-.707-.293-.391-.391-.391-1.023 0-1.414l7-7c.391-.391 1.023-.391 1.414 0s.391 1.023 0 1.414l-7 7c-.195.195-.451.293-.707.293z"/></svg>
<text x="410.0" y="172" text-anchor="middle" font-size="21" fill="#c2410c" font-weight="700">サービス</text>
<svg x="348.0" y="198" width="48" height="48" viewBox="0 0 36 36"><path fill="#CCD6DD" d="M36 22c0 2.209-1.791 4-4 4H4c-2.209 0-4-1.791-4-4V4c0-2.209 1.791-4 4-4h28c2.209 0 4 1.791 4 4v18z"/><path fill="#5DADEC" d="M4 4h28v18H4z"/><path fill="#CCD6DD" d="M13 26h10v6H13z"/><path fill="#9AAAB4" d="M13 26h10v2H13z"/><path fill="#E1E8ED" d="M36 33c0-1.657-1.343-3-3-3H3c-1.657 0-3 1.343-3 3s1.343 3 3 3h30c1.657 0 3-1.343 3-3z"/><path fill="#F5F8FA" d="M3 32h2v2H3zm4 0h2v2H7zm4 0h2v2h-2zm4 0h2v2h-2zm4 0h2v2h-2zm4 0h2v2h-2zm4 0h2v2h-2zm4 0h2v2h-2z"/></svg>
<svg x="424.0" y="198" width="48" height="48" viewBox="0 0 36 36"><path fill="#31373D" d="M4 36s-4 0-4-4V4s0-4 4-4h26c1 0 2 1 2 1l3 3s1 1 1 2v26s0 4-4 4H4z"/><path fill="#55ACEE" d="M5 19v-1s0-2 2-2h21c2 0 2 2 2 2v1H5z"/><path fill="#E1E8ED" d="M5 32.021V19h25v13s0 2-2 2H7c-2 0-2-1.979-2-1.979zM10 3s0-1 1-1h18c1.048 0 1 1 1 1v10s0 1-1 1H11s-1 0-1-1V3zm12 10h5V3h-5v10z"/></svg>
<text x="410.0" y="278" text-anchor="middle" font-size="15" fill="#c2410c" font-weight="400">止まらない・戻せる</text>
<svg x="84" y="150" width="72" height="72" viewBox="0 0 36 36"><path fill="#269" d="M24 26.799v-2.566c2-1.348 4.08-3.779 4.703-6.896.186.103.206.17.413.17.991 0 1.709-1.287 1.709-2.873 0-1.562-.823-2.827-1.794-2.865.187-.674.293-1.577.293-2.735C29.324 5.168 26 .527 18.541.527c-6.629 0-10.777 4.641-10.777 8.507 0 1.123.069 2.043.188 2.755-.911.137-1.629 1.352-1.629 2.845 0 1.587.804 2.873 1.796 2.873.206 0 .025-.067.209-.17C8.952 20.453 11 22.885 13 24.232v2.414c-5 .645-12 3.437-12 6.23v1.061C1 35 2.076 35 3.137 35h29.725C33.924 35 35 35 35 33.938v-1.061c0-2.615-6-5.225-11-6.078z"/></svg>
<svg x="144" y="184" width="38" height="38" viewBox="0 0 36 36"><path fill="#31373D" d="M11 36s-4 0-4-4V4s0-4 4-4h14s4 0 4 4v28s0 4-4 4H11z"/><path fill="#55ACEE" d="M9 5h18v26H9z"/></svg>
<text x="120" y="242" text-anchor="middle" font-size="21" fill="#0f172a" font-weight="700">使いたい人</text>
<text x="120" y="268" text-anchor="middle" font-size="13" fill="#475569" font-weight="400">（いつでも）</text>
<line x1="194" y1="184" x2="306" y2="184" stroke="#475569" stroke-width="3.5" stroke-linecap="round" stroke-linejoin="round" marker-end="url(#aR)"/>
<text x="250.0" y="174.0" text-anchor="middle" font-size="17" fill="#0f172a" font-weight="600">使える</text>
<svg x="230" y="190" width="40" height="40" viewBox="0 0 36 36"><path fill="#77B255" d="M36 32c0 2.209-1.791 4-4 4H4c-2.209 0-4-1.791-4-4V4c0-2.209 1.791-4 4-4h28c2.209 0 4 1.791 4 4v28z"/><path fill="#FFF" d="M29.28 6.362c-1.156-.751-2.704-.422-3.458.736L14.936 23.877l-5.029-4.65c-1.014-.938-2.596-.875-3.533.138-.937 1.014-.875 2.596.139 3.533l7.209 6.666c.48.445 1.09.665 1.696.665.673 0 1.534-.282 2.099-1.139.332-.506 12.5-19.27 12.5-19.27.751-1.159.421-2.707-.737-3.458z"/></svg>
<svg x="664" y="150" width="72" height="72" viewBox="0 0 36 36"><path fill="#FFCC4D" d="M2.653 35C.811 35-.001 33.662.847 32.027L16.456 1.972c.849-1.635 2.238-1.635 3.087 0l15.609 30.056c.85 1.634.037 2.972-1.805 2.972H2.653z"/><path fill="#231F20" d="M15.583 28.953c0-1.333 1.085-2.418 2.419-2.418 1.333 0 2.418 1.085 2.418 2.418 0 1.334-1.086 2.419-2.418 2.419-1.334 0-2.419-1.085-2.419-2.419zm.186-18.293c0-1.302.961-2.108 2.232-2.108 1.241 0 2.233.837 2.233 2.108v11.938c0 1.271-.992 2.108-2.233 2.108-1.271 0-2.232-.807-2.232-2.108V10.66z"/></svg>
<text x="700" y="242" text-anchor="middle" font-size="21" fill="#0f172a" font-weight="700">障害・攻撃</text>
<text x="700" y="268" text-anchor="middle" font-size="13" fill="#475569" font-weight="400">（ダウン・財布攻撃）</text>
<line x1="626" y1="184" x2="566" y2="184" stroke="#94a3b8" stroke-width="2.0" stroke-linecap="round" stroke-linejoin="round" stroke-dasharray="7 6" marker-end="url(#aRsub)"/>
<text x="596.0" y="174.0" text-anchor="middle" font-size="17" fill="#475569" font-weight="600">止められない</text>
<svg x="576" y="190" width="40" height="40" viewBox="0 0 36 36"><path fill="#BE1931" d="M36 18c0 9.941-8.059 18-18 18S0 27.941 0 18 8.059 0 18 0s18 8.059 18 18z"/><path fill="#FFF" d="M32 20c0 1.104-.896 2-2 2H6c-1.104 0-2-.896-2-2v-4c0-1.104.896-2 2-2h24c1.104 0 2 .896 2 2v4z"/></svg>
</svg>
