<svg xmlns="http://www.w3.org/2000/svg" width="960" height="340" viewBox="0 0 960 340" font-family="'Hiragino Sans','Noto Sans JP','Yu Gothic','Segoe UI',sans-serif">
<defs><marker id="aR" viewBox="0 0 10 10" refX="8" refY="5" markerWidth="7" markerHeight="7" orient="auto-start-reverse"><path d="M0 1 L9 5 L0 9 z" fill="#475569"/></marker><marker id="aRsub" viewBox="0 0 10 10" refX="8" refY="5" markerWidth="7" markerHeight="7" orient="auto-start-reverse"><path d="M0 1 L9 5 L0 9 z" fill="#94a3b8"/></marker></defs>
<rect x="0" y="0" width="960" height="340" fill="#ffffff"/>
<rect x="20" y="20" width="920" height="300" rx="16" fill="#ffedd5" stroke="#f97316" stroke-width="3.5"/>
<rect x="60" y="60" width="340" height="44" rx="16" fill="#ffedd5" stroke="#f97316" stroke-width="3.5"/>
<text x="78" y="88" text-anchor="start" font-size="17" fill="#c2410c" font-weight="600">SECTION 01 ・ 公開する</text>
<text x="64" y="190" text-anchor="start" font-size="33" fill="#0f172a" font-weight="700">Cloudflare アカウントを作る</text>
<ellipse cx="800" cy="170" rx="92" ry="92" fill="#f1f5f9" stroke="#94a3b8" stroke-width="3.5"/>
<svg x="740" y="110" width="120" height="120" viewBox="0 0 36 36"><path fill="#C1694F" d="M32.614 3.414C28.31-.89 21.332-.89 17.027 3.414c-3.391 3.392-4.098 8.439-2.144 12.535l-3.916 3.915c-.64.641-.841 1.543-.625 2.359l-1.973 1.972c-.479-.48-1.252-.48-1.731 0l-1.731 1.732c-.479.479-.479 1.253 0 1.732l-.867.864c-.479-.478-1.253-.478-1.731 0l-.866.867c-.479.479-.479 1.253 0 1.732.015.016.036.02.051.033-.794 1.189-.668 2.812.382 3.863 1.195 1.195 3.134 1.195 4.329 0L20.08 21.144c4.097 1.955 9.144 1.247 12.535-2.146 4.302-4.302 4.302-11.28-.001-15.584zm-1.731 5.195c-.957.956-2.509.956-3.464 0-.956-.956-.956-2.507 0-3.464.955-.956 2.507-.956 3.464 0 .956.957.956 2.508 0 3.464z"/></svg>
</svg>
