<svg xmlns="http://www.w3.org/2000/svg" width="900" height="420" viewBox="0 0 900 420" font-family="'Hiragino Sans','Noto Sans JP','Yu Gothic','Segoe UI',sans-serif">
<defs><marker id="aR" viewBox="0 0 10 10" refX="8" refY="5" markerWidth="7" markerHeight="7" orient="auto-start-reverse"><path d="M0 1 L9 5 L0 9 z" fill="#475569"/></marker><marker id="aRsub" viewBox="0 0 10 10" refX="8" refY="5" markerWidth="7" markerHeight="7" orient="auto-start-reverse"><path d="M0 1 L9 5 L0 9 z" fill="#94a3b8"/></marker></defs>
<rect x="0" y="0" width="900" height="420" fill="#ffffff"/>
<text x="450" y="44" text-anchor="middle" font-size="21" fill="#0f172a" font-weight="700">wrangler(CLI)で作る・反映する / ダッシュボード(GUI)で確認する</text>
<svg x="110" y="100" width="80" height="80" viewBox="0 0 36 36"><path fill="#D67909" d="M6.814 33.279c-1.166 1.166-3.021 1.221-4.121.121-1.1-1.1-1.045-2.955.121-4.121L26.079 6.014c1.167-1.167 3.021-1.221 4.121-.121 1.101 1.1 1.046 2.955-.121 4.121L6.814 33.279z"/><path fill="#D67909" d="M32.585 7.657c.781-.781.781-2.048 0-2.829l-1.414-1.414c-.78-.78-2.047-.78-2.828 0-.781.781-.781 2.048 0 2.829l1.414 1.414c.781.781 2.048.781 2.828 0z"/><path fill="#D67909" d="M32.585 7.657c.781-.781.781-2.048 0-2.829l-1.414-1.414c-.78-.78-2.047-.78-2.828 0-.781.781-.781 2.048 0 2.829l1.414 1.414c.781.781 2.048.781 2.828 0z"/><path fill="#66757F" d="M35.789 13.424c-.252-1.765-.375-4.354-3.204-7.182l-.707-.708-4.949-4.95c-.781-.781-2.048-.781-2.828 0L20.565 4.12c-.781.781-.781 2.047 0 2.829l6.364 6.364 2.121 2.121 1.414 1.414c1.027 1.027 3.314 3.315 4.718 1.911.773-.772.961-2.86.607-5.335z"/><path fill="#F4900C" d="M29.185 33.279c1.166 1.166 3.022 1.221 4.121.121 1.1-1.1 1.045-2.955-.121-4.121L9.921 6.014C8.754 4.847 6.899 4.792 5.8 5.893c-1.101 1.1-1.046 2.955.121 4.121l23.264 23.265z"/><path fill="#F4900C" d="M3.415 7.657c-.781-.781-.781-2.048 0-2.829l1.414-1.414c.78-.78 2.047-.78 2.828 0 .781.781.781 2.048 0 2.829L6.243 7.657c-.781.781-2.048.781-2.828 0z"/><path fill="#66757F" d="M4.122 15.436c.78.78 2.047.78 2.828 0l8.485-8.485c.781-.781.781-2.048 0-2.829L11.899.587c-.78-.781-2.047-.781-2.828 0L.586 9.071c-.781.781-.781 2.047 0 2.828l3.536 3.537z"/></svg>
<rect x="81.2" y="188.4" width="137.6" height="23.3" rx="7" fill="#ffffff" fill-opacity="0.72"/>
<text x="150" y="205" text-anchor="middle" font-size="17" fill="#475569" font-weight="600">wrangler(CLI)</text>
<svg x="110" y="288" width="80" height="80" viewBox="0 0 36 36"><path fill="#CCD6DD" d="M34 29.096c-.417-.963-.896-2.008-2-2.008h-1c1.104 0 2-.899 2-2.008V8.008C33 6.899 32.104 6 31 6H5c-1.104 0-2 .899-2 2.008V25.08c0 1.109.896 2.008 2 2.008H4c-1.104 0-1.667 1.004-2 2.008l-2 4.895C0 35.101.896 36 2 36h32c1.104 0 2-.899 2-2.008l-2-4.896z"/><path fill="#9AAAB4" d="M.008 34.075l.006.057.17.692C.5 35.516 1.192 36 2 36h32c1.076 0 1.947-.855 1.992-1.925H.008z"/><path fill="#5DADEC" d="M31 24.075c0 .555-.447 1.004-1 1.004H6c-.552 0-1-.449-1-1.004V9.013c0-.555.448-1.004 1-1.004h24c.553 0 1 .45 1 1.004v15.062z"/><path fill="#AEBBC1" d="M32.906 31.042l-.76-2.175c-.239-.46-.635-.837-1.188-.837H5.11c-.552 0-.906.408-1.156 1.036l-.688 1.977c-.219.596.448 1.004 1 1.004h7.578s.937-.047 1.103-.608c.192-.648.415-1.624.463-1.796.074-.264.388-.531.856-.531h8.578c.5 0 .746.253.811.566.042.204.312 1.141.438 1.782.111.571 1.221.586 1.221.586h6.594c.551 0 1.217-.471.998-1.004z"/><path fill="#9AAAB4" d="M22.375 33.113h-7.781c-.375 0-.538-.343-.484-.675.054-.331.359-1.793.383-1.963.023-.171.274-.375.524-.375h7.015c.297 0 .49.163.55.489.059.327.302 1.641.321 1.941.019.301-.169.583-.528.583z"/></svg>
<rect x="115.6" y="371.4" width="68.7" height="23.3" rx="7" fill="#ffffff" fill-opacity="0.72"/>
<text x="150" y="388" text-anchor="middle" font-size="17" fill="#475569" font-weight="600">開発PC</text>
<line x1="150" y1="282" x2="150" y2="224" stroke="#475569" stroke-width="3.5" stroke-linecap="round" stroke-linejoin="round" marker-end="url(#aR)"/>
<g transform="translate(375,78) scale(2.3,1.7714285714285714)"><path d="M25,60 a20,20 0 0 1 -4,-39 a23,23 0 0 1 44,-7 a17,17 0 0 1 16,13 a16,16 0 0 1 -5,33 Z" fill="#dbeafe" stroke="#3b82f6" stroke-width="3.5"/></g>
<rect x="424.2" y="118.2" width="131.5" height="27.4" rx="7" fill="#ffffff" fill-opacity="0.72"/>
<text x="490" y="138" text-anchor="middle" font-size="21" fill="#1d4ed8" font-weight="700">Cloudflare</text>
<rect x="431.0" y="145.4" width="118.0" height="23.3" rx="7" fill="#ffffff" fill-opacity="0.72"/>
<text x="490" y="162" text-anchor="middle" font-size="17" fill="#1d4ed8" font-weight="600">（本番環境）</text>
<svg x="730" y="100" width="80" height="80" viewBox="0 0 36 36"><path fill="#3B88C3" d="M18 0C8.059 0 0 8.059 0 18s8.059 18 18 18 18-8.059 18-18S27.941 0 18 0zM2.05 19h3.983c.092 2.506.522 4.871 1.229 7H4.158c-1.207-2.083-1.95-4.459-2.108-7zM19 8V2.081c2.747.436 5.162 2.655 6.799 5.919H19zm7.651 2c.754 2.083 1.219 4.46 1.317 7H19v-7h7.651zM17 2.081V8h-6.799C11.837 4.736 14.253 2.517 17 2.081zM17 10v7H8.032c.098-2.54.563-4.917 1.317-7H17zM6.034 17H2.05c.158-2.54.901-4.917 2.107-7h3.104c-.705 2.129-1.135 4.495-1.227 7zm1.998 2H17v7H9.349c-.754-2.083-1.219-4.459-1.317-7zM17 28v5.919c-2.747-.437-5.163-2.655-6.799-5.919H17zm2 5.919V28h6.8c-1.637 3.264-4.053 5.482-6.8 5.919zM19 26v-7h8.969c-.099 2.541-.563 4.917-1.317 7H19zm10.967-7h3.982c-.157 2.541-.9 4.917-2.107 7h-3.104c.706-2.129 1.136-4.494 1.229-7zm0-2c-.093-2.505-.523-4.871-1.229-7h3.104c1.207 2.083 1.95 4.46 2.107 7h-3.982zm.512-9h-2.503c-.717-1.604-1.606-3.015-2.619-4.199C27.346 4.833 29.089 6.267 30.479 8zM10.643 3.801C9.629 4.985 8.74 6.396 8.023 8H5.521c1.39-1.733 3.133-3.166 5.122-4.199zM5.521 28h2.503c.716 1.604 1.605 3.015 2.619 4.198C8.654 31.166 6.911 29.733 5.521 28zm19.836 4.198c1.014-1.184 1.902-2.594 2.619-4.198h2.503c-1.39 1.733-3.133 3.166-5.122 4.198z"/></svg>
<rect x="636.6" y="188.4" width="266.8" height="23.3" rx="7" fill="#ffffff" fill-opacity="0.72"/>
<text x="770" y="205" text-anchor="middle" font-size="17" fill="#475569" font-weight="600">ブラウザ：ダッシュボード(GUI)</text>
<line x1="204" y1="140" x2="412" y2="140" stroke="#475569" stroke-width="3.5" stroke-linecap="round" stroke-linejoin="round" marker-end="url(#aR)"/>
<rect x="195.4" y="111.4" width="225.1" height="23.3" rx="7" fill="#ffffff" fill-opacity="0.72"/>
<text x="308" y="128" text-anchor="middle" font-size="17" fill="#0f172a" font-weight="600">作る・反映する（deploy）</text>
<line x1="596" y1="150" x2="726" y2="150" stroke="#94a3b8" stroke-width="2.0" stroke-linecap="round" stroke-linejoin="round" marker-end="url(#aRsub)" marker-start="url(#aRsub)"/>
<rect x="593.5" y="118.4" width="135.0" height="23.3" rx="7" fill="#ffffff" fill-opacity="0.72"/>
<text x="661" y="135" text-anchor="middle" font-size="17" fill="#475569" font-weight="600">状態を確認する</text>
</svg>
