<svg xmlns="http://www.w3.org/2000/svg" width="900" height="380" viewBox="0 0 900 380" font-family="'Hiragino Sans','Noto Sans JP','Yu Gothic','Segoe UI',sans-serif">
<defs><marker id="aR" viewBox="0 0 10 10" refX="8" refY="5" markerWidth="7" markerHeight="7" orient="auto-start-reverse"><path d="M0 1 L9 5 L0 9 z" fill="#475569"/></marker><marker id="aRsub" viewBox="0 0 10 10" refX="8" refY="5" markerWidth="7" markerHeight="7" orient="auto-start-reverse"><path d="M0 1 L9 5 L0 9 z" fill="#94a3b8"/></marker></defs>
<rect x="0" y="0" width="900" height="380" fill="#ffffff"/>
<text x="450" y="44" text-anchor="middle" font-size="21" fill="#0f172a" font-weight="700">wrangler(CLI)で作る・反映する / ダッシュボード(GUI)で確認する</text>
<g transform="translate(360,150) scale(1.8,1.8571428571428572)"><path d="M25,60 a20,20 0 0 1 -4,-39 a23,23 0 0 1 44,-7 a17,17 0 0 1 16,13 a16,16 0 0 1 -5,33 Z" fill="#dbeafe" stroke="#3b82f6" stroke-width="3.5"/></g>
<svg x="420" y="170" width="60" height="60" viewBox="0 0 36 36"><path fill="#CCD6DD" d="M27 8c-.701 0-1.377.106-2.015.298.005-.1.015-.197.015-.298 0-3.313-2.687-6-6-6-2.769 0-5.093 1.878-5.785 4.427C12.529 6.154 11.783 6 11 6c-3.314 0-6 2.686-6 6 0 3.312 2.686 6 6 6 2.769 0 5.093-1.878 5.785-4.428.686.273 1.432.428 2.215.428.375 0 .74-.039 1.096-.104-.058.36-.096.727-.096 1.104 0 3.865 3.135 7 7 7s7-3.135 7-7c0-3.866-3.135-7-7-7z"/><path fill="#E1E8ED" d="M31 22c-.467 0-.91.085-1.339.204.216-.526.339-1.1.339-1.704 0-2.485-2.015-4.5-4.5-4.5-1.019 0-1.947.351-2.701.921C22.093 14.096 19.544 12 16.5 12c-2.838 0-5.245 1.822-6.131 4.357C9.621 16.125 8.825 16 8 16c-4.418 0-8 3.582-8 8 0 4.419 3.582 8 8 8h23c2.762 0 5-2.238 5-5s-2.238-5-5-5z"/></svg>
<text x="450" y="258" text-anchor="middle" font-size="17" fill="#1d4ed8" font-weight="600">Cloudflare（本番環境）</text>
<svg x="90" y="172" width="80" height="80" viewBox="0 0 36 36"><path fill="#CCD6DD" d="M34 29.096c-.417-.963-.896-2.008-2-2.008h-1c1.104 0 2-.899 2-2.008V8.008C33 6.899 32.104 6 31 6H5c-1.104 0-2 .899-2 2.008V25.08c0 1.109.896 2.008 2 2.008H4c-1.104 0-1.667 1.004-2 2.008l-2 4.895C0 35.101.896 36 2 36h32c1.104 0 2-.899 2-2.008l-2-4.896z"/><path fill="#9AAAB4" d="M.008 34.075l.006.057.17.692C.5 35.516 1.192 36 2 36h32c1.076 0 1.947-.855 1.992-1.925H.008z"/><path fill="#5DADEC" d="M31 24.075c0 .555-.447 1.004-1 1.004H6c-.552 0-1-.449-1-1.004V9.013c0-.555.448-1.004 1-1.004h24c.553 0 1 .45 1 1.004v15.062z"/><path fill="#AEBBC1" d="M32.906 31.042l-.76-2.175c-.239-.46-.635-.837-1.188-.837H5.11c-.552 0-.906.408-1.156 1.036l-.688 1.977c-.219.596.448 1.004 1 1.004h7.578s.937-.047 1.103-.608c.192-.648.415-1.624.463-1.796.074-.264.388-.531.856-.531h8.578c.5 0 .746.253.811.566.042.204.312 1.141.438 1.782.111.571 1.221.586 1.221.586h6.594c.551 0 1.217-.471.998-1.004z"/><path fill="#9AAAB4" d="M22.375 33.113h-7.781c-.375 0-.538-.343-.484-.675.054-.331.359-1.793.383-1.963.023-.171.274-.375.524-.375h7.015c.297 0 .49.163.55.489.059.327.302 1.641.321 1.941.019.301-.169.583-.528.583z"/></svg>
<text x="130" y="272" text-anchor="middle" font-size="17" fill="#475569" font-weight="600">開発PC：wrangler(CLI)</text>
<svg x="730" y="172" width="80" height="80" viewBox="0 0 36 36"><path fill="#3B88C3" d="M18 0C8.059 0 0 8.059 0 18s8.059 18 18 18 18-8.059 18-18S27.941 0 18 0zM2.05 19h3.983c.092 2.506.522 4.871 1.229 7H4.158c-1.207-2.083-1.95-4.459-2.108-7zM19 8V2.081c2.747.436 5.162 2.655 6.799 5.919H19zm7.651 2c.754 2.083 1.219 4.46 1.317 7H19v-7h7.651zM17 2.081V8h-6.799C11.837 4.736 14.253 2.517 17 2.081zM17 10v7H8.032c.098-2.54.563-4.917 1.317-7H17zM6.034 17H2.05c.158-2.54.901-4.917 2.107-7h3.104c-.705 2.129-1.135 4.495-1.227 7zm1.998 2H17v7H9.349c-.754-2.083-1.219-4.459-1.317-7zM17 28v5.919c-2.747-.437-5.163-2.655-6.799-5.919H17zm2 5.919V28h6.8c-1.637 3.264-4.053 5.482-6.8 5.919zM19 26v-7h8.969c-.099 2.541-.563 4.917-1.317 7H19zm10.967-7h3.982c-.157 2.541-.9 4.917-2.107 7h-3.104c.706-2.129 1.136-4.494 1.229-7zm0-2c-.093-2.505-.523-4.871-1.229-7h3.104c1.207 2.083 1.95 4.46 2.107 7h-3.982zm.512-9h-2.503c-.717-1.604-1.606-3.015-2.619-4.199C27.346 4.833 29.089 6.267 30.479 8zM10.643 3.801C9.629 4.985 8.74 6.396 8.023 8H5.521c1.39-1.733 3.133-3.166 5.122-4.199zM5.521 28h2.503c.716 1.604 1.605 3.015 2.619 4.198C8.654 31.166 6.911 29.733 5.521 28zm19.836 4.198c1.014-1.184 1.902-2.594 2.619-4.198h2.503c-1.39 1.733-3.133 3.166-5.122 4.198z"/></svg>
<text x="770" y="272" text-anchor="middle" font-size="17" fill="#475569" font-weight="600">ブラウザ：ダッシュボード(GUI)</text>
<line x1="205" y1="200" x2="350" y2="200" stroke="#475569" stroke-width="3.5" stroke-linecap="round" stroke-linejoin="round" marker-end="url(#aR)"/>
<text x="277.5" y="190.0" text-anchor="middle" font-size="17" fill="#0f172a" font-weight="600">作る・反映する（deploy）</text>
<line x1="700" y1="215" x2="555" y2="215" stroke="#94a3b8" stroke-width="2.0" stroke-linecap="round" stroke-linejoin="round" marker-end="url(#aRsub)" marker-start="url(#aRsub)"/>
<text x="627" y="200" text-anchor="middle" font-size="17" fill="#475569" font-weight="600">状態を確認する</text>
</svg>
