<svg xmlns="http://www.w3.org/2000/svg" width="900" height="420" viewBox="0 0 900 420" font-family="'Hiragino Sans','Noto Sans JP','Yu Gothic','Segoe UI',sans-serif">
<defs><marker id="aR" viewBox="0 0 10 10" refX="8" refY="5" markerWidth="7" markerHeight="7" orient="auto-start-reverse"><path d="M0 1 L9 5 L0 9 z" fill="#475569"/></marker><marker id="aRsub" viewBox="0 0 10 10" refX="8" refY="5" markerWidth="7" markerHeight="7" orient="auto-start-reverse"><path d="M0 1 L9 5 L0 9 z" fill="#94a3b8"/></marker></defs>
<rect x="0" y="0" width="900" height="420" fill="#ffffff"/>
<svg x="110" y="82" width="80" height="80" viewBox="0 0 36 36"><path fill="#CCD6DD" d="M34 29.096c-.417-.963-.896-2.008-2-2.008h-1c1.104 0 2-.899 2-2.008V8.008C33 6.899 32.104 6 31 6H5c-1.104 0-2 .899-2 2.008V25.08c0 1.109.896 2.008 2 2.008H4c-1.104 0-1.667 1.004-2 2.008l-2 4.895C0 35.101.896 36 2 36h32c1.104 0 2-.899 2-2.008l-2-4.896z"/><path fill="#9AAAB4" d="M.008 34.075l.006.057.17.692C.5 35.516 1.192 36 2 36h32c1.076 0 1.947-.855 1.992-1.925H.008z"/><path fill="#5DADEC" d="M31 24.075c0 .555-.447 1.004-1 1.004H6c-.552 0-1-.449-1-1.004V9.013c0-.555.448-1.004 1-1.004h24c.553 0 1 .45 1 1.004v15.062z"/><path fill="#AEBBC1" d="M32.906 31.042l-.76-2.175c-.239-.46-.635-.837-1.188-.837H5.11c-.552 0-.906.408-1.156 1.036l-.688 1.977c-.219.596.448 1.004 1 1.004h7.578s.937-.047 1.103-.608c.192-.648.415-1.624.463-1.796.074-.264.388-.531.856-.531h8.578c.5 0 .746.253.811.566.042.204.312 1.141.438 1.782.111.571 1.221.586 1.221.586h6.594c.551 0 1.217-.471.998-1.004z"/><path fill="#9AAAB4" d="M22.375 33.113h-7.781c-.375 0-.538-.343-.484-.675.054-.331.359-1.793.383-1.963.023-.171.274-.375.524-.375h7.015c.297 0 .49.163.55.489.059.327.302 1.641.321 1.941.019.301-.169.583-.528.583z"/></svg>
<text x="150" y="182" text-anchor="middle" font-size="21" fill="#0f172a" font-weight="700">バージョン確認</text>
<svg x="410" y="272" width="80" height="80" viewBox="0 0 36 36"><path fill="#CCD6DD" d="M27 8c-.701 0-1.377.106-2.015.298.005-.1.015-.197.015-.298 0-3.313-2.687-6-6-6-2.769 0-5.093 1.878-5.785 4.427C12.529 6.154 11.783 6 11 6c-3.314 0-6 2.686-6 6 0 3.312 2.686 6 6 6 2.769 0 5.093-1.878 5.785-4.428.686.273 1.432.428 2.215.428.375 0 .74-.039 1.096-.104-.058.36-.096.727-.096 1.104 0 3.865 3.135 7 7 7s7-3.135 7-7c0-3.866-3.135-7-7-7z"/><path fill="#E1E8ED" d="M31 22c-.467 0-.91.085-1.339.204.216-.526.339-1.1.339-1.704 0-2.485-2.015-4.5-4.5-4.5-1.019 0-1.947.351-2.701.921C22.093 14.096 19.544 12 16.5 12c-2.838 0-5.245 1.822-6.131 4.357C9.621 16.125 8.825 16 8 16c-4.418 0-8 3.582-8 8 0 4.419 3.582 8 8 8h23c2.762 0 5-2.238 5-5s-2.238-5-5-5z"/></svg>
<text x="450" y="372" text-anchor="middle" font-size="21" fill="#0f172a" font-weight="700">インストール</text>
<svg x="720" y="82" width="80" height="80" viewBox="0 0 36 36"><path fill="#77B255" d="M36 32c0 2.209-1.791 4-4 4H4c-2.209 0-4-1.791-4-4V4c0-2.209 1.791-4 4-4h28c2.209 0 4 1.791 4 4v28z"/><path fill="#FFF" d="M29.28 6.362c-1.156-.751-2.704-.422-3.458.736L14.936 23.877l-5.029-4.65c-1.014-.938-2.596-.875-3.533.138-.937 1.014-.875 2.596.139 3.533l7.209 6.666c.48.445 1.09.665 1.696.665.673 0 1.534-.282 2.099-1.139.332-.506 12.5-19.27 12.5-19.27.751-1.159.421-2.707-.737-3.458z"/></svg>
<text x="760" y="182" text-anchor="middle" font-size="21" fill="#0f172a" font-weight="700">再確認</text>
<line x1="245" y1="110" x2="665" y2="110" stroke="#475569" stroke-width="3.5" stroke-linecap="round" stroke-linejoin="round" marker-end="url(#aR)"/>
<text x="455.0" y="100.0" text-anchor="middle" font-size="17" fill="#0f172a" font-weight="600">OKならそのまま</text>
<path d="M165 200 Q 275.0 277.5 385 295" fill="none" stroke="#94a3b8" stroke-width="2.0" stroke-linecap="round" stroke-linejoin="round" marker-end="url(#aRsub)"/>
<text x="275.0" y="267.5" text-anchor="middle" font-size="17" fill="#475569" font-weight="600">未インストールなら</text>
<path d="M545 295 Q 632.5 217.5 720 200" fill="none" stroke="#475569" stroke-width="3.5" stroke-linecap="round" stroke-linejoin="round" marker-end="url(#aR)"/>
<text x="632.5" y="207.5" text-anchor="middle" font-size="17" fill="#0f172a" font-weight="600">インストール後</text>
</svg>
