<svg xmlns="http://www.w3.org/2000/svg" width="880" height="560" viewBox="0 0 880 560" font-family="'Hiragino Sans','Noto Sans JP','Yu Gothic','Segoe UI',sans-serif">
<defs><marker id="aR" viewBox="0 0 10 10" refX="8" refY="5" markerWidth="7" markerHeight="7" orient="auto-start-reverse"><path d="M0 1 L9 5 L0 9 z" fill="#475569"/></marker><marker id="aRsub" viewBox="0 0 10 10" refX="8" refY="5" markerWidth="7" markerHeight="7" orient="auto-start-reverse"><path d="M0 1 L9 5 L0 9 z" fill="#94a3b8"/></marker></defs>
<rect x="0" y="0" width="880" height="560" fill="#ffffff"/>
<text x="440" y="46" text-anchor="middle" font-size="33" fill="#1e293b" font-weight="700">Worker だけ vs Worker + D1</text>
<text x="60" y="112" text-anchor="start" font-size="21" fill="#1e293b" font-weight="700">Worker だけ</text>
<rect x="60" y="132" width="360" height="150" rx="16" fill="#f8fafc" stroke="#94a3b8" stroke-width="2.5"/>
<svg x="95" y="168" width="64" height="64" viewBox="0 0 36 36"><path fill="#66757F" d="M34 15h-3.362c-.324-1.369-.864-2.651-1.582-3.814l2.379-2.379c.781-.781.781-2.048 0-2.829l-1.414-1.414c-.781-.781-2.047-.781-2.828 0l-2.379 2.379C23.65 6.225 22.369 5.686 21 5.362V2c0-1.104-.896-2-2-2h-2c-1.104 0-2 .896-2 2v3.362c-1.369.324-2.651.864-3.814 1.582L8.808 4.565c-.781-.781-2.048-.781-2.828 0L4.565 5.979c-.781.781-.781 2.048-.001 2.829l2.379 2.379C6.225 12.35 5.686 13.632 5.362 15H2c-1.104 0-2 .896-2 2v2c0 1.104.896 2 2 2h3.362c.324 1.368.864 2.65 1.582 3.813l-2.379 2.379c-.78.78-.78 2.048.001 2.829l1.414 1.414c.78.78 2.047.78 2.828 0l2.379-2.379c1.163.719 2.445 1.258 3.814 1.582V34c0 1.104.896 2 2 2h2c1.104 0 2-.896 2-2v-3.362c1.368-.324 2.65-.864 3.813-1.582l2.379 2.379c.781.781 2.047.781 2.828 0l1.414-1.414c.781-.781.781-2.048 0-2.829l-2.379-2.379c.719-1.163 1.258-2.445 1.582-3.814H34c1.104 0 2-.896 2-2v-2C36 15.896 35.104 15 34 15zM18 26c-4.418 0-8-3.582-8-8s3.582-8 8-8 8 3.582 8 8-3.582 8-8 8z"/></svg>
<text x="127" y="262" text-anchor="middle" font-size="17" fill="#475569" font-weight="600">Worker</text>
<svg x="250" y="170" width="56" height="56" viewBox="0 0 36 36"><path fill="#CCD6DD" d="M31 32c0 2.209-1.791 4-4 4H5c-2.209 0-4-1.791-4-4V4c0-2.209 1.791-4 4-4h22c2.209 0 4 1.791 4 4v28z"/><path fill="#99AAB5" d="M27 24c0 .553-.447 1-1 1H6c-.552 0-1-.447-1-1 0-.553.448-1 1-1h20c.553 0 1 .447 1 1zm-16 4c0 .553-.448 1-1 1H6c-.552 0-1-.447-1-1 0-.553.448-1 1-1h4c.552 0 1 .447 1 1zM27 8c0 .552-.447 1-1 1H6c-.552 0-1-.448-1-1s.448-1 1-1h20c.553 0 1 .448 1 1zm0 4c0 .553-.447 1-1 1H6c-.552 0-1-.447-1-1 0-.553.448-1 1-1h20c.553 0 1 .447 1 1zm0 4c0 .553-.447 1-1 1H6c-.552 0-1-.447-1-1 0-.553.448-1 1-1h20c.553 0 1 .447 1 1zm0 4c0 .553-.447 1-1 1H6c-.552 0-1-.447-1-1 0-.553.448-1 1-1h20c.553 0 1 .447 1 1z"/><path fill="#66757F" d="M31 6.272c-.827-.535-1.837-.579-2.521-.023l-.792.646-1.484 1.211-.1.08-2.376 1.938-11.878 9.686c-.437.357-.793 1.219-1.173 2.074-.378.85-.969 2.852-1.443 4.391-.148.25-1.065 1.846-.551 2.453.52.615 2.326.01 2.568-.076 1.626-.174 3.731-.373 4.648-.58.924-.211 1.854-.395 2.291-.752.008-.006.01-.018.017-.023l11.858-9.666.792-.646.144-.118V6.272z"/><path fill="#D99E82" d="M18.145 22.526s-1.274-1.881-2.117-2.553c-.672-.843-2.549-2.116-2.549-2.116-.448-.446-1.191-.48-1.629-.043-.437.438-.793 1.366-1.173 2.291-.472 1.146-1.276 4.154-1.768 5.752-.083.272.517-.45.503-.21-.01.187.027.394.074.581l-.146.159.208.067c.025.082.05.154.068.21l.159-.146c.187.047.394.084.58.074.24-.014-.483.587-.21.503 1.598-.493 4.607-1.296 5.752-1.768.924-.381 1.854-.736 2.291-1.174.439-.435.406-1.178-.043-1.627z"/><path fill="#EA596E" d="M25.312 4.351c-.876.875-.876 2.293 0 3.168l3.167 3.168c.876.874 2.294.874 3.168 0l3.169-3.168c.874-.875.874-2.293 0-3.168l-3.169-3.168c-.874-.875-2.292-.875-3.168 0l-3.167 3.168z"/><path fill="#FFCC4D" d="M11.849 17.815l3.17 3.17 3.165 3.166 11.881-11.879-6.337-6.336-11.879 11.879z"/><path fill="#292F33" d="M11.298 26.742s-2.06 1.133-2.616.576c-.557-.558.581-2.611.581-2.611s1.951.036 2.035 2.035z"/><path fill="#CCD6DD" d="M23.728 5.935l3.96-3.96 6.336 6.337-3.96 3.96z"/><path fill="#99AAB5" d="M26.103 3.558l.792-.792 6.336 6.335-.792.792zM24.52 5.142l.791-.791 6.336 6.335-.792.792z"/></svg>
<text x="278" y="256" text-anchor="middle" font-size="17" fill="#475569" font-weight="600">投稿</text>
<line x1="335" y1="210" x2="470" y2="250" stroke="#94a3b8" stroke-width="3" stroke-linecap="round" marker-end="url(#aRsub)"/>
<text x="402.5" y="220.0" text-anchor="middle" font-size="17" fill="#64748b" font-weight="600">次のリクエスト</text>
<svg x="500" y="178" width="44" height="44" viewBox="0 0 36 36"><path fill="#CCD6DD" d="M31 32c0 2.209-1.791 4-4 4H5c-2.209 0-4-1.791-4-4V4c0-2.209 1.791-4 4-4h22c2.209 0 4 1.791 4 4v28z"/><path fill="#99AAB5" d="M27 24c0 .553-.447 1-1 1H6c-.552 0-1-.447-1-1 0-.553.448-1 1-1h20c.553 0 1 .447 1 1zm-16 4c0 .553-.448 1-1 1H6c-.552 0-1-.447-1-1 0-.553.448-1 1-1h4c.552 0 1 .447 1 1zM27 8c0 .552-.447 1-1 1H6c-.552 0-1-.448-1-1s.448-1 1-1h20c.553 0 1 .448 1 1zm0 4c0 .553-.447 1-1 1H6c-.552 0-1-.447-1-1 0-.553.448-1 1-1h20c.553 0 1 .447 1 1zm0 4c0 .553-.447 1-1 1H6c-.552 0-1-.447-1-1 0-.553.448-1 1-1h20c.553 0 1 .447 1 1zm0 4c0 .553-.447 1-1 1H6c-.552 0-1-.447-1-1 0-.553.448-1 1-1h20c.553 0 1 .447 1 1z"/><path fill="#66757F" d="M31 6.272c-.827-.535-1.837-.579-2.521-.023l-.792.646-1.484 1.211-.1.08-2.376 1.938-11.878 9.686c-.437.357-.793 1.219-1.173 2.074-.378.85-.969 2.852-1.443 4.391-.148.25-1.065 1.846-.551 2.453.52.615 2.326.01 2.568-.076 1.626-.174 3.731-.373 4.648-.58.924-.211 1.854-.395 2.291-.752.008-.006.01-.018.017-.023l11.858-9.666.792-.646.144-.118V6.272z"/><path fill="#D99E82" d="M18.145 22.526s-1.274-1.881-2.117-2.553c-.672-.843-2.549-2.116-2.549-2.116-.448-.446-1.191-.48-1.629-.043-.437.438-.793 1.366-1.173 2.291-.472 1.146-1.276 4.154-1.768 5.752-.083.272.517-.45.503-.21-.01.187.027.394.074.581l-.146.159.208.067c.025.082.05.154.068.21l.159-.146c.187.047.394.084.58.074.24-.014-.483.587-.21.503 1.598-.493 4.607-1.296 5.752-1.768.924-.381 1.854-.736 2.291-1.174.439-.435.406-1.178-.043-1.627z"/><path fill="#EA596E" d="M25.312 4.351c-.876.875-.876 2.293 0 3.168l3.167 3.168c.876.874 2.294.874 3.168 0l3.169-3.168c.874-.875.874-2.293 0-3.168l-3.169-3.168c-.874-.875-2.292-.875-3.168 0l-3.167 3.168z"/><path fill="#FFCC4D" d="M11.849 17.815l3.17 3.17 3.165 3.166 11.881-11.879-6.337-6.336-11.879 11.879z"/><path fill="#292F33" d="M11.298 26.742s-2.06 1.133-2.616.576c-.557-.558.581-2.611.581-2.611s1.951.036 2.035 2.035z"/><path fill="#CCD6DD" d="M23.728 5.935l3.96-3.96 6.336 6.337-3.96 3.96z"/><path fill="#99AAB5" d="M26.103 3.558l.792-.792 6.336 6.335-.792.792zM24.52 5.142l.791-.791 6.336 6.335-.792.792z"/></svg>
<svg x="565" y="172" width="52" height="52" viewBox="0 0 36 36"><path fill="#BE1931" d="M36 18c0 9.941-8.059 18-18 18S0 27.941 0 18 8.059 0 18 0s18 8.059 18 18z"/><path fill="#FFF" d="M32 20c0 1.104-.896 2-2 2H6c-1.104 0-2-.896-2-2v-4c0-1.104.896-2 2-2h24c1.104 0 2 .896 2 2v4z"/></svg>
<text x="560" y="272" text-anchor="middle" font-size="17" fill="#be185d" font-weight="600">消えてしまう</text>
<line x1="60" y1="312" x2="820" y2="312" stroke="#cbd5e1" stroke-width="2" stroke-dasharray="8 6"/>
<text x="60" y="362" text-anchor="start" font-size="21" fill="#1e293b" font-weight="700">Worker + D1</text>
<rect x="60" y="382" width="360" height="150" rx="16" fill="#eff6ff" stroke="#3b82f6" stroke-width="2.5"/>
<svg x="95" y="418" width="64" height="64" viewBox="0 0 36 36"><path fill="#66757F" d="M34 15h-3.362c-.324-1.369-.864-2.651-1.582-3.814l2.379-2.379c.781-.781.781-2.048 0-2.829l-1.414-1.414c-.781-.781-2.047-.781-2.828 0l-2.379 2.379C23.65 6.225 22.369 5.686 21 5.362V2c0-1.104-.896-2-2-2h-2c-1.104 0-2 .896-2 2v3.362c-1.369.324-2.651.864-3.814 1.582L8.808 4.565c-.781-.781-2.048-.781-2.828 0L4.565 5.979c-.781.781-.781 2.048-.001 2.829l2.379 2.379C6.225 12.35 5.686 13.632 5.362 15H2c-1.104 0-2 .896-2 2v2c0 1.104.896 2 2 2h3.362c.324 1.368.864 2.65 1.582 3.813l-2.379 2.379c-.78.78-.78 2.048.001 2.829l1.414 1.414c.78.78 2.047.78 2.828 0l2.379-2.379c1.163.719 2.445 1.258 3.814 1.582V34c0 1.104.896 2 2 2h2c1.104 0 2-.896 2-2v-3.362c1.368-.324 2.65-.864 3.813-1.582l2.379 2.379c.781.781 2.047.781 2.828 0l1.414-1.414c.781-.781.781-2.048 0-2.829l-2.379-2.379c.719-1.163 1.258-2.445 1.582-3.814H34c1.104 0 2-.896 2-2v-2C36 15.896 35.104 15 34 15zM18 26c-4.418 0-8-3.582-8-8s3.582-8 8-8 8 3.582 8 8-3.582 8-8 8z"/></svg>
<text x="127" y="512" text-anchor="middle" font-size="17" fill="#1d4ed8" font-weight="600">Worker</text>
<svg x="250" y="420" width="56" height="56" viewBox="0 0 36 36"><path fill="#CCD6DD" d="M31 32c0 2.209-1.791 4-4 4H5c-2.209 0-4-1.791-4-4V4c0-2.209 1.791-4 4-4h22c2.209 0 4 1.791 4 4v28z"/><path fill="#99AAB5" d="M27 24c0 .553-.447 1-1 1H6c-.552 0-1-.447-1-1 0-.553.448-1 1-1h20c.553 0 1 .447 1 1zm-16 4c0 .553-.448 1-1 1H6c-.552 0-1-.447-1-1 0-.553.448-1 1-1h4c.552 0 1 .447 1 1zM27 8c0 .552-.447 1-1 1H6c-.552 0-1-.448-1-1s.448-1 1-1h20c.553 0 1 .448 1 1zm0 4c0 .553-.447 1-1 1H6c-.552 0-1-.447-1-1 0-.553.448-1 1-1h20c.553 0 1 .447 1 1zm0 4c0 .553-.447 1-1 1H6c-.552 0-1-.447-1-1 0-.553.448-1 1-1h20c.553 0 1 .447 1 1zm0 4c0 .553-.447 1-1 1H6c-.552 0-1-.447-1-1 0-.553.448-1 1-1h20c.553 0 1 .447 1 1z"/><path fill="#66757F" d="M31 6.272c-.827-.535-1.837-.579-2.521-.023l-.792.646-1.484 1.211-.1.08-2.376 1.938-11.878 9.686c-.437.357-.793 1.219-1.173 2.074-.378.85-.969 2.852-1.443 4.391-.148.25-1.065 1.846-.551 2.453.52.615 2.326.01 2.568-.076 1.626-.174 3.731-.373 4.648-.58.924-.211 1.854-.395 2.291-.752.008-.006.01-.018.017-.023l11.858-9.666.792-.646.144-.118V6.272z"/><path fill="#D99E82" d="M18.145 22.526s-1.274-1.881-2.117-2.553c-.672-.843-2.549-2.116-2.549-2.116-.448-.446-1.191-.48-1.629-.043-.437.438-.793 1.366-1.173 2.291-.472 1.146-1.276 4.154-1.768 5.752-.083.272.517-.45.503-.21-.01.187.027.394.074.581l-.146.159.208.067c.025.082.05.154.068.21l.159-.146c.187.047.394.084.58.074.24-.014-.483.587-.21.503 1.598-.493 4.607-1.296 5.752-1.768.924-.381 1.854-.736 2.291-1.174.439-.435.406-1.178-.043-1.627z"/><path fill="#EA596E" d="M25.312 4.351c-.876.875-.876 2.293 0 3.168l3.167 3.168c.876.874 2.294.874 3.168 0l3.169-3.168c.874-.875.874-2.293 0-3.168l-3.169-3.168c-.874-.875-2.292-.875-3.168 0l-3.167 3.168z"/><path fill="#FFCC4D" d="M11.849 17.815l3.17 3.17 3.165 3.166 11.881-11.879-6.337-6.336-11.879 11.879z"/><path fill="#292F33" d="M11.298 26.742s-2.06 1.133-2.616.576c-.557-.558.581-2.611.581-2.611s1.951.036 2.035 2.035z"/><path fill="#CCD6DD" d="M23.728 5.935l3.96-3.96 6.336 6.337-3.96 3.96z"/><path fill="#99AAB5" d="M26.103 3.558l.792-.792 6.336 6.335-.792.792zM24.52 5.142l.791-.791 6.336 6.335-.792.792z"/></svg>
<text x="278" y="506" text-anchor="middle" font-size="17" fill="#1d4ed8" font-weight="600">投稿</text>
<line x1="335" y1="458" x2="505" y2="458" stroke="#475569" stroke-width="3" stroke-linecap="round" marker-end="url(#aR)"/>
<text x="420.0" y="448.0" text-anchor="middle" font-size="17" fill="#1e293b" font-weight="600">保存</text>
<path d="M540.0 415.5 A75.0 20.0 0 0 0 690.0 415.5 L690.0 500.5 A75.0 20.0 0 0 1 540.0 500.5 Z" fill="#ecfdf5" stroke="#10b981" stroke-width="2.5"/>
<ellipse cx="615.0" cy="415.5" rx="75.0" ry="20.0" fill="#ecfdf5" stroke="#10b981" stroke-width="2.5"/>
<svg x="589" y="424" width="52" height="52" viewBox="0 0 36 36"><path fill="#292F33" d="M30 34c0 1.104-.896 2-2 2H8c-1.104 0-2-.896-2-2V2c0-1.104.896-2 2-2h20c1.104 0 2 .896 2 2v32z"/><path fill="#66757F" d="M28 16c0 .552-.447 1-1 1H9c-.552 0-1-.448-1-1V3c0-.552.448-1 1-1h18c.553 0 1 .448 1 1v13zm0 17c0 .553-.447 1-1 1H9c-.552 0-1-.447-1-1V20c0-.553.448-1 1-1h18c.553 0 1 .447 1 1v13z"/><path fill="#292F33" d="M22 8c0 .552-.447 1-1 1h-6c-.552 0-1-.448-1-1V5c0-.552.448-1 1-1h6c.553 0 1 .448 1 1v3zm0 17c0 .553-.447 1-1 1h-6c-.552 0-1-.447-1-1v-3c0-.553.448-1 1-1h6c.553 0 1 .447 1 1v3z"/><path fill="#E1E8ED" d="M15 5h6v3h-6zm0 17h6v3h-6zm9-8.97c0 .536-.435.97-.97.97H12.97c-.536 0-.97-.435-.97-.97v-.06c0-.536.434-.97.97-.97h10.06c.535 0 .97.435.97.97v.06zm0 16.999c0 .536-.435.971-.97.971H12.97c-.536 0-.97-.435-.97-.971v-.059c0-.535.434-.97.97-.97h10.06c.535 0 .97.435.97.971v.058z"/></svg>
<text x="615" y="492" text-anchor="middle" font-size="17" fill="#047857" font-weight="600">D1</text>
<svg x="725" y="415" width="48" height="48" viewBox="0 0 36 36"><path fill="#77B255" d="M36 32c0 2.209-1.791 4-4 4H4c-2.209 0-4-1.791-4-4V4c0-2.209 1.791-4 4-4h28c2.209 0 4 1.791 4 4v28z"/><path fill="#FFF" d="M29.28 6.362c-1.156-.751-2.704-.422-3.458.736L14.936 23.877l-5.029-4.65c-1.014-.938-2.596-.875-3.533.138-.937 1.014-.875 2.596.139 3.533l7.209 6.666c.48.445 1.09.665 1.696.665.673 0 1.534-.282 2.099-1.139.332-.506 12.5-19.27 12.5-19.27.751-1.159.421-2.707-.737-3.458z"/></svg>
<text x="725" y="512" text-anchor="middle" font-size="17" fill="#047857" font-weight="600">ずっと残る</text>
</svg>
