<svg xmlns="http://www.w3.org/2000/svg" width="860" height="360" viewBox="0 0 860 360" font-family="'Hiragino Sans','Noto Sans JP','Yu Gothic','Segoe UI',sans-serif">
<defs><marker id="aR" viewBox="0 0 10 10" refX="8" refY="5" markerWidth="7" markerHeight="7" orient="auto-start-reverse"><path d="M0 1 L9 5 L0 9 z" fill="#475569"/></marker><marker id="aRsub" viewBox="0 0 10 10" refX="8" refY="5" markerWidth="7" markerHeight="7" orient="auto-start-reverse"><path d="M0 1 L9 5 L0 9 z" fill="#94a3b8"/></marker></defs>
<rect x="0" y="0" width="860" height="360" fill="#ffffff"/>
<text x="430" y="44" text-anchor="middle" font-size="21" fill="#0f172a" font-weight="700">マイグレーションはローカル D1 と本番 D1 の両方に適用する</text>
<polygon points="89.19999999999999,140.0 245.0,140.0 210.8,220.0 55.0,220.0" fill="#fef9c3" stroke="#f59e0b" stroke-width="3.5"/>
<text x="150" y="187" text-anchor="middle" font-size="17" fill="#b45309" font-weight="600">schema.sql</text>
<path d="M585.0 82.6 A95.0 17.6 0 0 0 775.0 82.6 L775.0 157.4 A95.0 17.6 0 0 1 585.0 157.4 Z" fill="#dbeafe" stroke="#3b82f6" stroke-width="3.5"/>
<ellipse cx="680.0" cy="82.6" rx="95.0" ry="17.6" fill="#dbeafe" stroke="#3b82f6" stroke-width="2.5"/>
<svg x="654" y="86" width="52" height="52" viewBox="0 0 36 36"><path fill="#292F33" d="M30 34c0 1.104-.896 2-2 2H8c-1.104 0-2-.896-2-2V2c0-1.104.896-2 2-2h20c1.104 0 2 .896 2 2v32z"/><path fill="#66757F" d="M28 16c0 .552-.447 1-1 1H9c-.552 0-1-.448-1-1V3c0-.552.448-1 1-1h18c.553 0 1 .448 1 1v13zm0 17c0 .553-.447 1-1 1H9c-.552 0-1-.447-1-1V20c0-.553.448-1 1-1h18c.553 0 1 .447 1 1v13z"/><path fill="#292F33" d="M22 8c0 .552-.447 1-1 1h-6c-.552 0-1-.448-1-1V5c0-.552.448-1 1-1h6c.553 0 1 .448 1 1v3zm0 17c0 .553-.447 1-1 1h-6c-.552 0-1-.447-1-1v-3c0-.553.448-1 1-1h6c.553 0 1 .447 1 1v3z"/><path fill="#E1E8ED" d="M15 5h6v3h-6zm0 17h6v3h-6zm9-8.97c0 .536-.435.97-.97.97H12.97c-.536 0-.97-.435-.97-.97v-.06c0-.536.434-.97.97-.97h10.06c.535 0 .97.435.97.97v.06zm0 16.999c0 .536-.435.971-.97.971H12.97c-.536 0-.97-.435-.97-.971v-.059c0-.535.434-.97.97-.97h10.06c.535 0 .97.435.97.971v.058z"/></svg>
<text x="680" y="154" text-anchor="middle" font-size="17" fill="#1d4ed8" font-weight="600">ローカル D1</text>
<text x="680" y="190" text-anchor="middle" font-size="13" fill="#475569" font-weight="400">--local</text>
<path d="M585.0 242.6 A95.0 17.6 0 0 0 775.0 242.6 L775.0 317.4 A95.0 17.6 0 0 1 585.0 317.4 Z" fill="#ffedd5" stroke="#f97316" stroke-width="3.5"/>
<ellipse cx="680.0" cy="242.6" rx="95.0" ry="17.6" fill="#ffedd5" stroke="#f97316" stroke-width="2.5"/>
<svg x="654" y="246" width="52" height="52" viewBox="0 0 36 36"><path fill="#292F33" d="M30 34c0 1.104-.896 2-2 2H8c-1.104 0-2-.896-2-2V2c0-1.104.896-2 2-2h20c1.104 0 2 .896 2 2v32z"/><path fill="#66757F" d="M28 16c0 .552-.447 1-1 1H9c-.552 0-1-.448-1-1V3c0-.552.448-1 1-1h18c.553 0 1 .448 1 1v13zm0 17c0 .553-.447 1-1 1H9c-.552 0-1-.447-1-1V20c0-.553.448-1 1-1h18c.553 0 1 .447 1 1v13z"/><path fill="#292F33" d="M22 8c0 .552-.447 1-1 1h-6c-.552 0-1-.448-1-1V5c0-.552.448-1 1-1h6c.553 0 1 .448 1 1v3zm0 17c0 .553-.447 1-1 1h-6c-.552 0-1-.447-1-1v-3c0-.553.448-1 1-1h6c.553 0 1 .447 1 1v3z"/><path fill="#E1E8ED" d="M15 5h6v3h-6zm0 17h6v3h-6zm9-8.97c0 .536-.435.97-.97.97H12.97c-.536 0-.97-.435-.97-.97v-.06c0-.536.434-.97.97-.97h10.06c.535 0 .97.435.97.97v.06zm0 16.999c0 .536-.435.971-.97.971H12.97c-.536 0-.97-.435-.97-.971v-.059c0-.535.434-.97.97-.97h10.06c.535 0 .97.435.97.971v.058z"/></svg>
<text x="680" y="314" text-anchor="middle" font-size="17" fill="#c2410c" font-weight="600">本番 D1</text>
<text x="680" y="350" text-anchor="middle" font-size="13" fill="#475569" font-weight="400">--remote</text>
<line x1="250" y1="155" x2="575" y2="120" stroke="#475569" stroke-width="3.5" stroke-linecap="round" stroke-linejoin="round" marker-end="url(#aR)"/>
<text x="412.5" y="127.5" text-anchor="middle" font-size="17" fill="#0f172a" font-weight="600">適用</text>
<line x1="250" y1="205" x2="575" y2="280" stroke="#475569" stroke-width="3.5" stroke-linecap="round" stroke-linejoin="round" marker-end="url(#aR)"/>
<text x="412.5" y="232.5" text-anchor="middle" font-size="17" fill="#0f172a" font-weight="600">適用</text>
</svg>
