<svg xmlns="http://www.w3.org/2000/svg" width="960" height="340" viewBox="0 0 960 340" font-family="'Hiragino Sans','Noto Sans JP','Yu Gothic','Segoe UI',sans-serif">
<defs><marker id="aR" viewBox="0 0 10 10" refX="8" refY="5" markerWidth="7" markerHeight="7" orient="auto-start-reverse"><path d="M0 1 L9 5 L0 9 z" fill="#475569"/></marker><marker id="aRsub" viewBox="0 0 10 10" refX="8" refY="5" markerWidth="7" markerHeight="7" orient="auto-start-reverse"><path d="M0 1 L9 5 L0 9 z" fill="#94a3b8"/></marker></defs>
<rect x="0" y="0" width="960" height="340" fill="#ffffff"/>
<rect x="20" y="20" width="920" height="300" rx="16" fill="#ffedd5" stroke="#f97316" stroke-width="3.5"/>
<rect x="60" y="60" width="340" height="44" rx="16" fill="#ffedd5" stroke="#f97316" stroke-width="3.5"/>
<text x="78" y="88" text-anchor="start" font-size="17" fill="#c2410c" font-weight="600">SECTION 01 ・ 公開する</text>
<text x="64" y="190" text-anchor="start" font-size="33" fill="#0f172a" font-weight="700">このセクションについて</text>
<text x="66" y="286" text-anchor="start" font-size="21" fill="#c2410c" font-weight="700">01-00</text>
<ellipse cx="800" cy="170" rx="92" ry="92" fill="#f1f5f9" stroke="#94a3b8" stroke-width="3.5"/>
<svg x="740" y="110" width="120" height="120" viewBox="0 0 36 36"><path fill="#A0041E" d="M1 17l8-7 16 1 1 16-7 8s.001-5.999-6-12-12-6-12-6z"/><path fill="#FFAC33" d="M.973 35s-.036-7.979 2.985-11S15 21.187 15 21.187 14.999 29 11.999 32c-3 3-11.026 3-11.026 3z"/><circle fill="#FFCC4D" cx="8.999" cy="27" r="4"/><path fill="#55ACEE" d="M35.999 0s-10 0-22 10c-6 5-6 14-4 16s11 2 16-4c10-12 10-22 10-22z"/><path d="M26.999 5c-1.623 0-3.013.971-3.641 2.36.502-.227 1.055-.36 1.641-.36 2.209 0 4 1.791 4 4 0 .586-.133 1.139-.359 1.64 1.389-.627 2.359-2.017 2.359-3.64 0-2.209-1.791-4-4-4z"/><path fill="#A0041E" d="M8 28s0-4 1-5 13.001-10.999 14-10-9.001 13-10.001 14S8 28 8 28z"/></svg>
</svg>
